{
.appVersion = "1245";
DisplayStrings = (
"H/ellipsis H"
);
classes = (
{
automatic = 1;

glyphs = (
{
glyphname = A;
layers = (
{
anchors = (
{
name = bottom;
position = "{292, 0}";
},
{
name = ogonek;
position = "{585, 0}";
},
{
name = top;
position = "{430, 688}";
}
);
background = {
paths = (
{
closed = 1;
nodes = (
"546 0 LINE",
"585 0 LINE",
"448 688 LINE",
"413 688 LINE",
"-17 0 LINE",
"20 0 LINE",
"159 222 LINE",
"503 222 LINE"
);
},
{
closed = 1;
nodes = (
"422 637 LINE",
"496 256 LINE",
"180 256 LINE",
"417 637 LINE"
);
}
);
};
layerId = "CD898CA3-FB76-4965-A23E-9AA06D1CE2B1";
paths = (
{
closed = 1;
nodes = (
"22 0 LINE",
"161 222 LINE",
"505 222 LINE",
"548 0 LINE",
"585 0 LINE",
"448 688 LINE",
"413 688 LINE",
"-17 0 LINE"
);
},
{
closed = 1;
nodes = (
"419 637 LINE",
"424 637 LINE",
"498 256 LINE",
"182 256 LINE"
);
}
);
width = 683;
},
{
anchors = (
{
name = bottom;
position = "{303, 0}";
},
{
name = ogonek;
position = "{647, 0}";
},
{
name = top;
position = "{441, 688}";
}
);
background = {
paths = (
{
closed = 1;
nodes = (
"415 0 LINE",
"647 0 LINE",
"603 688 LINE",
"278 688 LINE",
"-59 0 LINE",
"167 0 LINE",
"213 103 LINE",
"412 103 LINE"
);
},
{
closed = 1;
nodes = (
"401 500 LINE",
"407 263 LINE",
"285 263 LINE",
"392 500 LINE"
);
}
);
};
layerId = "B4DE345C-CFDB-4A54-B125-3358BD91D59F";
paths = (
{
closed = 1;
nodes = (
"174 0 LINE",
"220 103 LINE",
"419 103 LINE",
"422 0 LINE",
"647 0 LINE",
"603 688 LINE",
"278 688 LINE",
"-59 0 LINE"
);
},
{
closed = 1;
nodes = (
"399 500 LINE",
"408 500 LINE",
"414 263 LINE",
"292 263 LINE"
);
}
);
width = 697;
},
{
anchors = (
{
name = bottom;
position = "{167, 0}";
},
{
name = ogonek;
position = "{372, 0}";
},
{
name = top;
position = "{306, 688}";
}
);
background = {
paths = (
{
closed = 1;
nodes = (
"194 0 LINE",
"349 0 LINE",
"403 688 LINE",
"170 688 LINE",
"-69 0 LINE",
"83 0 LINE",
"122 124 LINE",
"209 124 LINE"
);
},
{
closed = 1;
nodes = (
"258 543 LINE",
"224 259 LINE",
"163 259 LINE",
"251 543 LINE"
);
}
);
};
layerId = "47937877-2CF8-49A0-A6AF-2B1A27CB5FF4";
paths = (
{
closed = 1;
nodes = (
"109 0 LINE",
"148 124 LINE",
"235 124 LINE",
"220 0 LINE",
"372 0 LINE",
"426 688 LINE",
"193 688 LINE",
"-46 0 LINE"
);
},
{
closed = 1;
nodes = (
"277 543 LINE",
"284 543 LINE",
"250 259 LINE",
"189 259 LINE"
);
}
);
width = 427;
},
{
anchors = (
{
name = bottom;
position = "{162, 0}";
},
{
name = ogonek;
position = "{338, 0}";
},
{
name = top;
position = "{305, 688}";
}
);
background = {
paths = (
{
closed = 1;
nodes = (
"301 0 LINE",
"338 0 LINE",
"325 688 LINE",
"284 688 LINE",
"-22 0 LINE",
"14 0 LINE",
"109 217 LINE",
"298 217 LINE"
);
},
{
closed = 1;
nodes = (
"291 617 LINE",
"297 251 LINE",
"124 251 LINE",
"286 617 LINE"
);
}
);
};
layerId = "FA01890A-5211-455F-9108-1209F66A586C";
paths = (
{
closed = 1;
nodes = (
"16 0 LINE",
"111 217 LINE",
"300 217 LINE",
"303 0 LINE",
"338 0 LINE",
"325 688 LINE",
"284 688 LINE",
"-22 0 LINE"
);
},
{
closed = 1;
nodes = (
"288 617 LINE",
"293 617 LINE",
"299 251 LINE",
"126 251 LINE"
);
}
);
width = 401;
},
{
anchors = (
{
name = bottom;
position = "{314, 0}";
},
{
name = ogonek;
position = "{643, 0}";
},
{
name = top;
position = "{452, 688}";
}
);
layerId = "20A7088A-67D7-4614-84CF-19C576DDC019";
paths = (
{
closed = 1;
nodes = (
"100 0 LINE",
"195 162 LINE",
"489 162 LINE",
"516 0 LINE",
"643 0 LINE",
"537 688 LINE",
"368 688 LINE",
"-31 0 LINE"
);
},
{
closed = 1;
nodes = (
"425 568 LINE",
"431 568 LINE",
"478 264 LINE",
"248 264 LINE"
);
}
);
width = 713;
},
{
anchors = (
{
name = bottom;
position = "{197, 0}";
},
{
name = ogonek;
position = "{419, 0}";
},
{
name = top;
position = "{336, 688}";
}
);
layerId = "C784E404-3F19-435D-96BB-DB276E1DA8D0";
paths = (
{
closed = 1;
nodes = (
"78 0 LINE",
"146 161 LINE",
"309 161 LINE",
"308 0 LINE",
"419 0 LINE",
"418 688 LINE",
"257 688 LINE",
"-37 0 LINE"
);
},
{
closed = 1;
nodes = (
"311 571 LINE",
"318 571 LINE",
"313 257 LINE",
"182 257 LINE"
);
}
);
width = 481;
}
);
leftKerningGroup = A;
rightKerningGroup = A;
unicode = 0041;
},
{
glyphname = Aring;
layers = (
{
components = (
{
name = A;
},
{
alignment = -1;
name = ringcomb.case;
transform = "{1, 0, 0, 1, 239, 69}";
}
);
layerId = "CD898CA3-FB76-4965-A23E-9AA06D1CE2B1";
width = 683;
},
{
background = {
paths = (
{
closed = 1;
nodes = (
"168 0 LINE",
"214 103 LINE",
"413 103 LINE",
"416 0 LINE",
"648 0 LINE",
"600 731 LINE",
"584 671 LINE",
"616 692 OFFCURVE",
"631 729 OFFCURVE",
"643 787 CURVE SMOOTH",
"666 896 OFFCURVE",
"653 932 OFFCURVE",
"492 932 CURVE SMOOTH",
"331 932 OFFCURVE",
"303 896 OFFCURVE",
"280 787 CURVE SMOOTH",
"268 729 OFFCURVE",
"265 692 OFFCURVE",
"293 671 CURVE",
"299 731 LINE",
"-59 0 LINE"
);
},
{
closed = 1;
nodes = (
"392 500 LINE",
"401 500 LINE",
"408 263 LINE",
"286 263 LINE"
);
},
{
closed = 1;
nodes = (
"392 734 OFFCURVE",
"394 745 OFFCURVE",
"403 787 CURVE SMOOTH",
"412 830 OFFCURVE",
"415 842 OFFCURVE",
"473 842 CURVE SMOOTH",
"533 842 OFFCURVE",
"530 830 OFFCURVE",
"521 787 CURVE SMOOTH",
"512 745 OFFCURVE",
"510 734 OFFCURVE",
"450 734 CURVE SMOOTH"
);
}
);
};
components = (
{
name = A;
},
{
alignment = -1;
name = ringcomb.case;
transform = "{1.18, 0, 0, 1.18, 172, -8}";
}
);
layerId = "B4DE345C-CFDB-4A54-B125-3358BD91D59F";
width = 697;
},
{
components = (
{
name = A;
},
{
alignment = -1;
name = ringcomb.case;
transform = "{1, 0, 0, 1, 108, 95}";
}
);
layerId = "47937877-2CF8-49A0-A6AF-2B1A27CB5FF4";
width = 427;
},
{
components = (
{
name = A;
},
{
alignment = -1;
name = ringcomb.case;
transform = "{1, 0, 0, 1, 156, 111}";
}
);
layerId = "FA01890A-5211-455F-9108-1209F66A586C";
width = 401;
},
{
components = (
{
name = A;
},
{
alignment = -1;
name = ringcomb.case;
transform = "{1, 0, 0, 1, 244, 106}";
}
);
layerId = "20A7088A-67D7-4614-84CF-19C576DDC019";
width = 713;
},
{
components = (
{
name = A;
},
{
alignment = -1;
name = ringcomb.case;
transform = "{0.98, 0, 0, 0.98, 153, 123}";
}
);
layerId = "C784E404-3F19-435D-96BB-DB276E1DA8D0";
width = 481;
}
);
leftKerningGroup = A;
rightKerningGroup = A;
unicode = 00C5;
},
{
glyphname = Aringacute;
layers = (
{
components = (
{
name = Aring;
},
{
name = acutecomb.case;
transform = "{1, 0, 0, 1, 358, 309}";
}
);
layerId = "CD898CA3-FB76-4965-A23E-9AA06D1CE2B1";
width = 683;
},
{
background = {
paths = (
{
closed = 1;
nodes = (
"222 0 LINE",
"246 103 LINE",
"445 103 LINE",
"470 0 LINE",
"702 0 LINE",
"511 688 LINE",
"526 710 OFFCURVE",
"530 742 OFFCURVE",
"530 787 CURVE SMOOTH",
"530 896 OFFCURVE",
"509 932 OFFCURVE",
"348 932 CURVE SMOOTH",
"187 932 OFFCURVE",
"167 896 OFFCURVE",
"167 787 CURVE SMOOTH",
"167 742 OFFCURVE",
"170 710 OFFCURVE",
"186 688 CURVE",
"-5 0 LINE"
);
},
{
closed = 1;
nodes = (
"340 500 LINE",
"349 500 LINE",
"406 263 LINE",
"284 263 LINE"
);
},
{
closed = 1;
nodes = (
"290 734 OFFCURVE",
"290 745 OFFCURVE",
"290 787 CURVE SMOOTH",
"290 830 OFFCURVE",
"290 842 OFFCURVE",
"348 842 CURVE SMOOTH",
"408 842 OFFCURVE",
"408 830 OFFCURVE",
"408 787 CURVE SMOOTH",
"408 745 OFFCURVE",
"408 734 OFFCURVE",
"348 734 CURVE SMOOTH"
);
},
{
closed = 1;
nodes = (
"413 984 LINE",
"549 1127 LINE",
"549 1132 LINE",
"351 1132 LINE",
"265 989 LINE",
"265 984 LINE"
);
}
);
};
components = (
{
name = Aring;
},
{
name = acutecomb.case;
transform = "{1, 0, 0, 1, 317, 397}";
}
);
layerId = "B4DE345C-CFDB-4A54-B125-3358BD91D59F";
width = 697;
},
{
background = {
paths = (
{
closed = 1;
nodes = (
"157 0 LINE",
"169 124 LINE",
"256 124 LINE",
"268 0 LINE",
"423 0 LINE",
"330 688 LINE",
"340 706 OFFCURVE",
"341 731 OFFCURVE",
"341 762 CURVE SMOOTH",
"341 836 OFFCURVE",
"339 874 OFFCURVE",
"214 874 CURVE SMOOTH",
"89 874 OFFCURVE",
"86 836 OFFCURVE",
"86 762 CURVE SMOOTH",
"86 730 OFFCURVE",
"86 705 OFFCURVE",
"98 687 CURVE",
"4 0 LINE"
);
},
{
closed = 1;
nodes = (
"209 543 LINE",
"216 543 LINE",
"243 259 LINE",
"182 259 LINE"
);
},
{
closed = 1;
nodes = (
"179 725 OFFCURVE",
"179 732 OFFCURVE",
"179 762 CURVE SMOOTH",
"179 793 OFFCURVE",
"179 801 OFFCURVE",
"214 801 CURVE SMOOTH",
"249 801 OFFCURVE",
"249 793 OFFCURVE",
"249 762 CURVE SMOOTH",
"249 732 OFFCURVE",
"249 725 OFFCURVE",
"214 725 CURVE SMOOTH"
);
},
{
closed = 1;
nodes = (
"279 926 LINE",
"335 1069 LINE",
"335 1074 LINE",
"196 1074 LINE",
"160 931 LINE",
"160 926 LINE"
);
}
);
};
components = (
{
name = Aring;
},
{
name = acutecomb.case;
transform = "{1, 0, 0, 1, 223, 335}";
}
);
layerId = "47937877-2CF8-49A0-A6AF-2B1A27CB5FF4";
width = 427;
},
{
background = {
paths = (
{
closed = 1;
nodes = (
"56 0 LINE",
"105 217 LINE",
"294 217 LINE",
"344 0 LINE",
"381 0 LINE",
"221 687 LINE",
"274 691 OFFCURVE",
"281 716 OFFCURVE",
"281 772 CURVE SMOOTH",
"281 836 OFFCURVE",
"272 858 OFFCURVE",
"200 858 CURVE SMOOTH",
"128 858 OFFCURVE",
"120 836 OFFCURVE",
"120 772 CURVE SMOOTH",
"120 715 OFFCURVE",
"125 692 OFFCURVE",
"179 687 CURVE",
"20 0 LINE"
);
},
{
closed = 1;
nodes = (
"197 617 LINE",
"202 617 LINE",
"286 251 LINE",
"113 251 LINE"
);
},
{
closed = 1;
nodes = (
"157 715 OFFCURVE",
"153 727 OFFCURVE",
"153 772 CURVE SMOOTH",
"153 817 OFFCURVE",
"157 830 OFFCURVE",
"200 830 CURVE SMOOTH",
"243 830 OFFCURVE",
"248 817 OFFCURVE",
"248 772 CURVE SMOOTH",
"248 727 OFFCURVE",
"243 715 OFFCURVE",
"200 715 CURVE SMOOTH"
);
},
{
closed = 1;
nodes = (
"209 920 LINE",
"259 1053 LINE",
"259 1058 LINE",
"219 1058 LINE",
"186 925 LINE",
"186 920 LINE"
);
}
);
};
components = (
{
name = Aring;
},
{
name = acutecomb.case;
transform = "{1, 0, 0, 1, 253, 311}";
}
);
layerId = "FA01890A-5211-455F-9108-1209F66A586C";
width = 401;
},
{
components = (
{
name = Aring;
},
{
name = acutecomb.case;
transform = "{1, 0, 0, 1, 357, 346}";
}
);
layerId = "20A7088A-67D7-4614-84CF-19C576DDC019";
width = 713;
},
{
background = {
paths = (
{
closed = 1;
nodes = (
"124 0 LINE",
"158 161 LINE",
"321 161 LINE",
"355 0 LINE",
"469 0 LINE",
"323 684 LINE",
"354 698 OFFCURVE",
"358 725 OFFCURVE",
"358 770 CURVE SMOOTH",
"358 844 OFFCURVE",
"351 876 OFFCURVE",
"240 876 CURVE SMOOTH",
"130 876 OFFCURVE",
"123 844 OFFCURVE",
"123 770 CURVE SMOOTH",
"123 724 OFFCURVE",
"125 697 OFFCURVE",
"158 684 CURVE",
"12 0 LINE"
);
},
{
closed = 1;
nodes = (
"236 571 LINE",
"242 571 LINE",
"305 257 LINE",
"174 257 LINE"
);
},
{
closed = 1;
nodes = (
"195 721 OFFCURVE",
"194 731 OFFCURVE",
"194 770 CURVE SMOOTH",
"194 809 OFFCURVE",
"195 820 OFFCURVE",
"240 820 CURVE SMOOTH",
"286 820 OFFCURVE",
"288 809 OFFCURVE",
"288 770 CURVE SMOOTH",
"288 731 OFFCURVE",
"286 721 OFFCURVE",
"240 721 CURVE SMOOTH"
);
},
{
closed = 1;
nodes = (
"281 932 LINE",
"354 1071 LINE",
"354 1076 LINE",
"249 1076 LINE",
"200 937 LINE",
"200 932 LINE"
);
}
);
};
components = (
{
name = Aring;
},
{
name = acutecomb.case;
transform = "{1, 0, 0, 1, 264, 348}";
}
);
layerId = "C784E404-3F19-435D-96BB-DB276E1DA8D0";
width = 481;
}
);
leftKerningGroup = A;
rightKerningGroup = A;
unicode = 01FA;
},
{
glyphname = AE;
layers = (
{
anchors = (
{
name = bottom;
position = "{420, 0}";
},
{
name = top;
position = "{566, 688}";
}
);
layerId = "CD898CA3-FB76-4965-A23E-9AA06D1CE2B1";
paths = (
{
closed = 1;
nodes = (
"22 0 LINE",
"161 222 LINE",
"505 222 LINE",
"548 0 LINE",
"816 0 LINE",
"824 34 LINE",
"578 34 LINE",
"519 331 LINE",
"840 331 LINE",
"847 365 LINE",
"512 365 LINE",
"455 654 LINE",
"955 654 LINE",
"963 688 LINE",
"413 688 LINE",
"-17 0 LINE"
);
},
{
closed = 1;
nodes = (
"419 637 LINE",
"424 637 LINE",
"498 256 LINE",
"182 256 LINE"
);
}
);
width = 947;
},
{
anchors = (
{
name = bottom;
position = "{427, 0}";
},
{
name = top;
position = "{573, 688}";
}
);
layerId = "B4DE345C-CFDB-4A54-B125-3358BD91D59F";
paths = (
{
closed = 1;
nodes = (
"174 0 LINE",
"220 103 LINE",
"419 103 LINE",
"422 0 LINE",
"870 0 LINE",
"906 167 LINE",
"636 167 LINE",
"630 266 LINE",
"880 266 LINE",
"915 429 LINE",
"619 429 LINE",
"613 521 LINE",
"981 521 LINE",
"1017 688 LINE",
"278 688 LINE",
"-59 0 LINE"
);
},
{
closed = 1;
nodes = (
"399 500 LINE",
"408 500 LINE",
"414 263 LINE",
"292 263 LINE"
);
}
);
width = 961;
},
{
anchors = (
{
name = bottom;
position = "{223, 0}";
},
{
name = top;
position = "{369, 688}";
}
);
background = {
paths = (
{
closed = 1;
nodes = (
"180 0 LINE",
"454 0 LINE",
"484 139 LINE",
"353 139 LINE",
"369 278 LINE",
"498 278 LINE",
"528 417 LINE",
"387 417 LINE",
"404 549 LINE",
"571 549 LINE",
"601 688 LINE",
"175 688 LINE",
"-88 0 LINE",
"64 0 LINE",
"107 124 LINE",
"198 124 LINE"
);
},
{
closed = 1;
nodes = (
"258 543 LINE",
"217 259 LINE",
"152 259 LINE",
"251 543 LINE"
);
}
);
};
layerId = "47937877-2CF8-49A0-A6AF-2B1A27CB5FF4";
paths = (
{
closed = 1;
nodes = (
"109 0 LINE",
"148 124 LINE",
"235 124 LINE",
"220 0 LINE",
"480 0 LINE",
"510 139 LINE",
"383 139 LINE",
"394 278 LINE",
"524 278 LINE",
"554 417 LINE",
"405 417 LINE",
"415 549 LINE",
"597 549 LINE",
"627 688 LINE",
"193 688 LINE",
"-46 0 LINE"
);
},
{
closed = 1;
nodes = (
"277 543 LINE",
"284 543 LINE",
"250 259 LINE",
"189 259 LINE"
);
}
);
width = 554;
},
{
anchors = (
{
name = bottom;
position = "{219, 0}";
},
{
name = top;
position = "{365, 688}";
}
);
background = {
paths = (
{
closed = 1;
nodes = (
"250 0 LINE",
"441 0 LINE",
"449 34 LINE",
"290 34 LINE",
"307 331 LINE",
"484 331 LINE",
"491 365 LINE",
"309 365 LINE",
"326 654 LINE",
"580 654 LINE",
"588 688 LINE",
"288 688 LINE",
"-73 0 LINE",
"-37 0 LINE",
"76 217 LINE",
"264 217 LINE"
);
},
{
closed = 1;
nodes = (
"290 617 LINE",
"266 251 LINE",
"93 251 LINE",
"285 617 LINE"
);
}
);
};
layerId = "FA01890A-5211-455F-9108-1209F66A586C";
paths = (
{
closed = 1;
nodes = (
"16 0 LINE",
"111 217 LINE",
"300 217 LINE",
"303 0 LINE",
"441 0 LINE",
"449 34 LINE",
"337 34 LINE",
"331 331 LINE",
"484 331 LINE",
"491 365 LINE",
"331 365 LINE",
"325 654 LINE",
"580 654 LINE",
"588 688 LINE",
"284 688 LINE",
"-22 0 LINE"
);
},
{
closed = 1;
nodes = (
"288 617 LINE",
"293 617 LINE",
"299 251 LINE",
"126 251 LINE"
);
}
);
width = 545;
},
{
anchors = (
{
name = bottom;
position = "{444, 0}";
},
{
name = top;
position = "{590, 688}";
}
);
layerId = "20A7088A-67D7-4614-84CF-19C576DDC019";
paths = (
{
closed = 1;
nodes = (
"100 0 LINE",
"195 162 LINE",
"489 162 LINE",
"516 0 LINE",
"879 0 LINE",
"902 104 LINE",
"628 104 LINE",
"597 296 LINE",
"892 296 LINE",
"914 398 LINE",
"582 398 LINE",
"552 584 LINE",
"1004 584 LINE",
"1026 688 LINE",
"368 688 LINE",
"-31 0 LINE"
);
},
{
closed = 1;
nodes = (
"425 568 LINE",
"431 568 LINE",
"478 264 LINE",
"248 264 LINE"
);
}
);
width = 996;
},
{
anchors = (
{
name = bottom;
position = "{270, 0}";
},
{
name = top;
position = "{416, 688}";
}
);
layerId = "C784E404-3F19-435D-96BB-DB276E1DA8D0";
paths = (
{
closed = 1;
nodes = (
"78 0 LINE",
"146 161 LINE",
"309 161 LINE",
"308 0 LINE",
"562 0 LINE",
"583 99 LINE",
"420 99 LINE",
"418 298 LINE",
"599 298 LINE",
"620 397 LINE",
"419 397 LINE",
"417 589 LINE",
"687 589 LINE",
"709 688 LINE",
"257 688 LINE",
"-37 0 LINE"
);
},
{
closed = 1;
nodes = (
"311 571 LINE",
"318 571 LINE",
"313 257 LINE",
"182 257 LINE"
);
}
);
width = 647;
}
);
leftKerningGroup = A;
rightKerningGroup = E;
unicode = 00C6;
},
{
glyphname = B;
layers = (
{
background = {
paths = (
{
closed = 1;
nodes = (
"61 0 LINE",
"359 0 LINE SMOOTH",
"524 0 OFFCURVE",
"569 95 OFFCURVE",
"587 180 CURVE SMOOTH",
"601 249 OFFCURVE",
"605 332 OFFCURVE",
"498 350 CURVE",
"499 354 LINE",
"587 370 OFFCURVE",
"632 432 OFFCURVE",
"650 516 CURVE SMOOTH",
"671 615 OFFCURVE",
"651 688 OFFCURVE",
"515 688 CURVE SMOOTH",
"208 688 LINE"
);
},
{
closed = 1;
nodes = (
"175 366 LINE",
"236 654 LINE",
"499 654 LINE SMOOTH",
"611 654 OFFCURVE",
"633 606 OFFCURVE",
"613 510 CURVE SMOOTH",
"593 419 OFFCURVE",
"530 366 OFFCURVE",
"438 366 CURVE"
);
},
{
closed = 1;
nodes = (
"105 34 LINE",
"168 332 LINE",
"434 332 LINE SMOOTH",
"539 332 OFFCURVE",
"573 284 OFFCURVE",
"551 183 CURVE SMOOTH",
"530 84 OFFCURVE",
"484 34 OFFCURVE",
"371 34 CURVE"
);
}
);
};
layerId = "CD898CA3-FB76-4965-A23E-9AA06D1CE2B1";
paths = (
{
closed = 1;
nodes = (
"369 0 LINE SMOOTH",
"504 0 OFFCURVE",
"548 62 OFFCURVE",
"574 128 CURVE SMOOTH",
"590 168 OFFCURVE",
"594 224 OFFCURVE",
"594 241 CURVE SMOOTH",
"594 291 OFFCURVE",
"574 337 OFFCURVE",
"498 350 CURVE",
"499 354 LINE",
"576 364 OFFCURVE",
"623 418 OFFCURVE",
"644 489 CURVE SMOOTH",
"652 514 OFFCURVE",
"656 541 OFFCURVE",
"656 569 CURVE SMOOTH",
"656 640 OFFCURVE",
"616 688 OFFCURVE",
"506 688 CURVE SMOOTH",
"208 688 LINE",
"61 0 LINE"
);
},
{
closed = 1;
nodes = (
"168 332 LINE",
"434 332 LINE SMOOTH",
"519 332 OFFCURVE",
"557 301 OFFCURVE",
"557 235 CURVE SMOOTH",
"557 220 OFFCURVE",
"555 202 OFFCURVE",
"551 183 CURVE SMOOTH",
"530 84 OFFCURVE",
"484 34 OFFCURVE",
"371 34 CURVE SMOOTH",
"105 34 LINE"
);
},
{
closed = 1;
nodes = (
"236 654 LINE",
"499 654 LINE SMOOTH",
"587 654 OFFCURVE",
"619 624 OFFCURVE",
"619 565 CURVE SMOOTH",
"619 548 OFFCURVE",
"618 533 OFFCURVE",
"615 518 CURVE SMOOTH",
"598 423 OFFCURVE",
"530 366 OFFCURVE",
"438 366 CURVE",
"175 366 LINE"
);
}
);
width = 687;
},
{
background = {
paths = (
{
closed = 1;
nodes = (
"-5 0 LINE",
"360 0 LINE SMOOTH",
"504 0 OFFCURVE",
"579 61 OFFCURVE",
"605 184 CURVE SMOOTH",
"630 300 OFFCURVE",
"590 330 OFFCURVE",
"516 349 CURVE",
"516 353 LINE",
"602 372 OFFCURVE",
"652 414 OFFCURVE",
"674 515 CURVE SMOOTH",
"700 636 OFFCURVE",
"635 688 OFFCURVE",
"509 688 CURVE SMOOTH",
"141 688 LINE"
);
},
{
closed = 1;
nodes = (
"313 416 LINE",
"336 527 LINE",
"384 527 LINE SMOOTH",
"438 527 OFFCURVE",
"443 522 OFFCURVE",
"432 471 CURVE SMOOTH",
"422 422 OFFCURVE",
"415 416 OFFCURVE",
"361 416 CURVE"
);
},
{
closed = 1;
nodes = (
"259 161 LINE",
"284 279 LINE",
"332 279 LINE SMOOTH",
"386 279 OFFCURVE",
"390 272 OFFCURVE",
"379 219 CURVE SMOOTH",
"368 166 OFFCURVE",
"361 161 OFFCURVE",
"307 161 CURVE"
);
}
);
};
layerId = "B4DE345C-CFDB-4A54-B125-3358BD91D59F";
paths = (
{
closed = 1;
nodes = (
"360 0 LINE SMOOTH",
"524 0 OFFCURVE",
"579 59 OFFCURVE",
"605 176 CURVE SMOOTH",
"610 199 OFFCURVE",
"612 219 OFFCURVE",
"612 236 CURVE SMOOTH",
"612 310 OFFCURVE",
"575 332 OFFCURVE",
"516 349 CURVE",
"516 353 LINE",
"602 372 OFFCURVE",
"652 411 OFFCURVE",
"674 507 CURVE SMOOTH",
"678 525 OFFCURVE",
"680 541 OFFCURVE",
"680 556 CURVE SMOOTH",
"680 642 OFFCURVE",
"612 688 OFFCURVE",
"499 688 CURVE SMOOTH",
"141 688 LINE",
"-5 0 LINE"
);
},
{
closed = 1;
nodes = (
"284 279 LINE",
"332 279 LINE SMOOTH",
"371 279 OFFCURVE",
"384 275 OFFCURVE",
"384 253 CURVE SMOOTH",
"384 245 OFFCURVE",
"382 234 OFFCURVE",
"379 219 CURVE SMOOTH",
"368 166 OFFCURVE",
"361 161 OFFCURVE",
"307 161 CURVE",
"259 161 LINE"
);
},
{
closed = 1;
nodes = (
"336 527 LINE",
"384 527 LINE SMOOTH",
"423 527 OFFCURVE",
"437 524 OFFCURVE",
"437 503 CURVE SMOOTH",
"437 495 OFFCURVE",
"435 485 OFFCURVE",
"432 471 CURVE SMOOTH",
"422 422 OFFCURVE",
"415 416 OFFCURVE",
"361 416 CURVE",
"313 416 LINE"
);
}
);
width = 645;
},
{
background = {
paths = (
{
closed = 1;
nodes = (
"-39 0 LINE",
"164 0 LINE SMOOTH",
"270 0 OFFCURVE",
"331 60 OFFCURVE",
"358 185 CURVE SMOOTH",
"383 302 OFFCURVE",
"357 334 OFFCURVE",
"310 349 CURVE",
"310 353 LINE",
"365 369 OFFCURVE",
"400 414 OFFCURVE",
"422 515 CURVE SMOOTH",
"448 637 OFFCURVE",
"403 688 OFFCURVE",
"309 688 CURVE SMOOTH",
"107 688 LINE"
);
},
{
closed = 1;
nodes = (
"200 415 LINE",
"228 549 LINE",
"246 549 LINE SMOOTH",
"279 549 OFFCURVE",
"281 547 OFFCURVE",
"267 482 CURVE SMOOTH",
"253 419 OFFCURVE",
"250 415 OFFCURVE",
"218 415 CURVE"
);
},
{
closed = 1;
nodes = (
"141 139 LINE",
"171 280 LINE",
"189 280 LINE SMOOTH",
"219 280 OFFCURVE",
"223 278 OFFCURVE",
"209 210 CURVE SMOOTH",
"194 141 OFFCURVE",
"193 139 OFFCURVE",
"159 139 CURVE"
);
}
);
};
layerId = "47937877-2CF8-49A0-A6AF-2B1A27CB5FF4";
paths = (
{
closed = 1;
nodes = (
"198 0 LINE SMOOTH",
"299 0 OFFCURVE",
"356 57 OFFCURVE",
"382 175 CURVE SMOOTH",
"389 206 OFFCURVE",
"392 231 OFFCURVE",
"392 251 CURVE SMOOTH",
"392 314 OFFCURVE",
"373 337 OFFCURVE",
"334 349 CURVE",
"334 353 LINE",
"392 368 OFFCURVE",
"425 410 OFFCURVE",
"446 505 CURVE SMOOTH",
"451 528 OFFCURVE",
"453 548 OFFCURVE",
"453 566 CURVE SMOOTH",
"453 651 OFFCURVE",
"401 688 OFFCURVE",
"313 688 CURVE SMOOTH",
"131 688 LINE",
"-15 0 LINE"
);
},
{
closed = 1;
nodes = (
"195 280 LINE",
"213 280 LINE SMOOTH",
"232 280 OFFCURVE",
"241 279 OFFCURVE",
"241 261 CURVE SMOOTH",
"241 250 OFFCURVE",
"238 234 OFFCURVE",
"233 210 CURVE SMOOTH",
"218 141 OFFCURVE",
"217 139 OFFCURVE",
"183 139 CURVE SMOOTH",
"165 139 LINE"
);
},
{
closed = 1;
nodes = (
"252 549 LINE",
"270 549 LINE SMOOTH",
"291 549 OFFCURVE",
"299 548 OFFCURVE",
"299 531 CURVE SMOOTH",
"299 521 OFFCURVE",
"296 506 OFFCURVE",
"291 482 CURVE SMOOTH",
"277 419 OFFCURVE",
"274 415 OFFCURVE",
"242 415 CURVE SMOOTH",
"224 415 LINE"
);
}
);
width = 408;
},
{
background = {
paths = (
{
closed = 1;
nodes = (
"12 0 LINE",
"150 0 LINE SMOOTH",
"285 0 OFFCURVE",
"324 91 OFFCURVE",
"343 180 CURVE SMOOTH",
"359 256 OFFCURVE",
"363 332 OFFCURVE",
"278 350 CURVE",
"279 354 LINE",
"351 370 OFFCURVE",
"390 426 OFFCURVE",
"409 516 CURVE SMOOTH",
"431 618 OFFCURVE",
"416 688 OFFCURVE",
"303 688 CURVE SMOOTH",
"158 688 LINE"
);
},
{
closed = 1;
nodes = (
"125 366 LINE",
"186 654 LINE",
"290 654 LINE SMOOTH",
"378 654 OFFCURVE",
"393 610 OFFCURVE",
"372 510 CURVE SMOOTH",
"351 414 OFFCURVE",
"298 366 OFFCURVE",
"229 366 CURVE"
);
},
{
closed = 1;
nodes = (
"55 34 LINE",
"118 332 LINE",
"224 332 LINE SMOOTH",
"305 332 OFFCURVE",
"330 288 OFFCURVE",
"307 183 CURVE SMOOTH",
"286 81 OFFCURVE",
"249 34 OFFCURVE",
"161 34 CURVE"
);
}
);
};
layerId = "FA01890A-5211-455F-9108-1209F66A586C";
paths = (
{
closed = 1;
nodes = (
"165 0 LINE SMOOTH",
"281 0 OFFCURVE",
"321 68 OFFCURVE",
"343 157 CURVE SMOOTH",
"351 189 OFFCURVE",
"357 223 OFFCURVE",
"357 252 CURVE SMOOTH",
"357 299 OFFCURVE",
"340 338 OFFCURVE",
"283 350 CURVE",
"284 354 LINE",
"350 365 OFFCURVE",
"385 408 OFFCURVE",
"408 487 CURVE SMOOTH",
"416 516 OFFCURVE",
"421 549 OFFCURVE",
"421 585 CURVE SMOOTH",
"421 648 OFFCURVE",
"390 688 OFFCURVE",
"298 688 CURVE SMOOTH",
"163 688 LINE",
"17 0 LINE"
);
},
{
closed = 1;
nodes = (
"123 332 LINE",
"229 332 LINE SMOOTH",
"291 332 OFFCURVE",
"320 306 OFFCURVE",
"320 247 CURVE SMOOTH",
"320 229 OFFCURVE",
"317 208 OFFCURVE",
"312 183 CURVE SMOOTH",
"291 81 OFFCURVE",
"254 34 OFFCURVE",
"166 34 CURVE SMOOTH",
"60 34 LINE"
);
},
{
closed = 1;
nodes = (
"191 654 LINE",
"295 654 LINE SMOOTH",
"360 654 OFFCURVE",
"385 630 OFFCURVE",
"385 576 CURVE SMOOTH",
"385 543 OFFCURVE",
"378 514 OFFCURVE",
"371 489 CURVE SMOOTH",
"346 401 OFFCURVE",
"292 366 OFFCURVE",
"230 366 CURVE SMOOTH",
"130 366 LINE"
);
}
);
width = 403;
},
{
layerId = "20A7088A-67D7-4614-84CF-19C576DDC019";
paths = (
{
closed = 1;
nodes = (
"398 0 LINE SMOOTH",
"542 0 OFFCURVE",
"600 67 OFFCURVE",
"623 159 CURVE SMOOTH",
"628 182 OFFCURVE",
"631 207 OFFCURVE",
"631 232 CURVE SMOOTH",
"631 296 OFFCURVE",
"602 334 OFFCURVE",
"530 349 CURVE",
"531 353 LINE",
"615 367 OFFCURVE",
"668 413 OFFCURVE",
"688 494 CURVE SMOOTH",
"694 514 OFFCURVE",
"697 536 OFFCURVE",
"697 559 CURVE SMOOTH",
"697 640 OFFCURVE",
"641 688 OFFCURVE",
"518 688 CURVE SMOOTH",
"187 688 LINE",
"40 0 LINE"
);
},
{
closed = 1;
nodes = (
"233 301 LINE",
"406 301 LINE SMOOTH",
"476 301 OFFCURVE",
"504 283 OFFCURVE",
"504 238 CURVE SMOOTH",
"504 227 OFFCURVE",
"502 215 OFFCURVE",
"499 201 CURVE SMOOTH",
"483 127 OFFCURVE",
"454 102 OFFCURVE",
"364 102 CURVE SMOOTH",
"190 102 LINE"
);
},
{
closed = 1;
nodes = (
"293 586 LINE",
"464 586 LINE SMOOTH",
"534 586 OFFCURVE",
"559 571 OFFCURVE",
"559 530 CURVE SMOOTH",
"559 515 OFFCURVE",
"558 502 OFFCURVE",
"555 489 CURVE SMOOTH",
"542 423 OFFCURVE",
"500 395 OFFCURVE",
"423 395 CURVE SMOOTH",
"253 395 LINE"
);
}
);
width = 696;
},
{
layerId = "C784E404-3F19-435D-96BB-DB276E1DA8D0";
paths = (
{
closed = 1;
nodes = (
"229 0 LINE SMOOTH",
"349 0 OFFCURVE",
"399 68 OFFCURVE",
"422 171 CURVE SMOOTH",
"428 199 OFFCURVE",
"431 223 OFFCURVE",
"431 245 CURVE SMOOTH",
"431 304 OFFCURVE",
"410 336 OFFCURVE",
"359 349 CURVE",
"360 353 LINE",
"424 366 OFFCURVE",
"464 412 OFFCURVE",
"485 495 CURVE SMOOTH",
"491 519 OFFCURVE",
"494 543 OFFCURVE",
"494 568 CURVE SMOOTH",
"494 646 OFFCURVE",
"449 688 OFFCURVE",
"353 688 CURVE SMOOTH",
"151 688 LINE",
"5 0 LINE"
);
},
{
closed = 1;
nodes = (
"181 301 LINE",
"258 301 LINE SMOOTH",
"301 301 OFFCURVE",
"320 289 OFFCURVE",
"320 251 CURVE SMOOTH",
"320 238 OFFCURVE",
"318 221 OFFCURVE",
"313 200 CURVE SMOOTH",
"296 119 OFFCURVE",
"277 98 OFFCURVE",
"215 98 CURVE SMOOTH",
"138 98 LINE"
);
},
{
closed = 1;
nodes = (
"242 590 LINE",
"318 590 LINE SMOOTH",
"363 590 OFFCURVE",
"380 578 OFFCURVE",
"380 545 CURVE SMOOTH",
"380 524 OFFCURVE",
"376 504 OFFCURVE",
"371 483 CURVE SMOOTH",
"354 416 OFFCURVE",
"325 395 OFFCURVE",
"276 395 CURVE SMOOTH",
"201 395 LINE"
);
}
);
width = 468;
}
);
leftKerningGroup = H;
rightKerningGroup = B;
unicode = 0042;
},
{
glyphname = C;
layers = (
{
anchors = (
{
name = bottom;
position = "{255, 0}";
},
{
name = top;
position = "{401, 688}";
}
);
background = {
paths = (
{
closed = 1;
nodes = (
"462 36 LINE",
"421 30 OFFCURVE",
"360 26 OFFCURVE",
"314 26 CURVE SMOOTH",
"96 26 OFFCURVE",
"78 51 OFFCURVE",
"141 344 CURVE SMOOTH",
"203 637 OFFCURVE",
"231 662 OFFCURVE",
"449 662 CURVE SMOOTH",
"493 662 OFFCURVE",
"550 658 OFFCURVE",
"589 652 CURVE",
"596 684 LINE",
"559 691 OFFCURVE",
"497 696 OFFCURVE",
"446 696 CURVE SMOOTH",
"218 696 OFFCURVE",
"171 658 OFFCURVE",
"105 344 CURVE SMOOTH",
"37 26 OFFCURVE",
"69 -8 OFFCURVE",
"297 -8 CURVE SMOOTH",
"347 -8 OFFCURVE",
"413 -4 OFFCURVE",
"455 2 CURVE"
);
}
);
};
layerId = "CD898CA3-FB76-4965-A23E-9AA06D1CE2B1";
paths = (
{
closed = 1;
nodes = (
"355 -8 OFFCURVE",
"413 -4 OFFCURVE",
"455 2 CURVE",
"462 36 LINE",
"421 30 OFFCURVE",
"360 26 OFFCURVE",
"314 26 CURVE SMOOTH",
"165 26 OFFCURVE",
"109 38 OFFCURVE",
"109 139 CURVE SMOOTH",
"109 186 OFFCURVE",
"121 251 OFFCURVE",
"141 344 CURVE SMOOTH",
"203 637 OFFCURVE",
"231 662 OFFCURVE",
"449 662 CURVE SMOOTH",
"493 662 OFFCURVE",
"550 658 OFFCURVE",
"589 652 CURVE",
"596 684 LINE",
"557 691 OFFCURVE",
"490 696 OFFCURVE",
"436 696 CURVE SMOOTH",
"215 696 OFFCURVE",
"169 658 OFFCURVE",
"105 344 CURVE SMOOTH",
"86 253 OFFCURVE",
"75 186 OFFCURVE",
"75 136 CURVE SMOOTH",
"75 9 OFFCURVE",
"142 -8 OFFCURVE",
"305 -8 CURVE SMOOTH"
);
}
);
width = 578;
},
{
anchors = (
{
name = bottom;
position = "{257, 0}";
},
{
name = top;
position = "{403, 688}";
}
);
background = {
paths = (
{
closed = 1;
nodes = (
"509 167 LINE",
"469 162 OFFCURVE",
"412 159 OFFCURVE",
"372 159 CURVE SMOOTH",
"252 159 OFFCURVE",
"255 174 OFFCURVE",
"292 344 CURVE SMOOTH",
"327 513 OFFCURVE",
"331 529 OFFCURVE",
"451 529 CURVE SMOOTH",
"470 529 OFFCURVE",
"500 527 OFFCURVE",
"580 521 CURVE",
"613 677 LINE",
"570 688 OFFCURVE",
"494 696 OFFCURVE",
"431 696 CURVE SMOOTH",
"163 696 OFFCURVE",
"114 614 OFFCURVE",
"57 344 CURVE SMOOTH",
"0 74 OFFCURVE",
"15 -8 OFFCURVE",
"282 -8 CURVE SMOOTH",
"347 -8 OFFCURVE",
"428 -1 OFFCURVE",
"475 8 CURVE"
);
}
);
};
layerId = "B4DE345C-CFDB-4A54-B125-3358BD91D59F";
paths = (
{
closed = 1;
nodes = (
"347 -8 OFFCURVE",
"428 -1 OFFCURVE",
"475 8 CURVE",
"509 167 LINE",
"469 162 OFFCURVE",
"412 159 OFFCURVE",
"372 159 CURVE SMOOTH",
"296 159 OFFCURVE",
"269 165 OFFCURVE",
"269 212 CURVE SMOOTH",
"269 240 OFFCURVE",
"279 281 OFFCURVE",
"292 344 CURVE SMOOTH",
"327 513 OFFCURVE",
"322 529 OFFCURVE",
"451 529 CURVE SMOOTH",
"470 529 OFFCURVE",
"500 527 OFFCURVE",
"580 521 CURVE",
"613 677 LINE",
"569 688 OFFCURVE",
"491 696 OFFCURVE",
"427 696 CURVE SMOOTH",
"162 696 OFFCURVE",
"128 643 OFFCURVE",
"57 344 CURVE SMOOTH",
"38 265 OFFCURVE",
"30 203 OFFCURVE",
"30 154 CURVE SMOOTH",
"30 33 OFFCURVE",
"111 -8 OFFCURVE",
"282 -8 CURVE SMOOTH"
);
}
);
width = 550;
},
{
anchors = (
{
name = bottom;
position = "{132, 0}";
},
{
name = top;
position = "{278, 688}";
}
);
background = {
paths = (
{
closed = 1;
nodes = (
"257 136 LINE",
"239 133 OFFCURVE",
"211 131 OFFCURVE",
"188 131 CURVE SMOOTH",
"133 131 OFFCURVE",
"135 145 OFFCURVE",
"178 344 CURVE SMOOTH",
"220 543 OFFCURVE",
"224 557 OFFCURVE",
"279 557 CURVE SMOOTH",
"296 557 OFFCURVE",
"322 555 OFFCURVE",
"344 552 CURVE",
"371 680 LINE",
"357 689 OFFCURVE",
"319 696 OFFCURVE",
"280 696 CURVE SMOOTH",
"121 696 OFFCURVE",
"79 606 OFFCURVE",
"24 344 CURVE SMOOTH",
"-31 84 OFFCURVE",
"-32 -8 OFFCURVE",
"131 -8 CURVE SMOOTH",
"163 -8 OFFCURVE",
"205 0 OFFCURVE",
"231 11 CURVE"
);
}
);
};
layerId = "47937877-2CF8-49A0-A6AF-2B1A27CB5FF4";
paths = (
{
closed = 1;
nodes = (
"189 -8 OFFCURVE",
"227 0 OFFCURVE",
"250 11 CURVE",
"276 136 LINE",
"258 133 OFFCURVE",
"230 131 OFFCURVE",
"207 131 CURVE SMOOTH",
"178 131 OFFCURVE",
"165 135 OFFCURVE",
"165 166 CURVE SMOOTH",
"165 196 OFFCURVE",
"177 248 OFFCURVE",
"197 344 CURVE SMOOTH",
"238 543 OFFCURVE",
"243 557 OFFCURVE",
"298 557 CURVE SMOOTH",
"315 557 OFFCURVE",
"341 555 OFFCURVE",
"363 552 CURVE",
"390 680 LINE",
"374 689 OFFCURVE",
"332 696 OFFCURVE",
"289 696 CURVE SMOOTH",
"127 696 OFFCURVE",
"99 606 OFFCURVE",
"43 344 CURVE SMOOTH",
"23 251 OFFCURVE",
"12 180 OFFCURVE",
"12 128 CURVE SMOOTH",
"12 30 OFFCURVE",
"50 -8 OFFCURVE",
"160 -8 CURVE SMOOTH"
);
}
);
width = 321;
},
{
anchors = (
{
name = bottom;
position = "{140, 0}";
},
{
name = top;
position = "{286, 688}";
}
);
background = {
paths = (
{
closed = 1;
nodes = (
"247 36 LINE",
"226 30 OFFCURVE",
"192 26 OFFCURVE",
"168 26 CURVE SMOOTH",
"50 26 OFFCURVE",
"45 61 OFFCURVE",
"106 344 CURVE SMOOTH",
"166 627 OFFCURVE",
"185 662 OFFCURVE",
"303 662 CURVE SMOOTH",
"326 662 OFFCURVE",
"356 658 OFFCURVE",
"376 652 CURVE",
"383 684 LINE",
"365 691 OFFCURVE",
"331 696 OFFCURVE",
"304 696 CURVE SMOOTH",
"167 696 OFFCURVE",
"134 648 OFFCURVE",
"70 344 CURVE SMOOTH",
"5 36 OFFCURVE",
"19 -8 OFFCURVE",
"155 -8 CURVE SMOOTH",
"182 -8 OFFCURVE",
"217 -4 OFFCURVE",
"240 2 CURVE"
);
}
);
};
layerId = "FA01890A-5211-455F-9108-1209F66A586C";
paths = (
{
closed = 1;
nodes = (
"188 -8 OFFCURVE",
"219 -4 OFFCURVE",
"239 2 CURVE",
"246 36 LINE",
"225 30 OFFCURVE",
"191 26 OFFCURVE",
"167 26 CURVE SMOOTH",
"97 26 OFFCURVE",
"66 38 OFFCURVE",
"66 108 CURVE SMOOTH",
"66 156 OFFCURVE",
"81 229 OFFCURVE",
"105 344 CURVE SMOOTH",
"165 627 OFFCURVE",
"184 662 OFFCURVE",
"302 662 CURVE SMOOTH",
"325 662 OFFCURVE",
"355 657 OFFCURVE",
"375 652 CURVE",
"382 684 LINE",
"362 691 OFFCURVE",
"323 696 OFFCURVE",
"293 696 CURVE SMOOTH",
"165 696 OFFCURVE",
"131 648 OFFCURVE",
"69 344 CURVE SMOOTH",
"46 230 OFFCURVE",
"32 155 OFFCURVE",
"32 103 CURVE SMOOTH",
"32 11 OFFCURVE",
"72 -8 OFFCURVE",
"164 -8 CURVE SMOOTH"
);
}
);
width = 318;
},
{
anchors = (
{
name = bottom;
position = "{272, 0}";
},
{
name = top;
position = "{418, 688}";
}
);
layerId = "20A7088A-67D7-4614-84CF-19C576DDC019";
paths = (
{
closed = 1;
nodes = (
"365 -8 OFFCURVE",
"437 -3 OFFCURVE",
"481 5 CURVE",
"503 106 LINE",
"461 100 OFFCURVE",
"399 96 OFFCURVE",
"355 96 CURVE SMOOTH",
"229 96 OFFCURVE",
"185 105 OFFCURVE",
"185 184 CURVE SMOOTH",
"185 221 OFFCURVE",
"195 272 OFFCURVE",
"210 344 CURVE SMOOTH",
"258 572 OFFCURVE",
"273 592 OFFCURVE",
"460 592 CURVE SMOOTH",
"492 592 OFFCURVE",
"542 589 OFFCURVE",
"600 582 CURVE",
"621 680 LINE",
"577 689 OFFCURVE",
"499 696 OFFCURVE",
"437 696 CURVE SMOOTH",
"189 696 OFFCURVE",
"148 641 OFFCURVE",
"80 344 CURVE SMOOTH",
"62 266 OFFCURVE",
"54 207 OFFCURVE",
"54 161 CURVE SMOOTH",
"54 26 OFFCURVE",
"127 -8 OFFCURVE",
"310 -8 CURVE SMOOTH"
);
}
);
width = 591;
},
{
anchors = (
{
name = bottom;
position = "{165, 0}";
},
{
name = top;
position = "{311, 688}";
}
);
layerId = "C784E404-3F19-435D-96BB-DB276E1DA8D0";
paths = (
{
closed = 1;
nodes = (
"225 -8 OFFCURVE",
"269 -2 OFFCURVE",
"295 7 CURVE",
"315 98 LINE",
"291 94 OFFCURVE",
"254 91 OFFCURVE",
"225 91 CURVE SMOOTH",
"164 91 OFFCURVE",
"138 99 OFFCURVE",
"138 152 CURVE SMOOTH",
"138 189 OFFCURVE",
"151 248 OFFCURVE",
"171 344 CURVE SMOOTH",
"220 575 OFFCURVE",
"231 597 OFFCURVE",
"333 597 CURVE SMOOTH",
"355 597 OFFCURVE",
"387 594 OFFCURVE",
"417 590 CURVE",
"436 681 LINE",
"413 690 OFFCURVE",
"365 696 OFFCURVE",
"321 696 CURVE SMOOTH",
"151 696 OFFCURVE",
"118 627 OFFCURVE",
"58 344 CURVE SMOOTH",
"38 248 OFFCURVE",
"26 178 OFFCURVE",
"26 128 CURVE SMOOTH",
"26 24 OFFCURVE",
"72 -8 OFFCURVE",
"192 -8 CURVE SMOOTH"
);
}
);
width = 378;
}
);
leftKerningGroup = O;
rightKerningGroup = C;
unicode = 0043;
},
{
glyphname = D;
layers = (
{
anchors = (
{
name = bottom;
position = "{293, 0}";
},
{
name = center;
position = "{153, 344}";
},
{
name = top;
position = "{439, 688}";
}
);
background = {
paths = (
{
closed = 1;
nodes = (
"61 0 LINE",
"266 0 LINE SMOOTH",
"532 0 OFFCURVE",
"557 38 OFFCURVE",
"623 344 CURVE SMOOTH",
"688 650 OFFCURVE",
"679 688 OFFCURVE",
"413 688 CURVE SMOOTH",
"208 688 LINE"
);
},
{
closed = 1;
nodes = (
"105 34 LINE",
"236 654 LINE",
"385 654 LINE SMOOTH",
"634 654 OFFCURVE",
"651 648 OFFCURVE",
"587 344 CURVE SMOOTH",
"522 40 OFFCURVE",
"507 34 OFFCURVE",
"254 34 CURVE SMOOTH"
);
}
);
};
layerId = "CD898CA3-FB76-4965-A23E-9AA06D1CE2B1";
paths = (
{
closed = 1;
nodes = (
"276 0 LINE SMOOTH",
"535 0 OFFCURVE",
"559 38 OFFCURVE",
"623 344 CURVE SMOOTH",
"642 436 OFFCURVE",
"655 504 OFFCURVE",
"655 554 CURVE SMOOTH",
"655 669 OFFCURVE",
"590 688 OFFCURVE",
"404 688 CURVE SMOOTH",
"208 688 LINE",
"61 0 LINE"
);
},
{
closed = 1;
nodes = (
"236 654 LINE",
"385 654 LINE SMOOTH",
"557 654 OFFCURVE",
"619 651 OFFCURVE",
"619 548 CURVE SMOOTH",
"619 503 OFFCURVE",
"607 437 OFFCURVE",
"587 344 CURVE SMOOTH",
"522 40 OFFCURVE",
"507 34 OFFCURVE",
"254 34 CURVE SMOOTH",
"105 34 LINE"
);
}
);
width = 693;
},
{
anchors = (
{
name = bottom;
position = "{279, 0}";
},
{
name = center;
position = "{185, 344}";
},
{
name = top;
position = "{425, 688}";
}
);
background = {
paths = (
{
closed = 1;
nodes = (
"-5 0 LINE",
"249 0 LINE SMOOTH",
"568 0 OFFCURVE",
"587 72 OFFCURVE",
"645 344 CURVE SMOOTH",
"702 616 OFFCURVE",
"715 688 OFFCURVE",
"396 688 CURVE SMOOTH",
"141 688 LINE"
);
},
{
closed = 1;
nodes = (
"264 167 LINE",
"339 521 LINE",
"363 521 LINE SMOOTH",
"447 521 OFFCURVE",
"446 516 OFFCURVE",
"409 343 CURVE SMOOTH",
"373 174 OFFCURVE",
"372 167 OFFCURVE",
"288 167 CURVE SMOOTH"
);
}
);
};
layerId = "B4DE345C-CFDB-4A54-B125-3358BD91D59F";
paths = (
{
closed = 1;
nodes = (
"279 0 LINE SMOOTH",
"571 0 OFFCURVE",
"585 59 OFFCURVE",
"643 334 CURVE SMOOTH",
"659 420 OFFCURVE",
"671 486 OFFCURVE",
"671 537 CURVE SMOOTH",
"671 652 OFFCURVE",
"608 688 OFFCURVE",
"396 688 CURVE SMOOTH",
"141 688 LINE",
"-5 0 LINE"
);
},
{
closed = 1;
nodes = (
"339 521 LINE",
"363 521 LINE SMOOTH",
"413 521 OFFCURVE",
"433 519 OFFCURVE",
"433 481 CURVE SMOOTH",
"433 455 OFFCURVE",
"424 413 OFFCURVE",
"409 343 CURVE SMOOTH",
"373 174 OFFCURVE",
"372 167 OFFCURVE",
"288 167 CURVE SMOOTH",
"264 167 LINE"
);
}
);
width = 666;
},
{
anchors = (
{
name = bottom;
position = "{154, 0}";
},
{
name = center;
position = "{136, 344}";
},
{
name = top;
position = "{300, 688}";
}
);
background = {
paths = (
{
closed = 1;
nodes = (
"-39 0 LINE",
"133 0 LINE SMOOTH",
"317 0 OFFCURVE",
"336 88 OFFCURVE",
"391 344 CURVE SMOOTH",
"445 601 OFFCURVE",
"464 688 OFFCURVE",
"280 688 CURVE SMOOTH",
"107 688 LINE"
);
},
{
closed = 1;
nodes = (
"142 139 LINE",
"229 549 LINE",
"250 549 LINE SMOOTH",
"281 549 OFFCURVE",
"282 548 OFFCURVE",
"239 344 CURVE SMOOTH",
"195 140 OFFCURVE",
"194 139 OFFCURVE",
"163 139 CURVE SMOOTH"
);
}
);
};
layerId = "47937877-2CF8-49A0-A6AF-2B1A27CB5FF4";
paths = (
{
closed = 1;
nodes = (
"167 0 LINE SMOOTH",
"350 0 OFFCURVE",
"361 88 OFFCURVE",
"415 344 CURVE SMOOTH",
"436 442 OFFCURVE",
"449 513 OFFCURVE",
"449 564 CURVE SMOOTH",
"449 653 OFFCURVE",
"412 688 OFFCURVE",
"294 688 CURVE SMOOTH",
"131 688 LINE",
"-15 0 LINE"
);
},
{
closed = 1;
nodes = (
"253 549 LINE",
"274 549 LINE SMOOTH",
"288 549 OFFCURVE",
"296 549 OFFCURVE",
"296 528 CURVE SMOOTH",
"296 504 OFFCURVE",
"286 453 OFFCURVE",
"263 344 CURVE SMOOTH",
"219 140 OFFCURVE",
"218 139 OFFCURVE",
"187 139 CURVE SMOOTH",
"166 139 LINE"
);
}
);
width = 415;
},
{
anchors = (
{
name = bottom;
position = "{150, 0}";
},
{
name = center;
position = "{107, 344}";
},
{
name = top;
position = "{296, 688}";
}
);
background = {
paths = (
{
closed = 1;
nodes = (
"12 0 LINE",
"139 0 LINE SMOOTH",
"285 0 OFFCURVE",
"313 47 OFFCURVE",
"377 344 CURVE SMOOTH",
"440 641 OFFCURVE",
"432 688 OFFCURVE",
"286 688 CURVE SMOOTH",
"158 688 LINE"
);
},
{
closed = 1;
nodes = (
"55 34 LINE",
"186 654 LINE",
"278 654 LINE SMOOTH",
"387 654 OFFCURVE",
"403 639 OFFCURVE",
"341 344 CURVE SMOOTH",
"278 49 OFFCURVE",
"256 34 OFFCURVE",
"147 34 CURVE SMOOTH"
);
}
);
};
layerId = "FA01890A-5211-455F-9108-1209F66A586C";
paths = (
{
closed = 1;
nodes = (
"154 0 LINE SMOOTH",
"294 0 OFFCURVE",
"321 47 OFFCURVE",
"382 344 CURVE SMOOTH",
"406 456 OFFCURVE",
"418 532 OFFCURVE",
"418 584 CURVE SMOOTH",
"418 670 OFFCURVE",
"379 688 OFFCURVE",
"281 688 CURVE SMOOTH",
"163 688 LINE",
"17 0 LINE"
);
},
{
closed = 1;
nodes = (
"191 654 LINE",
"283 654 LINE SMOOTH",
"350 654 OFFCURVE",
"382 648 OFFCURVE",
"382 575 CURVE SMOOTH",
"382 529 OFFCURVE",
"370 457 OFFCURVE",
"346 344 CURVE SMOOTH",
"283 49 OFFCURVE",
"261 34 OFFCURVE",
"152 34 CURVE SMOOTH",
"60 34 LINE"
);
}
);
width = 407;
},
{
anchors = (
{
name = bottom;
position = "{300, 0}";
},
{
name = center;
position = "{180, 344}";
},
{
name = top;
position = "{446, 688}";
}
);
layerId = "20A7088A-67D7-4614-84CF-19C576DDC019";
paths = (
{
closed = 1;
nodes = (
"300 0 LINE SMOOTH",
"581 0 OFFCURVE",
"601 53 OFFCURVE",
"663 341 CURVE SMOOTH",
"680 424 OFFCURVE",
"691 485 OFFCURVE",
"691 532 CURVE SMOOTH",
"691 657 OFFCURVE",
"625 688 OFFCURVE",
"408 688 CURVE SMOOTH",
"187 688 LINE",
"40 0 LINE"
);
},
{
closed = 1;
nodes = (
"294 584 LINE",
"390 584 LINE SMOOTH",
"514 584 OFFCURVE",
"559.001 582.005 OFFCURVE",
"559 507 CURVE SMOOTH",
"559 471 OFFCURVE",
"549 419 OFFCURVE",
"533 344 CURVE SMOOTH",
"482 108 OFFCURVE",
"473 104 OFFCURVE",
"288 104 CURVE SMOOTH",
"192 104 LINE"
);
}
);
width = 708;
},
{
anchors = (
{
name = bottom;
position = "{184, 0}";
},
{
name = center;
position = "{135, 344}";
},
{
name = top;
position = "{330, 688}";
}
);
layerId = "C784E404-3F19-435D-96BB-DB276E1DA8D0";
paths = (
{
closed = 1;
nodes = (
"191 0 LINE SMOOTH",
"381 0 OFFCURVE",
"400 67 OFFCURVE",
"457 343 CURVE SMOOTH",
"478 441 OFFCURVE",
"491 511 OFFCURVE",
"491 562 CURVE SMOOTH",
"491 659 OFFCURVE",
"447 688 OFFCURVE",
"314 688 CURVE SMOOTH",
"151 688 LINE",
"5 0 LINE"
);
},
{
closed = 1;
nodes = (
"242 589 LINE",
"301 589 LINE SMOOTH",
"354 589 OFFCURVE",
"377 587 OFFCURVE",
"377 538 CURVE SMOOTH",
"377 503 OFFCURVE",
"366 445 OFFCURVE",
"345 344 CURVE SMOOTH",
"293 105 OFFCURVE",
"284 99 OFFCURVE",
"197 99 CURVE SMOOTH",
"138 99 LINE"
);
}
);
width = 475;
}
);
leftKerningGroup = H;
rightKerningGroup = O;
unicode = 0044;
},
{
glyphname = Eth;
layers = (
{
background = {
paths = (
{
closed = 1;
nodes = (
"267 0 LINE SMOOTH",
"533 0 OFFCURVE",
"558 38 OFFCURVE",
"623 344 CURVE SMOOTH",
"688 650 OFFCURVE",
"679 688 OFFCURVE",
"413 688 CURVE SMOOTH",
"208 688 LINE",
"140 367 LINE",
"70 367 LINE",
"62 331 LINE",
"132 331 LINE",
"62 0 LINE"
);
},
{
closed = 1;
nodes = (
"168 331 LINE",
"297 331 LINE",
"305 367 LINE",
"176 367 LINE",
"237 654 LINE",
"386 654 LINE SMOOTH",
"635 654 OFFCURVE",
"652 648 OFFCURVE",
"587 344 CURVE SMOOTH",
"522 40 OFFCURVE",
"507 34 OFFCURVE",
"254 34 CURVE",
"105 34 LINE"
);
}
);
};
components = (
{
name = D;
}
);
layerId = "CD898CA3-FB76-4965-A23E-9AA06D1CE2B1";
paths = (
{
closed = 1;
nodes = (
"297 331 LINE",
"305 367 LINE",
"70 367 LINE",
"62 331 LINE"
);
}
);
width = 693;
},
{
background = {
paths = (
{
closed = 1;
nodes = (
"250 0 LINE SMOOTH",
"569 0 OFFCURVE",
"587 72 OFFCURVE",
"645 344 CURVE SMOOTH",
"703 616 OFFCURVE",
"715 688 OFFCURVE",
"396 688 CURVE SMOOTH",
"141 688 LINE",
"84 417 LINE",
"24 417 LINE",
"-5 280 LINE",
"55 280 LINE",
"-5 0 LINE"
);
},
{
closed = 1;
nodes = (
"289 280 LINE",
"351 280 LINE",
"380 417 LINE",
"318 417 LINE",
"340 521 LINE",
"364 521 LINE SMOOTH",
"448 521 OFFCURVE",
"447 516 OFFCURVE",
"410 343 CURVE SMOOTH",
"374 174 OFFCURVE",
"372 167 OFFCURVE",
"288 167 CURVE",
"264 167 LINE"
);
}
);
};
components = (
{
name = D;
}
);
layerId = "B4DE345C-CFDB-4A54-B125-3358BD91D59F";
paths = (
{
closed = 1;
nodes = (
"351 280 LINE",
"380 417 LINE",
"24 417 LINE",
"-5 280 LINE"
);
}
);
width = 666;
},
{
background = {
paths = (
{
closed = 1;
nodes = (
"158 0 LINE SMOOTH",
"342 0 OFFCURVE",
"361 88 OFFCURVE",
"415 344 CURVE SMOOTH",
"469 601 OFFCURVE",
"488 688 OFFCURVE",
"304 688 CURVE SMOOTH",
"131 688 LINE",
"74 417 LINE",
"39 417 LINE",
"9 278 LINE",
"44 278 LINE",
"-15 0 LINE"
);
},
{
closed = 1;
nodes = (
"196 278 LINE",
"230 278 LINE",
"260 417 LINE",
"226 417 LINE",
"254 549 LINE",
"275 549 LINE SMOOTH",
"306 549 OFFCURVE",
"306 548 OFFCURVE",
"263 344 CURVE SMOOTH",
"220 140 OFFCURVE",
"219 139 OFFCURVE",
"188 139 CURVE",
"167 139 LINE"
);
}
);
};
components = (
{
name = D;
}
);
layerId = "47937877-2CF8-49A0-A6AF-2B1A27CB5FF4";
paths = (
{
closed = 1;
nodes = (
"229 278 LINE",
"259 417 LINE",
"39 417 LINE",
"9 278 LINE"
);
}
);
width = 415;
},
{
background = {
paths = (
{
closed = 1;
nodes = (
"145 0 LINE SMOOTH",
"291 0 OFFCURVE",
"319 47 OFFCURVE",
"382 344 CURVE SMOOTH",
"445 641 OFFCURVE",
"437 688 OFFCURVE",
"291 688 CURVE SMOOTH",
"163 688 LINE",
"95 367 LINE",
"41 367 LINE",
"33 331 LINE",
"87 331 LINE",
"17 0 LINE"
);
},
{
closed = 1;
nodes = (
"123 331 LINE",
"238 331 LINE",
"246 367 LINE",
"131 367 LINE",
"192 654 LINE",
"284 654 LINE SMOOTH",
"393 654 OFFCURVE",
"409 639 OFFCURVE",
"346 344 CURVE SMOOTH",
"283 49 OFFCURVE",
"261 34 OFFCURVE",
"152 34 CURVE",
"60 34 LINE"
);
}
);
};
components = (
{
name = D;
}
);
layerId = "FA01890A-5211-455F-9108-1209F66A586C";
paths = (
{
closed = 1;
nodes = (
"238 331 LINE",
"246 367 LINE",
"41 367 LINE",
"33 331 LINE"
);
}
);
width = 407;
},
{
background = {
paths = (
{
closed = 1;
nodes = (
"275 0 LINE SMOOTH",
"578 0 OFFCURVE",
"601 57 OFFCURVE",
"662 344 CURVE SMOOTH",
"723 631 OFFCURVE",
"724 688 OFFCURVE",
"421 688 CURVE SMOOTH",
"186 688 LINE",
"124 394 LINE",
"55 394 LINE",
"36 304 LINE",
"105 304 LINE",
"40 0 LINE"
);
},
{
closed = 1;
nodes = (
"235 304 LINE",
"336 304 LINE",
"355 394 LINE",
"254 394 LINE",
"294 584 LINE",
"390 584 LINE SMOOTH",
"573 584 OFFCURVE",
"582 580 OFFCURVE",
"532 344 CURVE SMOOTH",
"482 108 OFFCURVE",
"473 104 OFFCURVE",
"288 104 CURVE",
"192 104 LINE"
);
}
);
};
components = (
{
name = D;
}
);
layerId = "20A7088A-67D7-4614-84CF-19C576DDC019";
paths = (
{
closed = 1;
nodes = (
"336 304 LINE",
"355 394 LINE",
"55 394 LINE",
"36 304 LINE"
);
}
);
width = 708;
},
{
background = {
paths = (
{
closed = 1;
nodes = (
"178 0 LINE SMOOTH",
"376 0 OFFCURVE",
"398 68 OFFCURVE",
"457 344 CURVE SMOOTH",
"516 620 OFFCURVE",
"522 688 OFFCURVE",
"324 688 CURVE SMOOTH",
"151 688 LINE",
"89 396 LINE",
"41 396 LINE",
"21 300 LINE",
"69 300 LINE",
"5 0 LINE"
);
},
{
closed = 1;
nodes = (
"182 300 LINE",
"256 300 LINE",
"276 396 LINE",
"202 396 LINE",
"243 589 LINE",
"301 589 LINE SMOOTH",
"388 589 OFFCURVE",
"395 583 OFFCURVE",
"344 344 CURVE SMOOTH",
"293 105 OFFCURVE",
"284 99 OFFCURVE",
"197 99 CURVE",
"139 99 LINE"
);
}
);
};
components = (
{
name = D;
}
);
layerId = "C784E404-3F19-435D-96BB-DB276E1DA8D0";
paths = (
{
closed = 1;
nodes = (
"256 300 LINE",
"276 396 LINE",
"41 396 LINE",
"21 300 LINE"
);
}
);
width = 475;
}
);
leftKerningGroup = H;
rightKerningGroup = O;
unicode = 00D0;
},
{
glyphname = Dcaron;
layers = (
{
background = {
paths = (
{
closed = 1;
nodes = (
"320 0 LINE SMOOTH",
"586 0 OFFCURVE",
"603 38 OFFCURVE",
"603 344 CURVE SMOOTH",
"603 650 OFFCURVE",
"586 688 OFFCURVE",
"320 688 CURVE SMOOTH",
"115 688 LINE",
"115 0 LINE"
);
},
{
closed = 1;
nodes = (
"151 654 LINE",
"300 654 LINE SMOOTH",
"549 654 OFFCURVE",
"567 648 OFFCURVE",
"567 344 CURVE SMOOTH",
"567 40 OFFCURVE",
"553 34 OFFCURVE",
"300 34 CURVE SMOOTH",
"151 34 LINE"
);
},
{
closed = 1;
nodes = (
"370 750 LINE",
"477 883 LINE",
"477 888 LINE",
"450 888 LINE",
"347 780 LINE",
"244 888 LINE",
"217 888 LINE",
"217 883 LINE",
"324 750 LINE"
);
}
);
};
components = (
{
name = D;
},
{
name = caroncomb.case;
transform = "{1, 0, 0, 1, 256, 178}";
}
);
layerId = "CD898CA3-FB76-4965-A23E-9AA06D1CE2B1";
width = 693;
},
{
background = {
paths = (
{
closed = 1;
nodes = (
"306 0 LINE SMOOTH",
"625 0 OFFCURVE",
"628 72 OFFCURVE",
"628 344 CURVE SMOOTH",
"628 616 OFFCURVE",
"625 688 OFFCURVE",
"306 688 CURVE SMOOTH",
"51 688 LINE",
"51 0 LINE"
);
},
{
closed = 1;
nodes = (
"285 521 LINE",
"309 521 LINE SMOOTH",
"393 521 OFFCURVE",
"393 516 OFFCURVE",
"393 343 CURVE SMOOTH",
"393 174 OFFCURVE",
"393 167 OFFCURVE",
"309 167 CURVE SMOOTH",
"285 167 LINE"
);
},
{
closed = 1;
nodes = (
"429 740 LINE",
"519 880 LINE",
"519 888 LINE",
"385 888 LINE",
"337 816 LINE",
"285 888 LINE",
"151 888 LINE",
"151 880 LINE",
"240 740 LINE"
);
}
);
};
components = (
{
name = D;
},
{
name = caroncomb.case;
transform = "{1, 0, 0, 1, 185, 178}";
}
);
layerId = "B4DE345C-CFDB-4A54-B125-3358BD91D59F";
width = 666;
},
{
background = {
paths = (
{
closed = 1;
nodes = (
"207 0 LINE SMOOTH",
"391 0 OFFCURVE",
"391 88 OFFCURVE",
"391 344 CURVE SMOOTH",
"391 601 OFFCURVE",
"391 688 OFFCURVE",
"207 688 CURVE SMOOTH",
"34 688 LINE",
"34 0 LINE"
);
},
{
closed = 1;
nodes = (
"186 549 LINE",
"207 549 LINE SMOOTH",
"238 549 OFFCURVE",
"239 548 OFFCURVE",
"239 344 CURVE SMOOTH",
"239 140 OFFCURVE",
"238 139 OFFCURVE",
"207 139 CURVE SMOOTH",
"186 139 LINE"
);
},
{
closed = 1;
nodes = (
"278 765 LINE",
"346 879 LINE",
"346 888 LINE",
"247 888 LINE",
"207 832 LINE",
"169 888 LINE",
"70 888 LINE",
"70 879 LINE",
"136 765 LINE"
);
}
);
};
components = (
{
name = D;
},
{
name = caroncomb.case;
transform = "{1, 0, 0, 1, 106, 178}";
}
);
layerId = "47937877-2CF8-49A0-A6AF-2B1A27CB5FF4";
width = 415;
},
{
background = {
paths = (
{
closed = 1;
nodes = (
"193 0 LINE SMOOTH",
"339 0 OFFCURVE",
"357 47 OFFCURVE",
"357 344 CURVE SMOOTH",
"357 641 OFFCURVE",
"339 688 OFFCURVE",
"193 688 CURVE SMOOTH",
"65 688 LINE",
"65 0 LINE"
);
},
{
closed = 1;
nodes = (
"101 654 LINE",
"193 654 LINE SMOOTH",
"302 654 OFFCURVE",
"321 639 OFFCURVE",
"321 344 CURVE SMOOTH",
"321 49 OFFCURVE",
"302 34 OFFCURVE",
"193 34 CURVE SMOOTH",
"101 34 LINE"
);
},
{
closed = 1;
nodes = (
"227 750 LINE",
"294 883 LINE",
"294 888 LINE",
"267 888 LINE",
"204 780 LINE",
"141 888 LINE",
"114 888 LINE",
"114 883 LINE",
"181 750 LINE"
);
}
);
};
components = (
{
name = D;
},
{
name = caroncomb.case;
transform = "{1, 0, 0, 1, 151, 178}";
}
);
layerId = "FA01890A-5211-455F-9108-1209F66A586C";
width = 407;
},
{
background = {
paths = (
{
closed = 1;
nodes = (
"325 0 LINE SMOOTH",
"628 0 OFFCURVE",
"639 57 OFFCURVE",
"639 344 CURVE SMOOTH",
"639 631 OFFCURVE",
"628 688 OFFCURVE",
"325 688 CURVE SMOOTH",
"90 688 LINE",
"90 0 LINE"
);
},
{
closed = 1;
nodes = (
"220 584 LINE",
"316 584 LINE SMOOTH",
"499 584 OFFCURVE",
"509 580 OFFCURVE",
"509 344 CURVE SMOOTH",
"509 108 OFFCURVE",
"501 104 OFFCURVE",
"316 104 CURVE SMOOTH",
"220 104 LINE"
);
},
{
closed = 1;
nodes = (
"412 742 LINE",
"513 882 LINE",
"513 888 LINE",
"435 888 LINE",
"355 796 LINE",
"274 888 LINE",
"196 888 LINE",
"196 882 LINE",
"297 742 LINE"
);
}
);
};
components = (
{
name = D;
},
{
name = caroncomb.case;
transform = "{1, 0, 0, 1, 230, 178}";
}
);
layerId = "20A7088A-67D7-4614-84CF-19C576DDC019";
width = 708;
},
{
background = {
paths = (
{
closed = 1;
nodes = (
"228 0 LINE SMOOTH",
"426 0 OFFCURVE",
"434 68 OFFCURVE",
"434 344 CURVE SMOOTH",
"434 620 OFFCURVE",
"426 688 OFFCURVE",
"228 688 CURVE SMOOTH",
"55 688 LINE",
"55 0 LINE"
);
},
{
closed = 1;
nodes = (
"168 589 LINE",
"226 589 LINE SMOOTH",
"313 589 OFFCURVE",
"321 583 OFFCURVE",
"321 344 CURVE SMOOTH",
"321 105 OFFCURVE",
"313 99 OFFCURVE",
"226 99 CURVE SMOOTH",
"168 99 LINE"
);
},
{
closed = 1;
nodes = (
"291 755 LINE",
"366 881 LINE",
"366 888 LINE",
"293 888 LINE",
"238 808 LINE",
"183 888 LINE",
"110 888 LINE",
"110 881 LINE",
"184 755 LINE"
);
}
);
};
components = (
{
name = D;
},
{
name = caroncomb.case;
transform = "{1, 0, 0, 1, 135, 178}";
}
);
layerId = "C784E404-3F19-435D-96BB-DB276E1DA8D0";
width = 475;
}
);
leftKerningGroup = H;
rightKerningGroup = O;
unicode = 010E;
},
{
glyphname = E;
layers = (
{
anchors = (
{
name = bottom;
position = "{293, 0}";
},
{
name = ogonek;
position = "{487, 0}";
},
{
name = top;
position = "{421, 688}";
},
{
name = topleft;
position = "{112, 688}";
}
);
layerId = "CD898CA3-FB76-4965-A23E-9AA06D1CE2B1";
paths = (
{
closed = 1;
nodes = (
"487 0 LINE",
"495 34 LINE",
"105 34 LINE",
"168 331 LINE",
"511 331 LINE",
"518 365 LINE",
"175 365 LINE",
"236 654 LINE",
"626 654 LINE",
"634 688 LINE",
"208 688 LINE",
"61 0 LINE"
);
}
);
width = 598;
},
{
anchors = (
{
name = bottom;
position = "{247, 0}";
},
{
name = ogonek;
position = "{498, 0}";
},
{
name = top;
position = "{390, 688}";
},
{
name = topleft;
position = "{112, 688}";
}
);
layerId = "B4DE345C-CFDB-4A54-B125-3358BD91D59F";
paths = (
{
closed = 1;
nodes = (
"498 0 LINE",
"534 167 LINE",
"263 167 LINE",
"284 266 LINE",
"508 266 LINE",
"543 429 LINE",
"319 429 LINE",
"338 521 LINE",
"609 521 LINE",
"645 688 LINE",
"141 688 LINE",
"-5 0 LINE"
);
}
);
width = 593;
},
{
anchors = (
{
name = bottom;
position = "{129, 0}";
},
{
name = ogonek;
position = "{262, 0}";
},
{
name = top;
position = "{275, 688}";
},
{
name = topleft;
position = "{112, 688}";
}
);
layerId = "47937877-2CF8-49A0-A6AF-2B1A27CB5FF4";
paths = (
{
closed = 1;
nodes = (
"262 0 LINE",
"292 139 LINE",
"168 139 LINE",
"197 278 LINE",
"306 278 LINE",
"336 417 LINE",
"227 417 LINE",
"255 549 LINE",
"379 549 LINE",
"409 688 LINE",
"131 688 LINE",
"-15 0 LINE"
);
}
);
width = 338;
},
{
anchors = (
{
name = bottom;
position = "{144, 0}";
},
{
name = ogonek;
position = "{272, 0}";
},
{
name = top;
position = "{290, 688}";
},
{
name = topleft;
position = "{112, 688}";
}
);
layerId = "FA01890A-5211-455F-9108-1209F66A586C";
paths = (
{
closed = 1;
nodes = (
"272 0 LINE",
"280 34 LINE",
"61 34 LINE",
"124 331 LINE",
"315 331 LINE",
"322 365 LINE",
"131 365 LINE",
"192 654 LINE",
"411 654 LINE",
"419 688 LINE",
"163 688 LINE",
"17 0 LINE"
);
}
);
width = 351;
},
{
anchors = (
{
name = bottom;
position = "{275, 0}";
},
{
name = ogonek;
position = "{523, 0}";
},
{
name = top;
position = "{421, 688}";
},
{
name = topleft;
position = "{112, 688}";
}
);
layerId = "20A7088A-67D7-4614-84CF-19C576DDC019";
paths = (
{
closed = 1;
nodes = (
"523 0 LINE",
"545 104 LINE",
"191 104 LINE",
"233 296 LINE",
"536 296 LINE",
"558 398 LINE",
"254 398 LINE",
"294 584 LINE",
"648 584 LINE",
"670 688 LINE",
"187 688 LINE",
"40 0 LINE"
);
}
);
width = 624;
},
{
anchors = (
{
name = bottom;
position = "{166, 0}";
},
{
name = ogonek;
position = "{321, 0}";
},
{
name = top;
position = "{312, 688}";
},
{
name = topleft;
position = "{112, 688}";
}
);
layerId = "C784E404-3F19-435D-96BB-DB276E1DA8D0";
paths = (
{
closed = 1;
nodes = (
"321 0 LINE",
"342 99 LINE",
"139 99 LINE",
"182 298 LINE",
"358 298 LINE",
"379 397 LINE",
"203 397 LINE",
"243 589 LINE",
"447 589 LINE",
"468 688 LINE",
"151 688 LINE",
"5 0 LINE"
);
}
);
width = 404;
}
);
leftKerningGroup = H;
rightKerningGroup = E;
unicode = 0045;
},
{
glyphname = F;
layers = (
{
anchors = (
{
name = bottom;
position = "{81, 0}";
},
{
name = top;
position = "{373, 688}";
}
);
layerId = "CD898CA3-FB76-4965-A23E-9AA06D1CE2B1";
paths = (
{
closed = 1;
nodes = (
"97 0 LINE",
"165 317 LINE",
"498 317 LINE",
"505 351 LINE",
"172 351 LINE",
"236 654 LINE",
"606 654 LINE",
"614 688 LINE",
"208 688 LINE",
"61 0 LINE"
);
}
);
width = 561;
},
{
anchors = (
{
name = bottom;
position = "{115, 0}";
},
{
name = top;
position = "{368, 688}";
}
);
layerId = "B4DE345C-CFDB-4A54-B125-3358BD91D59F";
paths = (
{
closed = 1;
nodes = (
"227 0 LINE",
"277 233 LINE",
"491 233 LINE",
"526 400 LINE",
"312 400 LINE",
"338 521 LINE",
"589 521 LINE",
"625 688 LINE",
"141 688 LINE",
"-5 0 LINE"
);
}
);
width = 552;
},
{
anchors = (
{
name = bottom;
position = "{63, 0}";
},
{
name = top;
position = "{248, 688}";
}
);
layerId = "47937877-2CF8-49A0-A6AF-2B1A27CB5FF4";
paths = (
{
closed = 1;
nodes = (
"138 0 LINE",
"194 264 LINE",
"291 264 LINE",
"321 403 LINE",
"224 403 LINE",
"255 549 LINE",
"366 549 LINE",
"396 688 LINE",
"131 688 LINE",
"-15 0 LINE"
);
}
);
width = 312;
},
{
anchors = (
{
name = bottom;
position = "{37, 0}";
},
{
name = top;
position = "{259, 688}";
}
);
layerId = "FA01890A-5211-455F-9108-1209F66A586C";
paths = (
{
closed = 1;
nodes = (
"53 0 LINE",
"121 317 LINE",
"306 317 LINE",
"313 351 LINE",
"128 351 LINE",
"192 654 LINE",
"399 654 LINE",
"407 688 LINE",
"163 688 LINE",
"17 0 LINE"
);
}
);
width = 334;
},
{
anchors = (
{
name = bottom;
position = "{106, 0}";
},
{
name = top;
position = "{385, 688}";
}
);
layerId = "20A7088A-67D7-4614-84CF-19C576DDC019";
paths = (
{
closed = 1;
nodes = (
"169 0 LINE",
"227 274 LINE",
"521 274 LINE",
"543 379 LINE",
"249 379 LINE",
"294 584 LINE",
"627 584 LINE",
"649 688 LINE",
"187 688 LINE",
"40 0 LINE"
);
}
);
width = 586;
},
{
anchors = (
{
name = bottom;
position = "{64, 0}";
},
{
name = top;
position = "{281, 688}";
}
);
layerId = "C784E404-3F19-435D-96BB-DB276E1DA8D0";
paths = (
{
closed = 1;
nodes = (
"118 0 LINE",
"178 282 LINE",
"345 282 LINE",
"366 381 LINE",
"199 381 LINE",
"243 589 LINE",
"432 589 LINE",
"454 688 LINE",
"151 688 LINE",
"5 0 LINE"
);
}
);
width = 378;
}
);
unicode = 0046;
},
{
glyphname = G;
layers = (
{
anchors = (
{
name = bottom;
position = "{303, 0}";
},
{
name = top;
position = "{429, 688}";
}
);
background = {
paths = (
{
closed = 1;
nodes = (
"540 315 LINE",
"481 38 LINE",
"435 32 OFFCURVE",
"351 26 OFFCURVE",
"303 26 CURVE SMOOTH",
"84 26 OFFCURVE",
"66 66 OFFCURVE",
"126 344 CURVE SMOOTH",
"192 659 OFFCURVE",
"244 662 OFFCURVE",
"469 662 CURVE SMOOTH",
"513 662 OFFCURVE",
"588 655 OFFCURVE",
"644 646 CURVE",
"650 678 LINE",
"601 688 OFFCURVE",
"514 696 OFFCURVE",
"446 696 CURVE SMOOTH",
"213 696 OFFCURVE",
"156 657 OFFCURVE",
"90 344 CURVE SMOOTH",
"23 31 OFFCURVE",
"61 -8 OFFCURVE",
"297 -8 CURVE SMOOTH",
"357 -8 OFFCURVE",
"445 -1 OFFCURVE",
"511 9 CURVE",
"584 349 LINE",
"354 349 LINE",
"346 315 LINE"
);
}
);
};
layerId = "CD898CA3-FB76-4965-A23E-9AA06D1CE2B1";
paths = (
{
closed = 1;
nodes = (
"376 -8 OFFCURVE",
"456 -1 OFFCURVE",
"522 9 CURVE",
"595 349 LINE",
"365 349 LINE",
"357 315 LINE",
"551 315 LINE",
"492 38 LINE",
"446 32 OFFCURVE",
"362 26 OFFCURVE",
"314 26 CURVE SMOOTH",
"163 26 OFFCURVE",
"108 47 OFFCURVE",
"108 150 CURVE SMOOTH",
"108 197 OFFCURVE",
"119 258 OFFCURVE",
"137 344 CURVE SMOOTH",
"203 659 OFFCURVE",
"255 662 OFFCURVE",
"480 662 CURVE SMOOTH",
"524 662 OFFCURVE",
"599 655 OFFCURVE",
"655 646 CURVE",
"661 678 LINE",
"610 688 OFFCURVE",
"518 696 OFFCURVE",
"447 696 CURVE SMOOTH",
"220 696 OFFCURVE",
"166 657 OFFCURVE",
"101 344 CURVE SMOOTH",
"83 258 OFFCURVE",
"73 194 OFFCURVE",
"73 145 CURVE SMOOTH",
"73 13 OFFCURVE",
"152 -8 OFFCURVE",
"316 -8 CURVE SMOOTH"
);
}
);
width = 683;
},
{
anchors = (
{
name = bottom;
position = "{296, 0}";
},
{
name = top;
position = "{432, 688}";
}
);
background = {
paths = (
{
closed = 1;
nodes = (
"404 263 LINE",
"382 156 LINE",
"367 156 OFFCURVE",
"345 155 OFFCURVE",
"338 155 CURVE SMOOTH",
"251 155 OFFCURVE",
"248 183 OFFCURVE",
"283 344 CURVE SMOOTH",
"321 525 OFFCURVE",
"327 529 OFFCURVE",
"483 529 CURVE SMOOTH",
"519 529 OFFCURVE",
"599 523 OFFCURVE",
"659 516 CURVE",
"692 672 LINE",
"619 686 OFFCURVE",
"516 696 OFFCURVE",
"443 696 CURVE SMOOTH",
"184 696 OFFCURVE",
"112 620 OFFCURVE",
"54 344 CURVE SMOOTH",
"-4 68 OFFCURVE",
"35 -8 OFFCURVE",
"294 -8 CURVE SMOOTH",
"369 -8 OFFCURVE",
"478 1 OFFCURVE",
"555 13 CURVE",
"640 414 LINE",
"370 414 LINE",
"338 263 LINE"
);
}
);
};
layerId = "B4DE345C-CFDB-4A54-B125-3358BD91D59F";
paths = (
{
closed = 1;
nodes = (
"375 -8 OFFCURVE",
"480 1 OFFCURVE",
"555 13 CURVE",
"640 414 LINE",
"370 414 LINE",
"338 263 LINE",
"404 263 LINE",
"382 156 LINE",
"367 156 OFFCURVE",
"345 155 OFFCURVE",
"338 155 CURVE SMOOTH",
"284 155 OFFCURVE",
"262 166 OFFCURVE",
"262 213 CURVE SMOOTH",
"262 242 OFFCURVE",
"270 283 OFFCURVE",
"283 344 CURVE SMOOTH",
"321 525 OFFCURVE",
"327 529 OFFCURVE",
"483 529 CURVE SMOOTH",
"519 529 OFFCURVE",
"599 523 OFFCURVE",
"659 516 CURVE",
"692 672 LINE",
"617 686 OFFCURVE",
"510 696 OFFCURVE",
"435 696 CURVE SMOOTH",
"173 696 OFFCURVE",
"111 622 OFFCURVE",
"54 354 CURVE SMOOTH",
"39 283 OFFCURVE",
"30 225 OFFCURVE",
"30 179 CURVE SMOOTH",
"30 40 OFFCURVE",
"109 -8 OFFCURVE",
"302 -8 CURVE SMOOTH"
);
}
);
width = 649;
},
{
anchors = (
{
name = bottom;
position = "{166, 0}";
},
{
name = top;
position = "{302, 688}";
}
);
background = {
paths = (
{
closed = 1;
nodes = (
"228 277 LINE",
"196 127 LINE",
"194 127 OFFCURVE",
"188 126 OFFCURVE",
"176 126 CURVE SMOOTH",
"132 126 OFFCURVE",
"133 145 OFFCURVE",
"176 344 CURVE SMOOTH",
"221 557 OFFCURVE",
"232 557 OFFCURVE",
"319 557 CURVE SMOOTH",
"335 557 OFFCURVE",
"381 553 OFFCURVE",
"422 548 CURVE",
"449 676 LINE",
"412 688 OFFCURVE",
"352 696 OFFCURVE",
"309 696 CURVE SMOOTH",
"138 696 OFFCURVE",
"84 630 OFFCURVE",
"24 344 CURVE SMOOTH",
"-36 60 OFFCURVE",
"-15 -8 OFFCURVE",
"143 -8 CURVE SMOOTH",
"199 -8 OFFCURVE",
"268 1 OFFCURVE",
"309 14 CURVE",
"394 412 LINE",
"226 412 LINE",
"197 277 LINE"
);
}
);
};
layerId = "47937877-2CF8-49A0-A6AF-2B1A27CB5FF4";
paths = (
{
closed = 1;
nodes = (
"224 -8 OFFCURVE",
"288 1 OFFCURVE",
"327 14 CURVE",
"412 412 LINE",
"244 412 LINE",
"215 277 LINE",
"246 277 LINE",
"214 127 LINE",
"212 127 OFFCURVE",
"206 126 OFFCURVE",
"194 126 CURVE SMOOTH",
"172 126 OFFCURVE",
"161 130 OFFCURVE",
"161 160 CURVE SMOOTH",
"161 189 OFFCURVE",
"173 244 OFFCURVE",
"194 344 CURVE SMOOTH",
"239 557 OFFCURVE",
"250 557 OFFCURVE",
"337 557 CURVE SMOOTH",
"353 557 OFFCURVE",
"399 553 OFFCURVE",
"440 548 CURVE",
"467 676 LINE",
"427 688 OFFCURVE",
"363 696 OFFCURVE",
"317 696 CURVE SMOOTH",
"150 696 OFFCURVE",
"102 630 OFFCURVE",
"42 344 CURVE SMOOTH",
"23 253 OFFCURVE",
"12 185 OFFCURVE",
"12 135 CURVE SMOOTH",
"12 24 OFFCURVE",
"58 -8 OFFCURVE",
"171 -8 CURVE SMOOTH"
);
}
);
width = 410;
},
{
anchors = (
{
name = bottom;
position = "{162, 0}";
},
{
name = top;
position = "{308, 688}";
}
);
background = {
paths = (
{
closed = 1;
nodes = (
"322 315 LINE",
"263 38 LINE",
"241 31 OFFCURVE",
"201 26 OFFCURVE",
"170 26 CURVE SMOOTH",
"52 26 OFFCURVE",
"49 76 OFFCURVE",
"106 344 CURVE SMOOTH",
"170 649 OFFCURVE",
"199 662 OFFCURVE",
"324 662 CURVE SMOOTH",
"351 662 OFFCURVE",
"396 655 OFFCURVE",
"428 646 CURVE",
"434 678 LINE",
"404 689 OFFCURVE",
"353 696 OFFCURVE",
"313 696 CURVE SMOOTH",
"172 696 OFFCURVE",
"133 642 OFFCURVE",
"70 344 CURVE SMOOTH",
"6 41 OFFCURVE",
"28 -8 OFFCURVE",
"164 -8 CURVE SMOOTH",
"200 -8 OFFCURVE",
"252 -1 OFFCURVE",
"293 9 CURVE",
"366 349 LINE",
"228 349 LINE",
"220 315 LINE"
);
}
);
};
layerId = "FA01890A-5211-455F-9108-1209F66A586C";
paths = (
{
closed = 1;
nodes = (
"203 -8 OFFCURVE",
"251 -1 OFFCURVE",
"289 9 CURVE",
"362 349 LINE",
"224 349 LINE",
"216 315 LINE",
"318 315 LINE",
"259 38 LINE",
"237 31 OFFCURVE",
"197 26 OFFCURVE",
"166 26 CURVE SMOOTH",
"95 26 OFFCURVE",
"66 44 OFFCURVE",
"66 116 CURVE SMOOTH",
"66 164 OFFCURVE",
"79 236 OFFCURVE",
"102 344 CURVE SMOOTH",
"166 649 OFFCURVE",
"195 662 OFFCURVE",
"320 662 CURVE SMOOTH",
"347 662 OFFCURVE",
"392 655 OFFCURVE",
"424 646 CURVE",
"430 678 LINE",
"398 689 OFFCURVE",
"342 696 OFFCURVE",
"299 696 CURVE SMOOTH",
"164 696 OFFCURVE",
"128 642 OFFCURVE",
"66 344 CURVE SMOOTH",
"44 237 OFFCURVE",
"32 165 OFFCURVE",
"32 112 CURVE SMOOTH",
"32 15 OFFCURVE",
"75 -8 OFFCURVE",
"170 -8 CURVE SMOOTH"
);
}
);
width = 392;
},
{
anchors = (
{
name = bottom;
position = "{303, 0}";
},
{
name = top;
position = "{439, 688}";
}
);
layerId = "20A7088A-67D7-4614-84CF-19C576DDC019";
paths = (
{
closed = 1;
nodes = (
"393 -8 OFFCURVE",
"486 0 OFFCURVE",
"555 12 CURVE",
"634 383 LINE",
"378 383 LINE",
"357 285 LINE",
"493 285 LINE",
"454 100 LINE",
"424 97 OFFCURVE",
"371 93 OFFCURVE",
"338 93 CURVE SMOOTH",
"226 93 OFFCURVE",
"184 110 OFFCURVE",
"184 190 CURVE SMOOTH",
"184 227 OFFCURVE",
"192 277 OFFCURVE",
"207 344 CURVE SMOOTH",
"258 589 OFFCURVE",
"290 592 OFFCURVE",
"492 592 CURVE SMOOTH",
"533 592 OFFCURVE",
"608 585 OFFCURVE",
"672 577 CURVE",
"692 675 LINE",
"625 687 OFFCURVE",
"523 696 OFFCURVE",
"448 696 CURVE SMOOTH",
"200 696 OFFCURVE",
"140 632 OFFCURVE",
"79 347 CURVE SMOOTH",
"63 277 OFFCURVE",
"54 221 OFFCURVE",
"54 177 CURVE SMOOTH",
"54 32 OFFCURVE",
"131 -8 OFFCURVE",
"330 -8 CURVE SMOOTH"
);
}
);
width = 693;
},
{
anchors = (
{
name = bottom;
position = "{196, 0}";
},
{
name = top;
position = "{332, 688}";
}
);
layerId = "C784E404-3F19-435D-96BB-DB276E1DA8D0";
paths = (
{
closed = 1;
nodes = (
"252 -8 OFFCURVE",
"318 0 OFFCURVE",
"364 12 CURVE",
"443 386 LINE",
"265 386 LINE",
"245 290 LINE",
"320 290 LINE",
"278 94 LINE",
"264 91 OFFCURVE",
"238 88 OFFCURVE",
"215 88 CURVE SMOOTH",
"160 88 OFFCURVE",
"136 99 OFFCURVE",
"136 153 CURVE SMOOTH",
"136 190 OFFCURVE",
"148 249 OFFCURVE",
"168 344 CURVE SMOOTH",
"221 592 OFFCURVE",
"241 597 OFFCURVE",
"364 597 CURVE SMOOTH",
"389 597 OFFCURVE",
"441 591 OFFCURVE",
"484 584 CURVE",
"503 676 LINE",
"459 688 OFFCURVE",
"390 696 OFFCURVE",
"338 696 CURVE SMOOTH",
"164 696 OFFCURVE",
"117 634 OFFCURVE",
"56 345 CURVE SMOOTH",
"37 254 OFFCURVE",
"26 187 OFFCURVE",
"26 138 CURVE SMOOTH",
"26 23 OFFCURVE",
"78 -8 OFFCURVE",
"203 -8 CURVE SMOOTH"
);
}
);
width = 465;
}
);
leftKerningGroup = O;
rightKerningGroup = G;
unicode = 0047;
},
{
glyphname = H;
layers = (
{
anchors = (
{
name = bottom;
position = "{315, 0}";
},
{
name = center;
position = "{422, 510}";
},
{
name = top;
position = "{461, 688}";
},
{
name = topleft;
position = "{112, 688}";
}
);
layerId = "CD898CA3-FB76-4965-A23E-9AA06D1CE2B1";
paths = (
{
closed = 1;
nodes = (
"97 0 LINE",
"168 331 LINE",
"604 331 LINE",
"533 0 LINE",
"569 0 LINE",
"716 688 LINE",
"680 688 LINE",
"611 365 LINE",
"175 365 LINE",
"244 688 LINE",
"208 688 LINE",
"61 0 LINE"
);
}
);
width = 738;
},
{
anchors = (
{
name = bottom;
position = "{293, 0}";
},
{
name = center;
position = "{400, 510}";
},
{
name = top;
position = "{439, 688}";
},
{
name = topleft;
position = "{112, 688}";
}
);
layerId = "B4DE345C-CFDB-4A54-B125-3358BD91D59F";
paths = (
{
closed = 1;
nodes = (
"228 0 LINE",
"282 251 LINE",
"409 251 LINE",
"355 0 LINE",
"589 0 LINE",
"736 688 LINE",
"502 688 LINE",
"448 438 LINE",
"321 438 LINE",
"375 688 LINE",
"141 688 LINE",
"-5 0 LINE"
);
}
);
width = 693;
},
{
anchors = (
{
name = bottom;
position = "{162, 0}";
},
{
name = center;
position = "{275, 510}";
},
{
name = top;
position = "{308, 688}";
},
{
name = topleft;
position = "{112, 688}";
}
);
layerId = "47937877-2CF8-49A0-A6AF-2B1A27CB5FF4";
paths = (
{
closed = 1;
nodes = (
"137 0 LINE",
"195 273 LINE",
"251 273 LINE",
"193 0 LINE",
"347 0 LINE",
"494 688 LINE",
"340 688 LINE",
"283 420 LINE",
"227 420 LINE",
"284 688 LINE",
"130 688 LINE",
"-16 0 LINE"
);
}
);
width = 432;
},
{
anchors = (
{
name = bottom;
position = "{163, 0}";
},
{
name = center;
position = "{272, 510}";
},
{
name = top;
position = "{309, 688}";
},
{
name = topleft;
position = "{112, 688}";
}
);
layerId = "FA01890A-5211-455F-9108-1209F66A586C";
paths = (
{
closed = 1;
nodes = (
"52 0 LINE",
"123 331 LINE",
"355 331 LINE",
"284 0 LINE",
"320 0 LINE",
"467 688 LINE",
"431 688 LINE",
"362 365 LINE",
"130 365 LINE",
"199 688 LINE",
"163 688 LINE",
"17 0 LINE"
);
}
);
width = 434;
},
{
anchors = (
{
name = bottom;
position = "{320, 0}";
},
{
name = center;
position = "{431, 510}";
},
{
name = top;
position = "{466, 688}";
},
{
name = topleft;
position = "{112, 688}";
}
);
layerId = "20A7088A-67D7-4614-84CF-19C576DDC019";
paths = (
{
closed = 1;
nodes = (
"169 0 LINE",
"231 290 LINE",
"542 290 LINE",
"480 0 LINE",
"609 0 LINE",
"756 688 LINE",
"627 688 LINE",
"566 402 LINE",
"255 402 LINE",
"316 688 LINE",
"187 688 LINE",
"40 0 LINE"
);
}
);
width = 748;
},
{
anchors = (
{
name = bottom;
position = "{196, 0}";
},
{
name = center;
position = "{304, 510}";
},
{
name = top;
position = "{342, 688}";
},
{
name = topleft;
position = "{112, 688}";
}
);
layerId = "C784E404-3F19-435D-96BB-DB276E1DA8D0";
paths = (
{
closed = 1;
nodes = (
"118 0 LINE",
"180 295 LINE",
"344 295 LINE",
"281 0 LINE",
"395 0 LINE",
"542 688 LINE",
"428 688 LINE",
"366 399 LINE",
"203 399 LINE",
"265 688 LINE",
"151 688 LINE",
"5 0 LINE"
);
}
);
width = 500;
}
);
leftKerningGroup = H;
rightKerningGroup = H;
unicode = 0048;
},
{
glyphname = Hbar;
layers = (
{
layerId = "CD898CA3-FB76-4965-A23E-9AA06D1CE2B1";
paths = (
{
closed = 1;
nodes = (
"97 0 LINE",
"163 311 LINE",
"599 311 LINE",
"533 0 LINE",
"569 0 LINE",
"715 688 LINE",
"679 688 LINE",
"646 530 LINE",
"210 530 LINE",
"243 688 LINE",
"207 688 LINE",
"61 0 LINE"
);
},
{
closed = 1;
nodes = (
"202 494 LINE",
"638 494 LINE",
"606 345 LINE",
"170 345 LINE"
);
}
);
width = 738;
},
{
layerId = "B4DE345C-CFDB-4A54-B125-3358BD91D59F";
paths = (
{
closed = 1;
nodes = (
"229 0 LINE",
"274 211 LINE",
"401 211 LINE",
"356 0 LINE",
"590 0 LINE",
"736 688 LINE",
"502 688 LINE",
"486 611 LINE",
"359 611 LINE",
"375 688 LINE",
"141 688 LINE",
"-5 0 LINE"
);
},
{
closed = 1;
nodes = (
"330 474 LINE",
"457 474 LINE",
"441 398 LINE",
"314 398 LINE"
);
}
);
width = 693;
},
{
layerId = "47937877-2CF8-49A0-A6AF-2B1A27CB5FF4";
paths = (
{
closed = 1;
nodes = (
"138 0 LINE",
"188 233 LINE",
"244 233 LINE",
"194 0 LINE",
"348 0 LINE",
"494 688 LINE",
"340 688 LINE",
"324 612 LINE",
"268 612 LINE",
"284 688 LINE",
"130 688 LINE",
"-16 0 LINE"
);
},
{
closed = 1;
nodes = (
"239 473 LINE",
"295 473 LINE",
"275 380 LINE",
"219 380 LINE"
);
}
);
width = 432;
},
{
layerId = "FA01890A-5211-455F-9108-1209F66A586C";
paths = (
{
closed = 1;
nodes = (
"53 0 LINE",
"119 311 LINE",
"351 311 LINE",
"285 0 LINE",
"321 0 LINE",
"467 688 LINE",
"431 688 LINE",
"398 530 LINE",
"166 530 LINE",
"199 688 LINE",
"163 688 LINE",
"17 0 LINE"
);
},
{
closed = 1;
nodes = (
"158 494 LINE",
"390 494 LINE",
"358 345 LINE",
"126 345 LINE"
);
}
);
width = 434;
},
{
layerId = "20A7088A-67D7-4614-84CF-19C576DDC019";
paths = (
{
closed = 1;
nodes = (
"169 0 LINE",
"223 256 LINE",
"534 256 LINE",
"480 0 LINE",
"609 0 LINE",
"755 688 LINE",
"626 688 LINE",
"601 568 LINE",
"290 568 LINE",
"315 688 LINE",
"186 688 LINE",
"40 0 LINE"
);
},
{
closed = 1;
nodes = (
"271 479 LINE",
"582 479 LINE",
"558 368 LINE",
"247 368 LINE"
);
}
);
width = 748;
},
{
layerId = "C784E404-3F19-435D-96BB-DB276E1DA8D0";
paths = (
{
closed = 1;
nodes = (
"119 0 LINE",
"175 262 LINE",
"338 262 LINE",
"282 0 LINE",
"396 0 LINE",
"542 688 LINE",
"428 688 LINE",
"405 577 LINE",
"242 577 LINE",
"265 688 LINE",
"151 688 LINE",
"5 0 LINE"
);
},
{
closed = 1;
nodes = (
"221 481 LINE",
"384 481 LINE",
"360 367 LINE",
"197 367 LINE"
);
}
);
width = 500;
}
);
leftKerningGroup = H;
widthMetricsKey = H;
rightKerningGroup = H;
unicode = 0126;
},
{
glyphname = I;
layers = (
{
anchors = (
{
name = bottom;
position = "{79, 0}";
},
{
name = ogonek;
position = "{97, 0}";
},
{
name = top;
position = "{225, 688}";
},
{
name = topleft;
position = "{112, 688}";
}
);
layerId = "CD898CA3-FB76-4965-A23E-9AA06D1CE2B1";
paths = (
{
closed = 1;
nodes = (
"97 0 LINE",
"244 688 LINE",
"208 688 LINE",
"61 0 LINE"
);
}
);
width = 266;
},
{
anchors = (
{
name = bottom;
position = "{112, 0}";
},
{
name = ogonek;
position = "{228, 0}";
},
{
name = top;
position = "{258, 688}";
},
{
name = topleft;
position = "{112, 688}";
}
);
layerId = "B4DE345C-CFDB-4A54-B125-3358BD91D59F";
paths = (
{
closed = 1;
nodes = (
"228 0 LINE",
"375 688 LINE",
"141 688 LINE",
"-5 0 LINE"
);
}
);
width = 332;
},
{
anchors = (
{
name = bottom;
position = "{57, 0}";
},
{
name = ogonek;
position = "{138, 0}";
},
{
name = top;
position = "{203, 688}";
},
{
name = topleft;
position = "{112, 688}";
}
);
layerId = "47937877-2CF8-49A0-A6AF-2B1A27CB5FF4";
paths = (
{
closed = 1;
nodes = (
"138 0 LINE",
"285 688 LINE",
"131 688 LINE",
"-15 0 LINE"
);
}
);
width = 222;
},
{
anchors = (
{
name = bottom;
position = "{34, 0}";
},
{
name = ogonek;
position = "{52, 0}";
},
{
name = top;
position = "{180, 688}";
},
{
name = topleft;
position = "{112, 688}";
}
);
layerId = "FA01890A-5211-455F-9108-1209F66A586C";
paths = (
{
closed = 1;
nodes = (
"52 0 LINE",
"199 688 LINE",
"163 688 LINE",
"17 0 LINE"
);
}
);
width = 176;
},
{
anchors = (
{
name = bottom;
position = "{103, 0}";
},
{
name = ogonek;
position = "{169, 0}";
},
{
name = top;
position = "{246, 688}";
},
{
name = topleft;
position = "{112, 688}";
}
);
layerId = "20A7088A-67D7-4614-84CF-19C576DDC019";
paths = (
{
closed = 1;
nodes = (
"169 0 LINE",
"316 688 LINE",
"187 688 LINE",
"40 0 LINE"
);
}
);
width = 308;
},
{
anchors = (
{
name = bottom;
position = "{60, 0}";
},
{
name = ogonek;
position = "{118, 0}";
},
{
name = top;
position = "{206, 688}";
},
{
name = topleft;
position = "{112, 688}";
}
);
layerId = "C784E404-3F19-435D-96BB-DB276E1DA8D0";
paths = (
{
closed = 1;
nodes = (
"118 0 LINE",
"265 688 LINE",
"151 688 LINE",
"5 0 LINE"
);
}
);
width = 227;
}
);
leftKerningGroup = H;
rightKerningGroup = H;
unicode = 0049;
},
{
glyphname = J;
layers = (
{
anchors = (
{
name = bottom;
position = "{138, 0}";
},
{
name = top;
position = "{284, 688}";
}
);
layerId = "CD898CA3-FB76-4965-A23E-9AA06D1CE2B1";
paths = (
{
closed = 1;
nodes = (
"154 0 OFFCURVE",
"154 0 OFFCURVE",
"207 245 CURVE SMOOTH",
"302 688 LINE",
"266 688 LINE",
"168 226 LINE SMOOTH",
"127 34 OFFCURVE",
"127 34 OFFCURVE",
"-15 34 CURVE",
"-23 0 LINE"
);
}
);
width = 324;
},
{
anchors = (
{
name = bottom;
position = "{209, 0}";
},
{
name = top;
position = "{355, 688}";
}
);
background = {
paths = (
{
closed = 1;
nodes = (
"-40 0 LINE",
"314 0 OFFCURVE",
"331 13 OFFCURVE",
"398 328 CURVE SMOOTH",
"475 688 LINE",
"241 688 LINE",
"152 271 LINE SMOOTH",
"129 163 OFFCURVE",
"123 158 OFFCURVE",
"-6 158 CURVE"
);
}
);
};
layerId = "B4DE345C-CFDB-4A54-B125-3358BD91D59F";
paths = (
{
closed = 1;
nodes = (
"326 0 OFFCURVE",
"333 11 OFFCURVE",
"391 288 CURVE SMOOTH",
"475 688 LINE",
"241 688 LINE",
"152 271 LINE SMOOTH",
"129 163 OFFCURVE",
"123 158 OFFCURVE",
"-6 158 CURVE",
"-40 0 LINE"
);
}
);
width = 427;
},
{
anchors = (
{
name = bottom;
position = "{107, 0}";
},
{
name = top;
position = "{253, 688}";
}
);
layerId = "47937877-2CF8-49A0-A6AF-2B1A27CB5FF4";
paths = (
{
closed = 1;
nodes = (
"179 0 OFFCURVE",
"186 3 OFFCURVE",
"256 328 CURVE SMOOTH",
"333 688 LINE",
"179 688 LINE",
"83 240 LINE SMOOTH",
"61 138 OFFCURVE",
"55 130 OFFCURVE",
"-21 130 CURVE",
"-49 0 LINE"
);
}
);
width = 270;
},
{
anchors = (
{
name = bottom;
position = "{36, 0}";
},
{
name = top;
position = "{182, 688}";
}
);
layerId = "FA01890A-5211-455F-9108-1209F66A586C";
paths = (
{
closed = 1;
nodes = (
"48 3 OFFCURVE",
"56 15 OFFCURVE",
"101 224 CURVE SMOOTH",
"200 688 LINE",
"164 688 LINE",
"65 226 LINE SMOOTH",
"25 41 OFFCURVE",
"24 38 OFFCURVE",
"-45 34 CURVE",
"-53 0 LINE"
);
}
);
width = 177;
},
{
anchors = (
{
name = bottom;
position = "{185, 0}";
},
{
name = top;
position = "{331, 688}";
}
);
layerId = "20A7088A-67D7-4614-84CF-19C576DDC019";
paths = (
{
closed = 1;
nodes = (
"246 0 OFFCURVE",
"255 11 OFFCURVE",
"312 281 CURVE SMOOTH",
"398 688 LINE",
"268 688 LINE",
"177 261 LINE SMOOTH",
"145 107 OFFCURVE",
"140 101 OFFCURVE",
"-2 99 CURVE",
"-24 0 LINE"
);
}
);
width = 388;
},
{
anchors = (
{
name = bottom;
position = "{101, 0}";
},
{
name = top;
position = "{247, 688}";
}
);
layerId = "C784E404-3F19-435D-96BB-DB276E1DA8D0";
paths = (
{
closed = 1;
nodes = (
"157 0 OFFCURVE",
"161 10 OFFCURVE",
"219 284 CURVE SMOOTH",
"305 688 LINE",
"191 688 LINE",
"96 240 LINE SMOOTH",
"66 101 OFFCURVE",
"62 95 OFFCURVE",
"-27 93 CURVE",
"-47 0 LINE"
);
}
);
width = 267;
}
);
leftKerningGroup = J;
rightKerningGroup = U;
unicode = 004A;
},
{
glyphname = K;
layers = (
{
anchors = (
{
name = bottom;
position = "{279, 0}";
},
{
name = top;
position = "{425, 688}";
}
);
background = {
paths = (
{
closed = 1;
nodes = (
"528 0 LINE",
"571 0 LINE",
"375 349 LINE",
"715 688 LINE",
"673 688 LINE",
"348 366 LINE",
"175 366 LINE",
"244 688 LINE",
"208 688 LINE",
"61 0 LINE",
"97 0 LINE",
"168 332 LINE",
"341 332 LINE"
);
}
);
};
layerId = "CD898CA3-FB76-4965-A23E-9AA06D1CE2B1";
paths = (
{
closed = 1;
nodes = (
"97 0 LINE",
"168 332 LINE",
"341 332 LINE",
"532 0 LINE",
"571 0 LINE",
"373 346 LINE",
"715 688 LINE",
"669 688 LINE",
"348 366 LINE",
"175 366 LINE",
"244 688 LINE",
"208 688 LINE",
"61 0 LINE"
);
}
);
width = 665;
},
{
anchors = (
{
name = bottom;
position = "{293, 0}";
},
{
name = top;
position = "{439, 688}";
}
);
background = {
paths = (
{
closed = 1;
nodes = (
"384 0 LINE",
"639 0 LINE",
"507 365 LINE",
"783 688 LINE",
"534 688 LINE",
"330 431 LINE",
"320 431 LINE",
"375 688 LINE",
"141 688 LINE",
"-5 0 LINE",
"228 0 LINE",
"285 268 LINE",
"295 268 LINE"
);
}
);
};
layerId = "B4DE345C-CFDB-4A54-B125-3358BD91D59F";
paths = (
{
closed = 1;
nodes = (
"228 0 LINE",
"285 268 LINE",
"295 268 LINE",
"391 0 LINE",
"639 0 LINE",
"504 350 LINE",
"783 688 LINE",
"528 688 LINE",
"330 431 LINE",
"320 431 LINE",
"375 688 LINE",
"141 688 LINE",
"-5 0 LINE"
);
}
);
width = 693;
},
{
anchors = (
{
name = bottom;
position = "{154, 0}";
},
{
name = top;
position = "{300, 688}";
}
);
background = {
paths = (
{
closed = 1;
nodes = (
"179 0 LINE",
"339 0 LINE",
"323 358 LINE",
"485 688 LINE",
"329 688 LINE",
"218 422 LINE",
"204 422 LINE",
"261 688 LINE",
"107 688 LINE",
"-39 0 LINE",
"114 0 LINE",
"173 275 LINE",
"187 275 LINE"
);
}
);
};
layerId = "47937877-2CF8-49A0-A6AF-2B1A27CB5FF4";
paths = (
{
closed = 1;
nodes = (
"138 0 LINE",
"197 275 LINE",
"211 275 LINE",
"211 0 LINE",
"363 0 LINE",
"345 347 LINE",
"509 688 LINE",
"350 688 LINE",
"242 422 LINE",
"228 422 LINE",
"285 688 LINE",
"131 688 LINE",
"-15 0 LINE"
);
}
);
width = 416;
},
{
anchors = (
{
name = bottom;
position = "{139, 0}";
},
{
name = top;
position = "{285, 688}";
}
);
background = {
paths = (
{
closed = 1;
nodes = (
"278 0 LINE",
"317 0 LINE",
"237 349 LINE",
"462 688 LINE",
"424 688 LINE",
"209 366 LINE",
"125 366 LINE",
"194 688 LINE",
"158 688 LINE",
"12 0 LINE",
"47 0 LINE",
"118 332 LINE",
"202 332 LINE"
);
}
);
};
layerId = "FA01890A-5211-455F-9108-1209F66A586C";
paths = (
{
closed = 1;
nodes = (
"52 0 LINE",
"123 332 LINE",
"207 332 LINE",
"285 0 LINE",
"322 0 LINE",
"240 347 LINE",
"467 688 LINE",
"427 688 LINE",
"214 366 LINE",
"130 366 LINE",
"199 688 LINE",
"163 688 LINE",
"17 0 LINE"
);
}
);
width = 386;
},
{
anchors = (
{
name = bottom;
position = "{298, 0}";
},
{
name = top;
position = "{444, 688}";
}
);
layerId = "20A7088A-67D7-4614-84CF-19C576DDC019";
paths = (
{
closed = 1;
nodes = (
"169 0 LINE",
"233 299 LINE",
"329 299 LINE",
"493 0 LINE",
"634 0 LINE",
"442 346 LINE",
"778 688 LINE",
"630 688 LINE",
"351 401 LINE",
"255 401 LINE",
"316 688 LINE",
"187 688 LINE",
"40 0 LINE"
);
}
);
width = 703;
},
{
anchors = (
{
name = bottom;
position = "{181, 0}";
},
{
name = top;
position = "{327, 688}";
}
);
layerId = "C784E404-3F19-435D-96BB-DB276E1DA8D0";
paths = (
{
closed = 1;
nodes = (
"118 0 LINE",
"182 298 LINE",
"234 298 LINE",
"294 0 LINE",
"408 0 LINE",
"333 346 LINE",
"554 688 LINE",
"433 688 LINE",
"256 400 LINE",
"203 400 LINE",
"265 688 LINE",
"151 688 LINE",
"5 0 LINE"
);
}
);
width = 469;
}
);
leftKerningGroup = H;
rightKerningGroup = X;
unicode = 004B;
},
{
glyphname = L;
layers = (
{
anchors = (
{
name = bottom;
position = "{264, 0}";
},
{
name = center;
position = "{154, 344}";
},
{
name = top;
position = "{227, 688}";
},
{
name = topright;
position = "{347, 510}";
}
);
layerId = "CD898CA3-FB76-4965-A23E-9AA06D1CE2B1";
paths = (
{
closed = 1;
nodes = (
"447 0 LINE",
"455 34 LINE",
"105 34 LINE",
"244 688 LINE",
"208 688 LINE",
"61 0 LINE"
);
}
);
width = 536;
},
{
anchors = (
{
name = bottom;
position = "{227, 0}";
},
{
name = center;
position = "{186, 344}";
},
{
name = top;
position = "{259, 688}";
},
{
name = topright;
position = "{383, 510}";
}
);
layerId = "B4DE345C-CFDB-4A54-B125-3358BD91D59F";
paths = (
{
closed = 1;
nodes = (
"458 0 LINE",
"496 176 LINE",
"266 176 LINE",
"375 688 LINE",
"141 688 LINE",
"-5 0 LINE"
);
}
);
width = 521;
},
{
anchors = (
{
name = bottom;
position = "{116, 0}";
},
{
name = center;
position = "{135, 344}";
},
{
name = top;
position = "{208, 688}";
},
{
name = topright;
position = "{250, 510}";
}
);
layerId = "47937877-2CF8-49A0-A6AF-2B1A27CB5FF4";
paths = (
{
closed = 1;
nodes = (
"251 0 LINE",
"282 142 LINE",
"169 142 LINE",
"285 688 LINE",
"131 688 LINE",
"-15 0 LINE"
);
}
);
width = 311;
},
{
anchors = (
{
name = bottom;
position = "{135, 0}";
},
{
name = center;
position = "{109, 344}";
},
{
name = top;
position = "{182, 688}";
},
{
name = topright;
position = "{212, 510}";
}
);
layerId = "FA01890A-5211-455F-9108-1209F66A586C";
paths = (
{
closed = 1;
nodes = (
"248 0 LINE",
"256 34 LINE",
"61 34 LINE",
"200 688 LINE",
"163 688 LINE",
"17 0 LINE"
);
}
);
width = 302;
},
{
anchors = (
{
name = bottom;
position = "{272, 0}";
},
{
name = center;
position = "{178, 344}";
},
{
name = top;
position = "{251, 688}";
},
{
name = topright;
position = "{368, 510}";
}
);
layerId = "20A7088A-67D7-4614-84CF-19C576DDC019";
paths = (
{
closed = 1;
nodes = (
"479 0 LINE",
"503 109 LINE",
"193 109 LINE",
"316 688 LINE",
"187 688 LINE",
"40 0 LINE"
);
}
);
width = 554;
},
{
anchors = (
{
name = bottom;
position = "{155, 0}";
},
{
name = center;
position = "{134, 344}";
},
{
name = top;
position = "{207, 688}";
},
{
name = topright;
position = "{287, 510}";
}
);
layerId = "C784E404-3F19-435D-96BB-DB276E1DA8D0";
paths = (
{
closed = 1;
nodes = (
"299 0 LINE",
"321 102 LINE",
"140 102 LINE",
"265 688 LINE",
"151 688 LINE",
"5 0 LINE"
);
}
);
width = 360;
}
);
leftKerningGroup = H;
rightKerningGroup = L;
unicode = 004C;
},
{
glyphname = Lslash;
layers = (
{
components = (
{
name = L;
}
);
layerId = "CD898CA3-FB76-4965-A23E-9AA06D1CE2B1";
paths = (
{
closed = 1;
nodes = (
"396 401 LINE",
"403 435 LINE",
"60 319 LINE",
"53 285 LINE"
);
}
);
width = 536;
},
{
components = (
{
name = L;
}
);
layerId = "B4DE345C-CFDB-4A54-B125-3358BD91D59F";
paths = (
{
closed = 1;
nodes = (
"433 379 LINE",
"463 521 LINE",
"24 372 LINE",
"-7 230 LINE"
);
}
);
width = 533;
},
{
components = (
{
name = L;
}
);
layerId = "47937877-2CF8-49A0-A6AF-2B1A27CB5FF4";
paths = (
{
closed = 1;
nodes = (
"282 333 LINE",
"309 462 LINE",
"27 363 LINE",
"0 234 LINE"
);
}
);
width = 311;
},
{
components = (
{
name = L;
}
);
layerId = "FA01890A-5211-455F-9108-1209F66A586C";
paths = (
{
closed = 1;
nodes = (
"260 352 LINE",
"267 386 LINE",
"37 308 LINE",
"30 274 LINE"
);
}
);
width = 302;
},
{
components = (
{
name = L;
}
);
layerId = "20A7088A-67D7-4614-84CF-19C576DDC019";
paths = (
{
closed = 1;
nodes = (
"433 393 LINE",
"455 484 LINE",
"53 346 LINE",
"31 255 LINE"
);
}
);
width = 558;
},
{
components = (
{
name = L;
}
);
layerId = "C784E404-3F19-435D-96BB-DB276E1DA8D0";
paths = (
{
closed = 1;
nodes = (
"312 352 LINE",
"331 443 LINE",
"32 342 LINE",
"12 251 LINE"
);
}
);
width = 361;
}
);
leftKerningGroup = H;
rightKerningGroup = L;
unicode = 0141;
},
{
glyphname = M;
layers = (
{
anchors = (
{
name = bottom;
position = "{404, 0}";
},
{
name = top;
position = "{550, 688}";
}
);
background = {
paths = (
{
closed = 1;
nodes = (
"690 0 LINE",
"726 0 LINE",
"873 688 LINE",
"828 688 LINE",
"398 53 LINE",
"393 53 LINE",
"234 688 LINE",
"188 688 LINE",
"41 0 LINE",
"76 0 LINE",
"208 618 LINE",
"212 618 LINE",
"367 0 LINE",
"399 0 LINE",
"818 618 LINE",
"822 618 LINE"
);
}
);
};
layerId = "CD898CA3-FB76-4965-A23E-9AA06D1CE2B1";
paths = (
{
closed = 1;
nodes = (
"97 0 LINE",
"229 618 LINE",
"233 618 LINE",
"388 0 LINE",
"419 0 LINE",
"838 618 LINE",
"842 618 LINE",
"710 0 LINE",
"746 0 LINE",
"893 688 LINE",
"846 688 LINE",
"416 53 LINE",
"411 53 LINE",
"252 688 LINE",
"208 688 LINE",
"61 0 LINE"
);
}
);
width = 915;
},
{
anchors = (
{
name = bottom;
position = "{396, 0}";
},
{
name = top;
position = "{542, 688}";
}
);
background = {
paths = (
{
closed = 1;
nodes = (
"572 0 LINE",
"795 0 LINE",
"942 688 LINE",
"623 688 LINE",
"478 365 LINE",
"469 365 LINE",
"461 688 LINE",
"141 688 LINE",
"-5 0 LINE",
"211 0 LINE",
"294 387 LINE",
"305 387 LINE",
"314 0 LINE",
"469 0 LINE",
"644 387 LINE",
"655 387 LINE"
);
}
);
};
layerId = "B4DE345C-CFDB-4A54-B125-3358BD91D59F";
paths = (
{
closed = 1;
nodes = (
"211 0 LINE",
"294 387 LINE",
"305 387 LINE",
"314 0 LINE",
"469 0 LINE",
"644 387 LINE",
"655 387 LINE",
"572 0 LINE",
"795 0 LINE",
"942 688 LINE",
"623 688 LINE",
"478 365 LINE",
"469 365 LINE",
"461 688 LINE",
"141 688 LINE",
"-5 0 LINE"
);
}
);
width = 899;
},
{
anchors = (
{
name = bottom;
position = "{263, 0}";
},
{
name = top;
position = "{409, 688}";
}
);
background = {
paths = (
{
closed = 1;
nodes = (
"378 0 LINE",
"526 0 LINE",
"673 688 LINE",
"438 688 LINE",
"298 224 LINE",
"290 224 LINE",
"347 688 LINE",
"107 688 LINE",
"-39 0 LINE",
"105 0 LINE",
"213 507 LINE",
"222 507 LINE",
"165 0 LINE",
"318 0 LINE",
"478 507 LINE",
"486 507 LINE"
);
}
);
};
layerId = "47937877-2CF8-49A0-A6AF-2B1A27CB5FF4";
paths = (
{
closed = 1;
nodes = (
"129 0 LINE",
"237 507 LINE",
"246 507 LINE",
"189 0 LINE",
"342 0 LINE",
"502 507 LINE",
"510 507 LINE",
"402 0 LINE",
"550 0 LINE",
"697 688 LINE",
"459 688 LINE",
"319 224 LINE",
"311 224 LINE",
"368 688 LINE",
"131 688 LINE",
"-15 0 LINE"
);
}
);
width = 634;
},
{
anchors = (
{
name = bottom;
position = "{217, 0}";
},
{
name = top;
position = "{363, 688}";
}
);
background = {
paths = (
{
closed = 1;
nodes = (
"391 0 LINE",
"427 0 LINE",
"574 688 LINE",
"523 688 LINE",
"240 73 LINE",
"235 73 LINE",
"215 688 LINE",
"163 688 LINE",
"17 0 LINE",
"51 0 LINE",
"178 595 LINE",
"182 595 LINE",
"199 0 LINE",
"241 0 LINE",
"514 595 LINE",
"518 595 LINE"
);
}
);
};
layerId = "FA01890A-5211-455F-9108-1209F66A586C";
paths = (
{
closed = 1;
nodes = (
"51 0 LINE",
"178 595 LINE",
"182 595 LINE",
"199 0 LINE",
"241 0 LINE",
"514 595 LINE",
"518 595 LINE",
"391 0 LINE",
"427 0 LINE",
"574 688 LINE",
"521 688 LINE",
"239 73 LINE",
"233 73 LINE",
"213 688 LINE",
"163 688 LINE",
"17 0 LINE"
);
}
);
width = 541;
},
{
anchors = (
{
name = bottom;
position = "{412, 0}";
},
{
name = top;
position = "{558, 688}";
}
);
layerId = "20A7088A-67D7-4614-84CF-19C576DDC019";
paths = (
{
closed = 1;
nodes = (
"161 0 LINE",
"265 492 LINE",
"271 492 LINE",
"371 0 LINE",
"456 0 LINE",
"766 492 LINE",
"772 492 LINE",
"667 0 LINE",
"792 0 LINE",
"939 688 LINE",
"763 688 LINE",
"463 218 LINE",
"457 218 LINE",
"357 688 LINE",
"187 688 LINE",
"40 0 LINE"
);
}
);
width = 931;
},
{
anchors = (
{
name = bottom;
position = "{280, 0}";
},
{
name = top;
position = "{426, 688}";
}
);
layerId = "C784E404-3F19-435D-96BB-DB276E1DA8D0";
paths = (
{
closed = 1;
nodes = (
"111 0 LINE",
"224 529 LINE",
"231 529 LINE",
"229 0 LINE",
"333 0 LINE",
"559 529 LINE",
"566 529 LINE",
"453 0 LINE",
"562 0 LINE",
"709 688 LINE",
"540 688 LINE",
"323 178 LINE",
"317 178 LINE",
"317 688 LINE",
"151 688 LINE",
"5 0 LINE"
);
}
);
width = 668;
}
);
leftKerningGroup = H;
rightKerningGroup = H;
unicode = 004D;
},
{
glyphname = N;
layers = (
{
anchors = (
{
name = bottom;
position = "{315, 0}";
},
{
name = top;
position = "{461, 688}";
}
);
layerId = "CD898CA3-FB76-4965-A23E-9AA06D1CE2B1";
paths = (
{
closed = 1;
nodes = (
"97 0 LINE",
"230 622 LINE",
"234 622 LINE",
"535 0 LINE",
"569 0 LINE",
"716 688 LINE",
"680 688 LINE",
"547 66 LINE",
"543 66 LINE",
"242 688 LINE",
"208 688 LINE",
"61 0 LINE"
);
}
);
width = 738;
},
{
anchors = (
{
name = bottom;
position = "{297, 0}";
},
{
name = top;
position = "{443, 688}";
}
);
layerId = "B4DE345C-CFDB-4A54-B125-3358BD91D59F";
paths = (
{
closed = 1;
nodes = (
"212 0 LINE",
"281 321 LINE",
"287 321 LINE",
"377 0 LINE",
"597 0 LINE",
"744 688 LINE",
"526 688 LINE",
"469 422 LINE",
"462 422 LINE",
"385 688 LINE",
"141 688 LINE",
"-5 0 LINE"
);
}
);
width = 701;
},
{
anchors = (
{
name = bottom;
position = "{165, 0}";
},
{
name = top;
position = "{319, 688}";
}
);
layerId = "47937877-2CF8-49A0-A6AF-2B1A27CB5FF4";
paths = (
{
closed = 1;
nodes = (
"128 0 LINE",
"193 304 LINE",
"197 304 LINE",
"219 0 LINE",
"353 0 LINE",
"500 688 LINE",
"356 688 LINE",
"299 422 LINE",
"293 422 LINE",
"274 688 LINE",
"131 688 LINE",
"-15 0 LINE"
);
}
);
width = 437;
},
{
anchors = (
{
name = bottom;
position = "{163, 0}";
},
{
name = top;
position = "{309, 688}";
}
);
background = {
paths = (
{
closed = 1;
nodes = (
"277 0 LINE",
"320 0 LINE",
"467 688 LINE",
"432 688 LINE",
"305 93 LINE",
"301 93 LINE",
"206 688 LINE",
"163 688 LINE",
"17 0 LINE",
"51 0 LINE",
"178 595 LINE",
"182 595 LINE"
);
}
);
};
layerId = "FA01890A-5211-455F-9108-1209F66A586C";
paths = (
{
closed = 1;
nodes = (
"52 0 LINE",
"179 595 LINE",
"183 595 LINE",
"278 0 LINE",
"320 0 LINE",
"467 688 LINE",
"431 688 LINE",
"304 93 LINE",
"300 93 LINE",
"205 688 LINE",
"163 688 LINE",
"17 0 LINE"
);
}
);
width = 434;
},
{
anchors = (
{
name = bottom;
position = "{321, 0}";
},
{
name = top;
position = "{467, 688}";
}
);
layerId = "20A7088A-67D7-4614-84CF-19C576DDC019";
paths = (
{
closed = 1;
nodes = (
"164 0 LINE",
"267 484 LINE",
"274 484 LINE",
"489 0 LINE",
"611 0 LINE",
"758 688 LINE",
"634 688 LINE",
"535 228 LINE",
"528 228 LINE",
"320 688 LINE",
"187 688 LINE",
"40 0 LINE"
);
}
);
width = 750;
},
{
anchors = (
{
name = bottom;
position = "{198, 0}";
},
{
name = top;
position = "{344, 688}";
}
);
layerId = "C784E404-3F19-435D-96BB-DB276E1DA8D0";
paths = (
{
closed = 1;
nodes = (
"111 0 LINE",
"204 433 LINE",
"208 433 LINE",
"293 0 LINE",
"397 0 LINE",
"544 688 LINE",
"437 688 LINE",
"350 278 LINE",
"344 278 LINE",
"262 688 LINE",
"151 688 LINE",
"5 0 LINE"
);
}
);
width = 503;
}
);
leftKerningGroup = H;
rightKerningGroup = H;
unicode = 004E;
},
{
glyphname = Ncaron;
layers = (
{
background = {
paths = (
{
closed = 1;
nodes = (
"150 0 LINE",
"150 622 LINE",
"154 622 LINE",
"588 0 LINE",
"623 0 LINE",
"623 688 LINE",
"588 688 LINE",
"588 66 LINE",
"584 66 LINE",
"150 688 LINE",
"115 688 LINE",
"115 0 LINE"
);
},
{
closed = 1;
nodes = (
"392 750 LINE",
"499 883 LINE",
"499 888 LINE",
"472 888 LINE",
"369 780 LINE",
"266 888 LINE",
"239 888 LINE",
"239 883 LINE",
"346 750 LINE"
);
}
);
};
components = (
{
name = N;
},
{
name = caroncomb.case;
transform = "{1, 0, 0, 1, 278, 178}";
}
);
layerId = "CD898CA3-FB76-4965-A23E-9AA06D1CE2B1";
width = 738;
},
{
components = (
{
name = N;
},
{
name = caroncomb.case;
transform = "{1, 0, 0, 1, 203, 178}";
}
);
layerId = "B4DE345C-CFDB-4A54-B125-3358BD91D59F";
width = 701;
},
{
components = (
{
name = N;
},
{
name = caroncomb.case;
transform = "{1, 0, 0, 1, 125, 178}";
}
);
layerId = "47937877-2CF8-49A0-A6AF-2B1A27CB5FF4";
width = 437;
},
{
components = (
{
name = N;
},
{
name = caroncomb.case;
transform = "{1, 0, 0, 1, 164, 178}";
}
);
layerId = "FA01890A-5211-455F-9108-1209F66A586C";
width = 434;
},
{
components = (
{
name = N;
},
{
name = caroncomb.case;
transform = "{1, 0, 0, 1, 251, 178}";
}
);
layerId = "20A7088A-67D7-4614-84CF-19C576DDC019";
width = 750;
},
{
components = (
{
name = N;
},
{
name = caroncomb.case;
transform = "{1, 0, 0, 1, 149, 178}";
}
);
layerId = "C784E404-3F19-435D-96BB-DB276E1DA8D0";
width = 503;
}
);
leftKerningGroup = H;
rightKerningGroup = H;
unicode = 0147;
},
{
glyphname = Eng;
layers = (
{
background = {
paths = (
{
closed = 1;
nodes = (
"485 -200 OFFCURVE",
"530 -195 OFFCURVE",
"549 -103 CURVE SMOOTH",
"717 688 LINE",
"682 688 LINE",
"550 66 LINE",
"546 66 LINE",
"244 688 LINE",
"209 688 LINE",
"63 0 LINE",
"98 0 LINE",
"230 622 LINE",
"234 622 LINE",
"536 0 LINE",
"512 -113 LINE SMOOTH",
"503 -158 OFFCURVE",
"491 -170 OFFCURVE",
"398 -170 CURVE",
"392 -200 LINE"
);
}
);
};
layerId = "CD898CA3-FB76-4965-A23E-9AA06D1CE2B1";
paths = (
{
closed = 1;
nodes = (
"496 -200 OFFCURVE",
"529 -198 OFFCURVE",
"548 -103 CURVE SMOOTH",
"716 688 LINE",
"680 688 LINE",
"547 66 LINE",
"543 66 LINE",
"242 688 LINE",
"208 688 LINE",
"61 0 LINE",
"97 0 LINE",
"230 622 LINE",
"234 622 LINE",
"535 0 LINE",
"511 -113 LINE SMOOTH",
"500 -163 OFFCURVE",
"486 -170 OFFCURVE",
"398 -170 CURVE",
"391 -200 LINE"
);
}
);
width = 738;
},
{
background = {
paths = (
{
closed = 1;
nodes = (
"513 -199 OFFCURVE",
"561 -179 OFFCURVE",
"607 37 CURVE SMOOTH",
"745 688 LINE",
"522 688 LINE",
"466 422 LINE",
"459 422 LINE",
"381 688 LINE",
"142 688 LINE",
"-4 0 LINE",
"219 0 LINE",
"287 321 LINE",
"293 321 LINE",
"379 16 LINE",
"374 -10 LINE SMOOTH",
"367 -45 OFFCURVE",
"360 -61 OFFCURVE",
"291 -61 CURVE",
"262 -199 LINE"
);
}
);
};
layerId = "B4DE345C-CFDB-4A54-B125-3358BD91D59F";
paths = (
{
closed = 1;
nodes = (
"516 -199 OFFCURVE",
"557 -199 OFFCURVE",
"605 37 CURVE SMOOTH",
"744 688 LINE",
"526 688 LINE",
"469 422 LINE",
"462 422 LINE",
"385 688 LINE",
"141 688 LINE",
"-5 0 LINE",
"212 0 LINE",
"281 321 LINE",
"287 321 LINE",
"377 3 LINE",
"376 -3 LINE",
"365 -59 OFFCURVE",
"366 -61 OFFCURVE",
"292 -61 CURVE",
"262 -199 LINE"
);
}
);
width = 701;
},
{
background = {
paths = (
{
closed = 1;
nodes = (
"290 -198 OFFCURVE",
"311 -179 OFFCURVE",
"356 35 CURVE SMOOTH",
"457 510 LINE",
"313 510 LINE",
"197 -39 LINE SMOOTH",
"190 -73 OFFCURVE",
"187 -89 OFFCURVE",
"141 -89 CURVE",
"117 -198 LINE"
);
}
);
};
layerId = "47937877-2CF8-49A0-A6AF-2B1A27CB5FF4";
paths = (
{
closed = 1;
nodes = (
"290 -198 OFFCURVE",
"310 -179 OFFCURVE",
"356 35 CURVE SMOOTH",
"497 688 LINE",
"351 688 LINE",
"295 422 LINE",
"289 422 LINE",
"269 688 LINE",
"128 688 LINE",
"-18 0 LINE",
"128 0 LINE",
"193 304 LINE",
"197 304 LINE",
"215 45 LINE",
"197 -39 LINE SMOOTH",
"190 -73 OFFCURVE",
"187 -89 OFFCURVE",
"141 -89 CURVE",
"117 -198 LINE"
);
}
);
width = 437;
},
{
background = {
paths = (
{
closed = 1;
nodes = (
"250 -190 OFFCURVE",
"280 -185 OFFCURVE",
"300 -93 CURVE SMOOTH",
"466 688 LINE",
"431 688 LINE",
"307 101 LINE",
"303 101 LINE",
"205 688 LINE",
"162 688 LINE",
"16 0 LINE",
"51 0 LINE",
"178 595 LINE",
"182 595 LINE",
"285 0 LINE",
"263 -103 LINE SMOOTH",
"253 -148 OFFCURVE",
"246 -160 OFFCURVE",
"190 -160 CURVE",
"184 -190 LINE"
);
}
);
};
layerId = "FA01890A-5211-455F-9108-1209F66A586C";
paths = (
{
closed = 1;
nodes = (
"267 -190 OFFCURVE",
"280 -185 OFFCURVE",
"300 -93 CURVE SMOOTH",
"467 688 LINE",
"431 688 LINE",
"307 99 LINE",
"303 99 LINE",
"205 688 LINE",
"163 688 LINE",
"17 0 LINE",
"52 0 LINE",
"179 595 LINE",
"183 595 LINE",
"285 0 LINE",
"264 -103 LINE SMOOTH",
"254 -151 OFFCURVE",
"245 -160 OFFCURVE",
"191 -160 CURVE",
"184 -190 LINE"
);
}
);
width = 434;
},
{
background = {
paths = (
{
closed = 1;
nodes = (
"524 -200 OFFCURVE",
"570 -187 OFFCURVE",
"603 -31 CURVE SMOOTH",
"755 688 LINE",
"632 688 LINE",
"536 233 LINE",
"531 233 LINE",
"318 688 LINE",
"184 688 LINE",
"38 0 LINE",
"162 0 LINE",
"264 478 LINE",
"269 478 LINE",
"486 1 LINE",
"474 -58 LINE SMOOTH",
"465 -98 OFFCURVE",
"455 -112 OFFCURVE",
"369 -112 CURVE",
"351 -200 LINE"
);
}
);
};
layerId = "20A7088A-67D7-4614-84CF-19C576DDC019";
paths = (
{
closed = 1;
nodes = (
"533 -200 OFFCURVE",
"571 -195 OFFCURVE",
"604 -34 CURVE SMOOTH",
"758 688 LINE",
"634 688 LINE",
"535 228 LINE",
"528 228 LINE",
"320 688 LINE",
"187 688 LINE",
"40 0 LINE",
"164 0 LINE",
"267 484 LINE",
"274 484 LINE",
"489 0 LINE",
"477 -58 LINE SMOOTH",
"467 -109 OFFCURVE",
"460 -112 OFFCURVE",
"374 -112 CURVE",
"355 -200 LINE"
);
}
);
width = 750;
},
{
layerId = "C784E404-3F19-435D-96BB-DB276E1DA8D0";
paths = (
{
closed = 1;
nodes = (
"333 -196 OFFCURVE",
"355 -184 OFFCURVE",
"390 -20 CURVE SMOOTH",
"542 688 LINE",
"435 688 LINE",
"348 281 LINE",
"342 281 LINE",
"260 688 LINE",
"149 688 LINE",
"3 0 LINE",
"111 0 LINE",
"203 432 LINE",
"208 432 LINE",
"293 21 LINE",
"275 -63 LINE SMOOTH",
"267 -102 OFFCURVE",
"262 -116 OFFCURVE",
"204 -116 CURVE",
"187 -196 LINE"
);
}
);
width = 503;
}
);
leftKerningGroup = H;
rightKerningGroup = H;
unicode = 014A;
},
{
glyphname = Nhookleft;
layers = (
{
anchors = (
{
name = bottom;
position = "{315, 0}";
},
{
name = top;
position = "{461, 688}";
}
);
background = {
paths = (
{
closed = 1;
nodes = (
"12 -200 OFFCURVE",
"57 -195 OFFCURVE",
"76 -103 CURVE SMOOTH",
"230 622 LINE",
"234 622 LINE",
"536 0 LINE",
"571 0 LINE",
"717 688 LINE",
"682 688 LINE",
"550 66 LINE",
"546 66 LINE",
"244 688 LINE",
"209 688 LINE",
"39 -113 LINE SMOOTH",
"30 -158 OFFCURVE",
"18 -170 OFFCURVE",
"-75 -170 CURVE",
"-81 -200 LINE"
);
}
);
};
layerId = "CD898CA3-FB76-4965-A23E-9AA06D1CE2B1";
paths = (
{
closed = 1;
nodes = (
"21 -200 OFFCURVE",
"57 -195 OFFCURVE",
"76 -103 CURVE SMOOTH",
"230 622 LINE",
"234 622 LINE",
"536 0 LINE",
"571 0 LINE",
"717 688 LINE",
"682 688 LINE",
"550 66 LINE",
"546 66 LINE",
"244 688 LINE",
"209 688 LINE",
"42 -103 LINE SMOOTH",
"30 -158 OFFCURVE",
"18 -170 OFFCURVE",
"-75 -170 CURVE",
"-81 -200 LINE"
);
}
);
width = 738;
},
{
anchors = (
{
name = bottom;
position = "{299, 0}";
},
{
name = top;
position = "{445, 688}";
}
);
layerId = "B4DE345C-CFDB-4A54-B125-3358BD91D59F";
paths = (
{
closed = 1;
nodes = (
"136 -199 OFFCURVE",
"184 -179 OFFCURVE",
"230 37 CURVE SMOOTH",
"290 321 LINE",
"296 321 LINE",
"387 0 LINE",
"602 0 LINE",
"748 688 LINE",
"525 688 LINE",
"469 422 LINE",
"462 422 LINE",
"384 688 LINE",
"145 688 LINE",
"-3 -10 LINE SMOOTH",
"-11 -45 OFFCURVE",
"-17 -61 OFFCURVE",
"-86 -61 CURVE",
"-115 -199 LINE"
);
}
);
width = 705;
},
{
anchors = (
{
name = bottom;
position = "{165, 0}";
},
{
name = top;
position = "{311, 688}";
}
);
layerId = "47937877-2CF8-49A0-A6AF-2B1A27CB5FF4";
paths = (
{
closed = 1;
nodes = (
"49 -198 OFFCURVE",
"90 -179 OFFCURVE",
"135 35 CURVE SMOOTH",
"193 304 LINE",
"197 304 LINE",
"219 0 LINE",
"351 0 LINE",
"497 688 LINE",
"351 688 LINE",
"295 422 LINE",
"289 422 LINE",
"269 688 LINE",
"128 688 LINE",
"-26 -39 LINE SMOOTH",
"-34 -73 OFFCURVE",
"-37 -89 OFFCURVE",
"-83 -89 CURVE",
"-106 -198 LINE"
);
}
);
width = 437;
},
{
anchors = (
{
name = bottom;
position = "{163, 0}";
},
{
name = top;
position = "{309, 688}";
}
);
layerId = "FA01890A-5211-455F-9108-1209F66A586C";
paths = (
{
closed = 1;
nodes = (
"-23 -190 OFFCURVE",
"8 -185 OFFCURVE",
"27 -93 CURVE SMOOTH",
"174 595 LINE",
"178 595 LINE",
"273 0 LINE",
"316 0 LINE",
"462 688 LINE",
"427 688 LINE",
"301 93 LINE",
"297 93 LINE",
"201 688 LINE",
"158 688 LINE",
"-10 -103 LINE SMOOTH",
"-19 -145 OFFCURVE",
"-27 -160 OFFCURVE",
"-83 -160 CURVE",
"-89 -190 LINE"
);
}
);
width = 434;
},
{
anchors = (
{
name = bottom;
position = "{322, 0}";
},
{
name = top;
position = "{468, 688}";
}
);
layerId = "20A7088A-67D7-4614-84CF-19C576DDC019";
paths = (
{
closed = 1;
nodes = (
"75 -200 OFFCURVE",
"122 -187 OFFCURVE",
"155 -34 CURVE SMOOTH",
"264 478 LINE",
"269 478 LINE",
"487 0 LINE",
"609 0 LINE",
"755 688 LINE",
"632 688 LINE",
"536 234 LINE",
"531 234 LINE",
"318 688 LINE",
"184 688 LINE",
"26 -58 LINE SMOOTH",
"17 -98 OFFCURVE",
"7 -112 OFFCURVE",
"-79 -112 CURVE",
"-97 -200 LINE"
);
}
);
width = 751;
},
{
anchors = (
{
name = bottom;
position = "{198, 0}";
},
{
name = top;
position = "{344, 688}";
}
);
background = {
paths = (
{
closed = 1;
nodes = (
"46 -196 OFFCURVE",
"68 -184 OFFCURVE",
"103 -20 CURVE SMOOTH",
"215 510 LINE",
"109 510 LINE",
"-12 -63 LINE SMOOTH",
"-20 -102 OFFCURVE",
"-25 -116 OFFCURVE",
"-83 -116 CURVE",
"-100 -196 LINE"
);
}
);
};
layerId = "C784E404-3F19-435D-96BB-DB276E1DA8D0";
paths = (
{
closed = 1;
nodes = (
"44 -196 OFFCURVE",
"72 -182 OFFCURVE",
"106 -20 CURVE SMOOTH",
"203 432 LINE",
"208 432 LINE",
"293 0 LINE",
"396 0 LINE",
"542 688 LINE",
"435 688 LINE",
"348 279 LINE",
"342 279 LINE",
"260 688 LINE",
"149 688 LINE",
"-11 -63 LINE SMOOTH",
"-19 -102 OFFCURVE",
"-25 -116 OFFCURVE",
"-83 -116 CURVE",
"-100 -196 LINE"
);
}
);
width = 503;
}
);
leftKerningGroup = j;
rightKerningGroup = H;
unicode = 019D;
},
{
glyphname = O;
layers = (
{
anchors = (
{
name = bottom;
position = "{309, 0}";
},
{
name = center;
position = "{382, 344}";
},
{
name = ogonek;
position = "{351, 0}";
},
{
name = top;
position = "{455, 688}";
},
{
name = topleft;
position = "{112, 688}";
},
{
name = topright;
position = "{574, 688}";
}
);
layerId = "CD898CA3-FB76-4965-A23E-9AA06D1CE2B1";
paths = (
{
closed = 1;
nodes = (
"566 -8 OFFCURVE",
"586 31 OFFCURVE",
"653 344 CURVE SMOOTH",
"674 442 OFFCURVE",
"686 512 OFFCURVE",
"686 564 CURVE SMOOTH",
"686 677 OFFCURVE",
"624 696 OFFCURVE",
"444 696 CURVE SMOOTH",
"194 696 OFFCURVE",
"176 664 OFFCURVE",
"107 344 CURVE SMOOTH",
"86 245 OFFCURVE",
"73 173 OFFCURVE",
"73 122 CURVE SMOOTH",
"73 10 OFFCURVE",
"135 -8 OFFCURVE",
"315 -8 CURVE SMOOTH"
);
},
{
closed = 1;
nodes = (
"165 26 OFFCURVE",
"109 29 OFFCURVE",
"109 128 CURVE SMOOTH",
"109 175 OFFCURVE",
"122 243 OFFCURVE",
"143 344 CURVE SMOOTH",
"208 656 OFFCURVE",
"230 662 OFFCURVE",
"447 662 CURVE SMOOTH",
"594 662 OFFCURVE",
"650 659 OFFCURVE",
"650 559 CURVE SMOOTH",
"650 512 OFFCURVE",
"638 444 OFFCURVE",
"617 344 CURVE SMOOTH",
"550 32 OFFCURVE",
"529 26 OFFCURVE",
"312 26 CURVE SMOOTH"
);
}
);
width = 726;
},
{
anchors = (
{
name = bottom;
position = "{294, 0}";
},
{
name = center;
position = "{367, 344}";
},
{
name = ogonek;
position = "{398, 0}";
},
{
name = top;
position = "{440, 688}";
},
{
name = topleft;
position = "{112, 688}";
},
{
name = topright;
position = "{537, 688}";
}
);
background = {
paths = (
{
closed = 1;
nodes = (
"592 -8 OFFCURVE",
"613 73 OFFCURVE",
"671 344 CURVE SMOOTH",
"728 615 OFFCURVE",
"741 696 OFFCURVE",
"439 696 CURVE SMOOTH",
"137 696 OFFCURVE",
"117 615 OFFCURVE",
"60 344 CURVE SMOOTH",
"3 73 OFFCURVE",
"-11 -8 OFFCURVE",
"290 -8 CURVE SMOOTH"
);
},
{
closed = 1;
nodes = (
"255 159 OFFCURVE",
"256 163 OFFCURVE",
"295 344 CURVE SMOOTH",
"333 525 OFFCURVE",
"334 529 OFFCURVE",
"404 529 CURVE SMOOTH",
"474 529 OFFCURVE",
"474 525 OFFCURVE",
"436 344 CURVE SMOOTH",
"397 163 OFFCURVE",
"395 159 OFFCURVE",
"325 159 CURVE SMOOTH"
);
}
);
};
layerId = "B4DE345C-CFDB-4A54-B125-3358BD91D59F";
paths = (
{
closed = 1;
nodes = (
"594 -8 OFFCURVE",
"604 54 OFFCURVE",
"668 334 CURVE SMOOTH",
"688 422 OFFCURVE",
"700 489 OFFCURVE",
"700 541 CURVE SMOOTH",
"700 656 OFFCURVE",
"636 696 OFFCURVE",
"423 696 CURVE SMOOTH",
"136 696 OFFCURVE",
"116 632 OFFCURVE",
"63 354 CURVE SMOOTH",
"46 265 OFFCURVE",
"30 197 OFFCURVE",
"30 146 CURVE SMOOTH",
"30 32 OFFCURVE",
"95 -8 OFFCURVE",
"310 -8 CURVE SMOOTH"
);
},
{
closed = 1;
nodes = (
"285 159 OFFCURVE",
"268 160 OFFCURVE",
"268 194 CURVE SMOOTH",
"268 220 OFFCURVE",
"278 265 OFFCURVE",
"295 344 CURVE SMOOTH",
"333 525 OFFCURVE",
"334 529 OFFCURVE",
"404 529 CURVE SMOOTH",
"444 529 OFFCURVE",
"461 528 OFFCURVE",
"461 492 CURVE SMOOTH",
"461 466 OFFCURVE",
"452 420 OFFCURVE",
"436 344 CURVE SMOOTH",
"397 163 OFFCURVE",
"395 159 OFFCURVE",
"325 159 CURVE SMOOTH"
);
}
);
width = 695;
},
{
anchors = (
{
name = bottom;
position = "{154, 0}";
},
{
name = center;
position = "{227, 344}";
},
{
name = ogonek;
position = "{225, 0}";
},
{
name = top;
position = "{303, 688}";
},
{
name = topleft;
position = "{112, 688}";
},
{
name = topright;
position = "{316, 688}";
}
);
background = {
paths = (
{
closed = 1;
nodes = (
"341 -8 OFFCURVE",
"360 82 OFFCURVE",
"416 344 CURVE SMOOTH",
"471 607 OFFCURVE",
"490 696 OFFCURVE",
"306 696 CURVE SMOOTH",
"122 696 OFFCURVE",
"103 607 OFFCURVE",
"48 344 CURVE SMOOTH",
"-7 82 OFFCURVE",
"-26 -8 OFFCURVE",
"157 -8 CURVE SMOOTH"
);
},
{
closed = 1;
nodes = (
"156 131 OFFCURVE",
"157 133 OFFCURVE",
"202 344 CURVE SMOOTH",
"246 555 OFFCURVE",
"247 557 OFFCURVE",
"277 557 CURVE SMOOTH",
"307 557 OFFCURVE",
"306 555 OFFCURVE",
"262 344 CURVE SMOOTH",
"217 133 OFFCURVE",
"216 131 OFFCURVE",
"186 131 CURVE SMOOTH"
);
}
);
};
layerId = "47937877-2CF8-49A0-A6AF-2B1A27CB5FF4";
paths = (
{
closed = 1;
nodes = (
"351 -8 OFFCURVE",
"362 93 OFFCURVE",
"416 344 CURVE SMOOTH",
"438 446 OFFCURVE",
"453 522 OFFCURVE",
"453 576 CURVE SMOOTH",
"453 663 OFFCURVE",
"411 696 OFFCURVE",
"286 696 CURVE SMOOTH",
"116 696 OFFCURVE",
"103 606 OFFCURVE",
"48 344 CURVE SMOOTH",
"27 242 OFFCURVE",
"11 166 OFFCURVE",
"11 112 CURVE SMOOTH",
"11 26 OFFCURVE",
"53 -8 OFFCURVE",
"177 -8 CURVE SMOOTH"
);
},
{
closed = 1;
nodes = (
"173 131 OFFCURVE",
"165 131 OFFCURVE",
"165 150 CURVE SMOOTH",
"165 174 OFFCURVE",
"177 226 OFFCURVE",
"202 344 CURVE SMOOTH",
"246 555 OFFCURVE",
"247 557 OFFCURVE",
"277 557 CURVE SMOOTH",
"290 557 OFFCURVE",
"297 556 OFFCURVE",
"297 537 CURVE SMOOTH",
"297 514 OFFCURVE",
"287 461 OFFCURVE",
"262 344 CURVE SMOOTH",
"217 133 OFFCURVE",
"216 131 OFFCURVE",
"186 131 CURVE SMOOTH"
);
}
);
width = 416;
},
{
anchors = (
{
name = bottom;
position = "{160, 0}";
},
{
name = center;
position = "{233, 344}";
},
{
name = ogonek;
position = "{199, 0}";
},
{
name = top;
position = "{306, 688}";
},
{
name = topleft;
position = "{112, 688}";
},
{
name = topright;
position = "{355, 688}";
}
);
background = {
paths = (
{
closed = 1;
nodes = (
"305 -8 OFFCURVE",
"333 40 OFFCURVE",
"398 344 CURVE SMOOTH",
"462 648 OFFCURVE",
"454 696 OFFCURVE",
"308 696 CURVE SMOOTH",
"162 696 OFFCURVE",
"134 648 OFFCURVE",
"70 344 CURVE SMOOTH",
"6 40 OFFCURVE",
"14 -8 OFFCURVE",
"159 -8 CURVE SMOOTH"
);
},
{
closed = 1;
nodes = (
"57 26 OFFCURVE",
"41 41 OFFCURVE",
"106 344 CURVE SMOOTH",
"170 647 OFFCURVE",
"192 662 OFFCURVE",
"301 662 CURVE SMOOTH",
"410 662 OFFCURVE",
"426 647 OFFCURVE",
"362 344 CURVE SMOOTH",
"297 41 OFFCURVE",
"275 26 OFFCURVE",
"166 26 CURVE SMOOTH"
);
}
);
};
layerId = "FA01890A-5211-455F-9108-1209F66A586C";
paths = (
{
closed = 1;
nodes = (
"309 -8 OFFCURVE",
"336 40 OFFCURVE",
"398 344 CURVE SMOOTH",
"422 459 OFFCURVE",
"436 537 OFFCURVE",
"436 590 CURVE SMOOTH",
"436 677 OFFCURVE",
"396 696 OFFCURVE",
"298 696 CURVE SMOOTH",
"158 696 OFFCURVE",
"131 648 OFFCURVE",
"70 344 CURVE SMOOTH",
"46 229 OFFCURVE",
"32 150 OFFCURVE",
"32 97 CURVE SMOOTH",
"32 10 OFFCURVE",
"72 -8 OFFCURVE",
"169 -8 CURVE SMOOTH"
);
},
{
closed = 1;
nodes = (
"99 26 OFFCURVE",
"67 31 OFFCURVE",
"67 105 CURVE SMOOTH",
"67 151 OFFCURVE",
"81 225 OFFCURVE",
"106 344 CURVE SMOOTH",
"170 647 OFFCURVE",
"192 662 OFFCURVE",
"301 662 CURVE SMOOTH",
"368 662 OFFCURVE",
"399 656 OFFCURVE",
"399 582 CURVE SMOOTH",
"399 536 OFFCURVE",
"387 461 OFFCURVE",
"362 344 CURVE SMOOTH",
"297 41 OFFCURVE",
"274 26 OFFCURVE",
"166 26 CURVE SMOOTH"
);
}
);
width = 428;
},
{
anchors = (
{
name = bottom;
position = "{316, 0}";
},
{
name = center;
position = "{389, 344}";
},
{
name = ogonek;
position = "{383, 0}";
},
{
name = top;
position = "{462, 688}";
},
{
name = topleft;
position = "{112, 688}";
},
{
name = topright;
position = "{575, 688}";
}
);
layerId = "20A7088A-67D7-4614-84CF-19C576DDC019";
paths = (
{
closed = 1;
nodes = (
"602 -8 OFFCURVE",
"620 49 OFFCURVE",
"685 341 CURVE SMOOTH",
"704 426 OFFCURVE",
"714 488 OFFCURVE",
"714 537 CURVE SMOOTH",
"714 662 OFFCURVE",
"651 696 OFFCURVE",
"444 696 CURVE SMOOTH",
"166 696 OFFCURVE",
"145 638 OFFCURVE",
"85 347 CURVE SMOOTH",
"67 261 OFFCURVE",
"55 198 OFFCURVE",
"55 150 CURVE SMOOTH",
"55 26 OFFCURVE",
"118 -8 OFFCURVE",
"326 -8 CURVE SMOOTH"
);
},
{
closed = 1;
nodes = (
"226 96 OFFCURVE",
"186 98 OFFCURVE",
"186 169 CURVE SMOOTH",
"186 206 OFFCURVE",
"197 261 OFFCURVE",
"215 344 CURVE SMOOTH",
"266 587 OFFCURVE",
"276 592 OFFCURVE",
"437 592 CURVE SMOOTH",
"542 592 OFFCURVE",
"581 590 OFFCURVE",
"581 518 CURVE SMOOTH",
"581 480 OFFCURVE",
"572 425 OFFCURVE",
"554 344 CURVE SMOOTH",
"502 101 OFFCURVE",
"491 96 OFFCURVE",
"332 96 CURVE SMOOTH"
);
}
);
width = 739;
},
{
anchors = (
{
name = bottom;
position = "{191, 0}";
},
{
name = center;
position = "{264, 344}";
},
{
name = ogonek;
position = "{250, 0}";
},
{
name = top;
position = "{337, 688}";
},
{
name = topleft;
position = "{112, 688}";
},
{
name = topright;
position = "{381, 688}";
}
);
layerId = "C784E404-3F19-435D-96BB-DB276E1DA8D0";
paths = (
{
closed = 1;
nodes = (
"391 -8 OFFCURVE",
"407 65 OFFCURVE",
"467 343 CURVE SMOOTH",
"489 445 OFFCURVE",
"503 518 OFFCURVE",
"503 569 CURVE SMOOTH",
"503 666 OFFCURVE",
"457 696 OFFCURVE",
"324 696 CURVE SMOOTH",
"139 696 OFFCURVE",
"121 626 OFFCURVE",
"62 345 CURVE SMOOTH",
"41 243 OFFCURVE",
"26 170 OFFCURVE",
"26 118 CURVE SMOOTH",
"26 22 OFFCURVE",
"74 -8 OFFCURVE",
"204 -8 CURVE SMOOTH"
);
},
{
closed = 1;
nodes = (
"162 91 OFFCURVE",
"140 93 OFFCURVE",
"140 140 CURVE SMOOTH",
"140 175 OFFCURVE",
"151 235 OFFCURVE",
"175 344 CURVE SMOOTH",
"226 590 OFFCURVE",
"237 597 OFFCURVE",
"318 597 CURVE SMOOTH",
"366 597 OFFCURVE",
"388 594 OFFCURVE",
"388 547 CURVE SMOOTH",
"388 512 OFFCURVE",
"377 452 OFFCURVE",
"354 344 CURVE SMOOTH",
"302 98 OFFCURVE",
"291 91 OFFCURVE",
"210 91 CURVE SMOOTH"
);
}
);
width = 489;
}
);
leftKerningGroup = O;
rightKerningGroup = O;
unicode = 004F;
},
{
color = 3;
glyphname = Oslash;
layers = (
{
anchors = (
{
name = bottom;
position = "{309, 0}";
},
{
name = top;
position = "{455, 688}";
}
);
background = {
paths = (
{
closed = 1;
nodes = (
"737 743 LINE",
"699 743 LINE",
"639 672 LINE",
"602 691 OFFCURVE",
"543 696 OFFCURVE",
"454 696 CURVE SMOOTH",
"197 696 OFFCURVE",
"173 657 OFFCURVE",
"107 344 CURVE SMOOTH",
"69 167 OFFCURVE",
"55 77 OFFCURVE",
"96 33 CURVE",
"22 -55 LINE",
"59 -55 LINE",
"119 16 LINE",
"156 -3 OFFCURVE",
"215 -8 OFFCURVE",
"305 -8 CURVE SMOOTH",
"562 -8 OFFCURVE",
"586 31 OFFCURVE",
"653 344 CURVE SMOOTH",
"690 521 OFFCURVE",
"704 611 OFFCURVE",
"663 655 CURVE"
);
},
{
closed = 1;
nodes = (
"209 656 OFFCURVE",
"230 662 OFFCURVE",
"447 662 CURVE SMOOTH",
"529 662 OFFCURVE",
"583 661 OFFCURVE",
"614 643 CURVE",
"123 64 LINE",
"96 104 OFFCURVE",
"108 183 OFFCURVE",
"143 344 CURVE SMOOTH"
);
},
{
closed = 1;
nodes = (
"229 26 OFFCURVE",
"175 27 OFFCURVE",
"144 45 CURVE",
"636 624 LINE",
"663 584 OFFCURVE",
"651 505 OFFCURVE",
"617 344 CURVE SMOOTH",
"550 32 OFFCURVE",
"529 26 OFFCURVE",
"312 26 CURVE SMOOTH"
);
}
);
};
components = (
{
name = O;
}
);
layerId = "CD898CA3-FB76-4965-A23E-9AA06D1CE2B1";
paths = (
{
closed = 1;
nodes = (
"59 -55 LINE",
"736 743 LINE",
"696 743 LINE",
"20 -55 LINE"
);
}
);
width = 726;
},
{
anchors = (
{
name = bottom;
position = "{294, 0}";
},
{
name = top;
position = "{440, 688}";
}
);
background = {
paths = (
{
closed = 1;
nodes = (
"755 743 LINE",
"581 743 LINE",
"541 692 LINE",
"512 695 OFFCURVE",
"478 696 OFFCURVE",
"439 696 CURVE SMOOTH",
"137 696 OFFCURVE",
"117 615 OFFCURVE",
"60 344 CURVE SMOOTH",
"27 191 OFFCURVE",
"9 98 OFFCURVE",
"52 47 CURVE",
"-24 -55 LINE",
"148 -55 LINE",
"187 -4 LINE",
"216 -7 OFFCURVE",
"250 -8 OFFCURVE",
"290 -8 CURVE SMOOTH",
"592 -8 OFFCURVE",
"613 73 OFFCURVE",
"671 344 CURVE SMOOTH",
"703 497 OFFCURVE",
"722 589 OFFCURVE",
"677 641 CURVE"
);
},
{
closed = 1;
nodes = (
"255 159 OFFCURVE",
"256 163 OFFCURVE",
"295 344 CURVE SMOOTH",
"333 525 OFFCURVE",
"334 529 OFFCURVE",
"404 529 CURVE SMOOTH",
"474 529 OFFCURVE",
"474 525 OFFCURVE",
"436 344 CURVE SMOOTH",
"397 163 OFFCURVE",
"395 159 OFFCURVE",
"325 159 CURVE SMOOTH"
);
}
);
};
components = (
{
name = O;
}
);
layerId = "B4DE345C-CFDB-4A54-B125-3358BD91D59F";
paths = (
{
closed = 1;
nodes = (
"147 -55 LINE",
"752 743 LINE",
"575 743 LINE",
"-29 -55 LINE"
);
}
);
width = 695;
},
{
anchors = (
{
name = bottom;
position = "{154, 0}";
},
{
name = top;
position = "{300, 688}";
}
);
components = (
{
name = O;
}
);
layerId = "47937877-2CF8-49A0-A6AF-2B1A27CB5FF4";
paths = (
{
closed = 1;
nodes = (
"91 -55 LINE",
"501 743 LINE",
"373 743 LINE",
"-37 -55 LINE"
);
}
);
width = 416;
},
{
anchors = (
{
name = bottom;
position = "{160, 0}";
},
{
name = top;
position = "{306, 688}";
}
);
background = {
paths = (
{
closed = 1;
nodes = (
"482 743 LINE",
"447 743 LINE",
"408 675 LINE",
"387 691 OFFCURVE",
"354 696 OFFCURVE",
"308 696 CURVE SMOOTH",
"162 696 OFFCURVE",
"134 648 OFFCURVE",
"70 344 CURVE SMOOTH",
"34 176 OFFCURVE",
"20 87 OFFCURVE",
"40 40 CURVE",
"-14 -55 LINE",
"20 -55 LINE",
"59 13 LINE",
"80 -3 OFFCURVE",
"113 -8 OFFCURVE",
"159 -8 CURVE SMOOTH",
"305 -8 OFFCURVE",
"333 40 OFFCURVE",
"398 344 CURVE SMOOTH",
"433 512 OFFCURVE",
"447 601 OFFCURVE",
"427 648 CURVE"
);
},
{
closed = 1;
nodes = (
"170 647 OFFCURVE",
"192 662 OFFCURVE",
"301 662 CURVE SMOOTH",
"346 662 OFFCURVE",
"375 661 OFFCURVE",
"390 644 CURVE",
"64 82 LINE",
"61 126 OFFCURVE",
"76 204 OFFCURVE",
"106 344 CURVE SMOOTH"
);
},
{
closed = 1;
nodes = (
"297 41 OFFCURVE",
"275 26 OFFCURVE",
"166 26 CURVE SMOOTH",
"121 26 OFFCURVE",
"92 27 OFFCURVE",
"77 44 CURVE",
"403 606 LINE",
"406 562 OFFCURVE",
"391 484 OFFCURVE",
"362 344 CURVE SMOOTH"
);
}
);
};
components = (
{
name = O;
}
);
layerId = "FA01890A-5211-455F-9108-1209F66A586C";
paths = (
{
closed = 1;
nodes = (
"19 -55 LINE",
"481 743 LINE",
"445 743 LINE",
"-17 -55 LINE"
);
}
);
width = 428;
},
{
anchors = (
{
name = bottom;
position = "{316, 0}";
},
{
name = top;
position = "{462, 688}";
}
);
components = (
{
name = O;
}
);
layerId = "20A7088A-67D7-4614-84CF-19C576DDC019";
paths = (
{
closed = 1;
nodes = (
"119 -55 LINE",
"759 743 LINE",
"649 743 LINE",
"10 -55 LINE"
);
}
);
width = 739;
},
{
anchors = (
{
name = bottom;
position = "{191, 0}";
},
{
name = top;
position = "{337, 688}";
}
);
components = (
{
name = O;
}
);
layerId = "C784E404-3F19-435D-96BB-DB276E1DA8D0";
paths = (
{
closed = 1;
nodes = (
"65 -55 LINE",
"565 743 LINE",
"468 743 LINE",
"-32 -55 LINE"
);
}
);
width = 489;
},
{
anchors = (
{
name = bottom;
position = "{309, 0}";
},
{
name = top;
position = "{455, 688}";
}
);
associatedMasterId = "CD898CA3-FB76-4965-A23E-9AA06D1CE2B1";
background = {
paths = (
{
closed = 1;
nodes = (
"737 743 LINE",
"699 743 LINE",
"639 672 LINE",
"602 691 OFFCURVE",
"543 696 OFFCURVE",
"454 696 CURVE SMOOTH",
"197 696 OFFCURVE",
"173 657 OFFCURVE",
"107 344 CURVE SMOOTH",
"69 167 OFFCURVE",
"55 77 OFFCURVE",
"96 33 CURVE",
"22 -55 LINE",
"59 -55 LINE",
"119 16 LINE",
"156 -3 OFFCURVE",
"215 -8 OFFCURVE",
"305 -8 CURVE SMOOTH",
"562 -8 OFFCURVE",
"586 31 OFFCURVE",
"653 344 CURVE SMOOTH",
"690 521 OFFCURVE",
"704 611 OFFCURVE",
"663 655 CURVE"
);
},
{
closed = 1;
nodes = (
"209 656 OFFCURVE",
"230 662 OFFCURVE",
"447 662 CURVE SMOOTH",
"529 662 OFFCURVE",
"583 661 OFFCURVE",
"614 643 CURVE",
"123 64 LINE",
"96 104 OFFCURVE",
"108 183 OFFCURVE",
"143 344 CURVE SMOOTH"
);
},
{
closed = 1;
nodes = (
"229 26 OFFCURVE",
"175 27 OFFCURVE",
"144 45 CURVE",
"636 624 LINE",
"663 584 OFFCURVE",
"651 505 OFFCURVE",
"617 344 CURVE SMOOTH",
"550 32 OFFCURVE",
"529 26 OFFCURVE",
"312 26 CURVE SMOOTH"
);
}
);
};
components = (
{
name = O;
}
);
layerId = "6052672B-49E9-4C88-9686-02FCB99A5FB8";
name = "Light [110]";
paths = (
{
closed = 1;
nodes = (
"736 743 LINE",
"696 743 LINE",
"621 654 LINE",
"644 635 LINE"
);
},
{
closed = 1;
nodes = (
"59 -55 LINE",
"131 30 LINE",
"107 47 LINE",
"20 -55 LINE"
);
}
);
width = 726;
},
{
anchors = (
{
name = bottom;
position = "{316, 0}";
},
{
name = top;
position = "{462, 688}";
}
);
associatedMasterId = "20A7088A-67D7-4614-84CF-19C576DDC019";
components = (
{
name = O;
}
);
layerId = "A96E07FD-91B8-42F4-A79A-DDD76C4C249C";
name = "SemiBold [110]";
paths = (
{
closed = 1;
nodes = (
"759 743 LINE",
"649 743 LINE",
"562 635 LINE",
"632 585 LINE"
);
},
{
closed = 1;
nodes = (
"119 -55 LINE",
"198 43 LINE",
"130 95 LINE",
"10 -55 LINE"
);
}
);
width = 739;
},
{
anchors = (
{
name = bottom;
position = "{294, 0}";
},
{
name = top;
position = "{440, 688}";
}
);
associatedMasterId = "B4DE345C-CFDB-4A54-B125-3358BD91D59F";
background = {
paths = (
{
closed = 1;
nodes = (
"755 743 LINE",
"581 743 LINE",
"541 692 LINE",
"512 695 OFFCURVE",
"478 696 OFFCURVE",
"439 696 CURVE SMOOTH",
"137 696 OFFCURVE",
"117 615 OFFCURVE",
"60 344 CURVE SMOOTH",
"27 191 OFFCURVE",
"9 98 OFFCURVE",
"52 47 CURVE",
"-24 -55 LINE",
"148 -55 LINE",
"187 -4 LINE",
"216 -7 OFFCURVE",
"250 -8 OFFCURVE",
"290 -8 CURVE SMOOTH",
"592 -8 OFFCURVE",
"613 73 OFFCURVE",
"671 344 CURVE SMOOTH",
"703 497 OFFCURVE",
"722 589 OFFCURVE",
"677 641 CURVE"
);
},
{
closed = 1;
nodes = (
"255 159 OFFCURVE",
"256 163 OFFCURVE",
"295 344 CURVE SMOOTH",
"333 525 OFFCURVE",
"334 529 OFFCURVE",
"404 529 CURVE SMOOTH",
"474 529 OFFCURVE",
"474 525 OFFCURVE",
"436 344 CURVE SMOOTH",
"397 163 OFFCURVE",
"395 159 OFFCURVE",
"325 159 CURVE SMOOTH"
);
}
);
};
components = (
{
name = O;
}
);
layerId = "8347E03E-2B0A-4360-8ECD-080A8A2BBC1A";
name = "Bold [110]";
paths = (
{
closed = 1;
nodes = (
"752 743 LINE",
"575 743 LINE",
"476 612 LINE",
"592 532 LINE"
);
},
{
closed = 1;
nodes = (
"147 -55 LINE",
"230 54 LINE",
"118 139 LINE",
"-29 -55 LINE"
);
}
);
width = 695;
},
{
anchors = (
{
name = bottom;
position = "{160, 0}";
},
{
name = top;
position = "{306, 688}";
}
);
associatedMasterId = "FA01890A-5211-455F-9108-1209F66A586C";
background = {
paths = (
{
closed = 1;
nodes = (
"482 743 LINE",
"447 743 LINE",
"408 675 LINE",
"387 691 OFFCURVE",
"354 696 OFFCURVE",
"308 696 CURVE SMOOTH",
"162 696 OFFCURVE",
"134 648 OFFCURVE",
"70 344 CURVE SMOOTH",
"34 176 OFFCURVE",
"20 87 OFFCURVE",
"40 40 CURVE",
"-14 -55 LINE",
"20 -55 LINE",
"59 13 LINE",
"80 -3 OFFCURVE",
"113 -8 OFFCURVE",
"159 -8 CURVE SMOOTH",
"305 -8 OFFCURVE",
"333 40 OFFCURVE",
"398 344 CURVE SMOOTH",
"433 512 OFFCURVE",
"447 601 OFFCURVE",
"427 648 CURVE"
);
},
{
closed = 1;
nodes = (
"170 647 OFFCURVE",
"192 662 OFFCURVE",
"301 662 CURVE SMOOTH",
"346 662 OFFCURVE",
"375 661 OFFCURVE",
"390 644 CURVE",
"64 82 LINE",
"61 126 OFFCURVE",
"76 204 OFFCURVE",
"106 344 CURVE SMOOTH"
);
},
{
closed = 1;
nodes = (
"297 41 OFFCURVE",
"275 26 OFFCURVE",
"166 26 CURVE SMOOTH",
"121 26 OFFCURVE",
"92 27 OFFCURVE",
"77 44 CURVE",
"403 606 LINE",
"406 562 OFFCURVE",
"391 484 OFFCURVE",
"362 344 CURVE SMOOTH"
);
}
);
};
components = (
{
name = O;
}
);
layerId = "3E4B205E-FC98-4DD1-A15B-F24F0DE82E20";
name = "Light Condensed [110]";
paths = (
{
closed = 1;
nodes = (
"481 743 LINE",
"445 743 LINE",
"393 654 LINE",
"414 628 LINE"
);
},
{
closed = 1;
nodes = (
"19 -55 LINE",
"68 30 LINE",
"50 60 LINE",
"-17 -55 LINE"
);
}
);
width = 428;
},
{
anchors = (
{
name = bottom;
position = "{191, 0}";
},
{
name = top;
position = "{337, 688}";
}
);
associatedMasterId = "C784E404-3F19-435D-96BB-DB276E1DA8D0";
components = (
{
name = O;
}
);
layerId = "299EC1DB-DF23-4C18-9D58-E973B6CD04FB";
name = "Semi Condensed [110]";
paths = (
{
closed = 1;
nodes = (
"565 743 LINE",
"468 743 LINE",
"400 634 LINE",
"462 579 LINE"
);
},
{
closed = 1;
nodes = (
"65 -55 LINE",
"132 51 LINE",
"74 114 LINE",
"-32 -55 LINE"
);
}
);
width = 489;
},
{
anchors = (
{
name = bottom;
position = "{154, 0}";
},
{
name = top;
position = "{300, 688}";
}
);
associatedMasterId = "47937877-2CF8-49A0-A6AF-2B1A27CB5FF4";
components = (
{
name = O;
}
);
layerId = "0209B3C5-03AB-47B5-8BAF-AA0EE6F78D86";
name = "Bold Condensed [110]";
paths = (
{
closed = 1;
nodes = (
"501 743 LINE",
"373 743 LINE",
"314 628 LINE",
"411 568 LINE"
);
},
{
closed = 1;
nodes = (
"91 -55 LINE",
"152 64 LINE",
"57 127 LINE",
"-37 -55 LINE"
);
}
);
width = 416;
}
);
leftKerningGroup = O;
rightKerningGroup = O;
unicode = 00D8;
},
{
glyphname = OE;
layers = (
{
anchors = (
{
name = bottom;
position = "{483, 0}";
},
{
name = top;
position = "{629, 688}";
}
);
layerId = "CD898CA3-FB76-4965-A23E-9AA06D1CE2B1";
paths = (
{
closed = 1;
nodes = (
"959 0 LINE",
"967 34 LINE",
"590 34 LINE SMOOTH",
"559 34 OFFCURVE",
"529 32 OFFCURVE",
"516 30 CURVE",
"589 68 OFFCURVE",
"612 156 OFFCURVE",
"650 331 CURVE",
"983 331 LINE",
"990 365 LINE",
"657 365 LINE",
"674 449 OFFCURVE",
"686 512 OFFCURVE",
"686 559 CURVE SMOOTH",
"686 606 OFFCURVE",
"673 639 OFFCURVE",
"644 658 CURVE",
"657 656 OFFCURVE",
"685 654 OFFCURVE",
"716 654 CURVE SMOOTH",
"1098 654 LINE",
"1106 688 LINE",
"443 688 LINE SMOOTH",
"193 688 OFFCURVE",
"171 650 OFFCURVE",
"107 344 CURVE SMOOTH",
"86 245 OFFCURVE",
"73 176 OFFCURVE",
"73 126 CURVE SMOOTH",
"73 19 OFFCURVE",
"135 0 OFFCURVE",
"316 0 CURVE SMOOTH"
);
},
{
closed = 1;
nodes = (
"166 34 OFFCURVE",
"110 37 OFFCURVE",
"110 135 CURVE SMOOTH",
"110 181 OFFCURVE",
"122 247 OFFCURVE",
"143 344 CURVE SMOOTH",
"207 648 OFFCURVE",
"228 654 OFFCURVE",
"445 654 CURVE SMOOTH",
"593 654 OFFCURVE",
"649 651 OFFCURVE",
"649 552 CURVE SMOOTH",
"649 506 OFFCURVE",
"637 440 OFFCURVE",
"617 344 CURVE SMOOTH",
"552 40 OFFCURVE",
"531 34 OFFCURVE",
"314 34 CURVE SMOOTH"
);
}
);
width = 1073;
},
{
anchors = (
{
name = bottom;
position = "{428, 0}";
},
{
name = top;
position = "{574, 688}";
}
);
background = {
paths = (
{
closed = 1;
nodes = (
"873 0 LINE",
"909 167 LINE",
"690 167 LINE SMOOTH",
"652 167 OFFCURVE",
"626 162 OFFCURVE",
"617 159 CURVE",
"635 189 OFFCURVE",
"647 225 OFFCURVE",
"656 266 CURVE",
"883 266 LINE",
"918 429 LINE",
"691 429 LINE",
"696 467 OFFCURVE",
"698 500 OFFCURVE",
"696 529 CURVE",
"707 524 OFFCURVE",
"737 521 OFFCURVE",
"765 521 CURVE SMOOTH",
"984 521 LINE",
"1020 688 LINE",
"441 688 LINE SMOOTH",
"139 688 OFFCURVE",
"119 609 OFFCURVE",
"63 344 CURVE SMOOTH",
"7 79 OFFCURVE",
"-7 0 OFFCURVE",
"294 0 CURVE"
);
},
{
closed = 1;
nodes = (
"260 167 OFFCURVE",
"261 171 OFFCURVE",
"298 344 CURVE SMOOTH",
"334 517 OFFCURVE",
"335 521 OFFCURVE",
"405 521 CURVE SMOOTH",
"475 521 OFFCURVE",
"475 517 OFFCURVE",
"439 344 CURVE SMOOTH",
"402 171 OFFCURVE",
"400 167 OFFCURVE",
"330 167 CURVE SMOOTH"
);
}
);
};
layerId = "B4DE345C-CFDB-4A54-B125-3358BD91D59F";
paths = (
{
closed = 1;
nodes = (
"870 0 LINE",
"906 167 LINE",
"687 167 LINE SMOOTH",
"649 167 OFFCURVE",
"623 162 OFFCURVE",
"614 159 CURVE",
"632 189 OFFCURVE",
"644 225 OFFCURVE",
"653 266 CURVE",
"880 266 LINE",
"915 429 LINE",
"688 429 LINE",
"692 457 OFFCURVE",
"694 483 OFFCURVE",
"694 506 CURVE SMOOTH",
"694 514 OFFCURVE",
"693 521 OFFCURVE",
"693 529 CURVE",
"704 524 OFFCURVE",
"734 521 OFFCURVE",
"762 521 CURVE SMOOTH",
"981 521 LINE",
"1017 688 LINE",
"418 688 LINE SMOOTH",
"132 688 OFFCURVE",
"117 613 OFFCURVE",
"64 364 CURVE SMOOTH",
"46 278 OFFCURVE",
"32 212 OFFCURVE",
"32 161 CURVE SMOOTH",
"32 42 OFFCURVE",
"88 0 OFFCURVE",
"291 0 CURVE"
);
},
{
closed = 1;
nodes = (
"287 167 OFFCURVE",
"270 168 OFFCURVE",
"270 202 CURVE SMOOTH",
"270 227 OFFCURVE",
"279 270 OFFCURVE",
"295 344 CURVE SMOOTH",
"331 517 OFFCURVE",
"332 521 OFFCURVE",
"402 521 CURVE SMOOTH",
"443 521 OFFCURVE",
"460 519 OFFCURVE",
"460 484 CURVE SMOOTH",
"460 459 OFFCURVE",
"451 416 OFFCURVE",
"436 344 CURVE SMOOTH",
"399 171 OFFCURVE",
"397 167 OFFCURVE",
"327 167 CURVE SMOOTH"
);
}
);
width = 965;
},
{
anchors = (
{
name = bottom;
position = "{238, 0}";
},
{
name = top;
position = "{384, 688}";
}
);
background = {
paths = (
{
closed = 1;
nodes = (
"482 0 LINE",
"512 139 LINE",
"386 139 LINE SMOOTH",
"366 139 OFFCURVE",
"346 137 OFFCURVE",
"335 135 CURVE",
"352 173 OFFCURVE",
"365 220 OFFCURVE",
"378 278 CURVE",
"526 278 LINE",
"556 417 LINE",
"407 417 LINE",
"416 471 OFFCURVE",
"423 516 OFFCURVE",
"424 553 CURVE",
"435 551 OFFCURVE",
"455 549 OFFCURVE",
"473 549 CURVE SMOOTH",
"599 549 LINE",
"629 688 LINE",
"282 688 LINE SMOOTH",
"98 688 OFFCURVE",
"79 601 OFFCURVE",
"25 344 CURVE SMOOTH",
"-29 88 OFFCURVE",
"-48 0 OFFCURVE",
"135 0 CURVE"
);
},
{
closed = 1;
nodes = (
"135 139 OFFCURVE",
"135 141 OFFCURVE",
"179 344 CURVE SMOOTH",
"222 547 OFFCURVE",
"222 549 OFFCURVE",
"252 549 CURVE SMOOTH",
"282 549 OFFCURVE",
"282 547 OFFCURVE",
"239 344 CURVE SMOOTH",
"195 141 OFFCURVE",
"195 139 OFFCURVE",
"165 139 CURVE SMOOTH"
);
}
);
};
layerId = "47937877-2CF8-49A0-A6AF-2B1A27CB5FF4";
paths = (
{
closed = 1;
nodes = (
"505 0 LINE",
"535 139 LINE",
"409 139 LINE SMOOTH",
"389 139 OFFCURVE",
"369 137 OFFCURVE",
"358 135 CURVE",
"375 173 OFFCURVE",
"388 220 OFFCURVE",
"401 278 CURVE",
"549 278 LINE",
"579 417 LINE",
"430 417 LINE",
"439 460 OFFCURVE",
"444 495 OFFCURVE",
"445 535 CURVE SMOOTH",
"445 541 OFFCURVE",
"445 547 OFFCURVE",
"445 553 CURVE",
"456 551 OFFCURVE",
"477 549 OFFCURVE",
"496 549 CURVE SMOOTH",
"622 549 LINE",
"652 688 LINE",
"295 688 LINE SMOOTH",
"118 688 OFFCURVE",
"109 616 OFFCURVE",
"48 344 CURVE SMOOTH",
"26 246 OFFCURVE",
"13 173 OFFCURVE",
"13 122 CURVE SMOOTH",
"13 34 OFFCURVE",
"49 0 OFFCURVE",
"168 0 CURVE SMOOTH"
);
},
{
closed = 1;
nodes = (
"174 139 OFFCURVE",
"167 139 OFFCURVE",
"167 159 CURVE SMOOTH",
"167 182 OFFCURVE",
"178 232 OFFCURVE",
"202 344 CURVE SMOOTH",
"245 547 OFFCURVE",
"245 549 OFFCURVE",
"275 549 CURVE SMOOTH",
"289 549 OFFCURVE",
"296 548 OFFCURVE",
"296 529 CURVE SMOOTH",
"296 505 OFFCURVE",
"286 454 OFFCURVE",
"262 344 CURVE SMOOTH",
"218 141 OFFCURVE",
"218 139 OFFCURVE",
"188 139 CURVE SMOOTH"
);
}
);
width = 581;
},
{
anchors = (
{
name = bottom;
position = "{250, 0}";
},
{
name = top;
position = "{396, 688}";
}
);
background = {
paths = (
{
closed = 1;
nodes = (
"504 0 LINE",
"512 34 LINE",
"312 34 LINE SMOOTH",
"294 34 OFFCURVE",
"270 32 OFFCURVE",
"258 30 CURVE",
"308 66 OFFCURVE",
"337 157 OFFCURVE",
"375 331 CURVE",
"547 331 LINE",
"554 365 LINE",
"382 365 LINE",
"417 533 OFFCURVE",
"427 622 OFFCURVE",
"391 658 CURVE",
"404 656 OFFCURVE",
"427 654 OFFCURVE",
"443 654 CURVE SMOOTH",
"643 654 LINE",
"651 688 LINE",
"287 688 LINE SMOOTH",
"141 688 OFFCURVE",
"113 641 OFFCURVE",
"50 344 CURVE SMOOTH",
"-13 47 OFFCURVE",
"-5 0 OFFCURVE",
"140 0 CURVE"
);
},
{
closed = 1;
nodes = (
"39 34 OFFCURVE",
"23 49 OFFCURVE",
"86 344 CURVE SMOOTH",
"148 639 OFFCURVE",
"170 654 OFFCURVE",
"279 654 CURVE SMOOTH",
"388 654 OFFCURVE",
"404 639 OFFCURVE",
"342 344 CURVE SMOOTH",
"279 49 OFFCURVE",
"257 34 OFFCURVE",
"148 34 CURVE SMOOTH"
);
}
);
};
layerId = "FA01890A-5211-455F-9108-1209F66A586C";
paths = (
{
closed = 1;
nodes = (
"529 0 LINE",
"537 34 LINE",
"337 34 LINE SMOOTH",
"320 34 OFFCURVE",
"298 32 OFFCURVE",
"287 30 CURVE",
"335 66 OFFCURVE",
"358 157 OFFCURVE",
"395 331 CURVE",
"567 331 LINE",
"574 365 LINE",
"402 365 LINE",
"422 460 OFFCURVE",
"433 530 OFFCURVE",
"433 579 CURVE SMOOTH",
"433 617 OFFCURVE",
"425 642 OFFCURVE",
"405 658 CURVE",
"419 656 OFFCURVE",
"445 654 OFFCURVE",
"463 654 CURVE SMOOTH",
"663 654 LINE",
"671 688 LINE",
"297 688 LINE SMOOTH",
"157 688 OFFCURVE",
"130 641 OFFCURVE",
"70 344 CURVE SMOOTH",
"46 232 OFFCURVE",
"32 155 OFFCURVE",
"32 104 CURVE SMOOTH",
"32 18 OFFCURVE",
"73 0 OFFCURVE",
"170 0 CURVE SMOOTH"
);
},
{
closed = 1;
nodes = (
"101 34 OFFCURVE",
"69 40 OFFCURVE",
"69 112 CURVE SMOOTH",
"69 158 OFFCURVE",
"82 230 OFFCURVE",
"106 344 CURVE SMOOTH",
"168 639 OFFCURVE",
"190 654 OFFCURVE",
"299 654 CURVE SMOOTH",
"366 654 OFFCURVE",
"398 648 OFFCURVE",
"398 575 CURVE SMOOTH",
"398 529 OFFCURVE",
"384 457 OFFCURVE",
"362 344 CURVE SMOOTH",
"304 49 OFFCURVE",
"282 34 OFFCURVE",
"168 34 CURVE SMOOTH"
);
}
);
width = 608;
},
{
anchors = (
{
name = bottom;
position = "{496, 0}";
},
{
name = top;
position = "{642, 688}";
}
);
layerId = "20A7088A-67D7-4614-84CF-19C576DDC019";
paths = (
{
closed = 1;
nodes = (
"921 0 LINE",
"944 108 LINE",
"654 108 LINE SMOOTH",
"634 108 OFFCURVE",
"606 105 OFFCURVE",
"580 100 CURVE",
"614 146 OFFCURVE",
"633 208 OFFCURVE",
"652 293 CURVE",
"936 293 LINE",
"959 401 LINE",
"675 401 LINE",
"685 451 OFFCURVE",
"691 494 OFFCURVE",
"691 530 CURVE SMOOTH",
"691 552 OFFCURVE",
"689 571 OFFCURVE",
"684 588 CURVE",
"708 583 OFFCURVE",
"734 580 OFFCURVE",
"754 580 CURVE SMOOTH",
"1044 580 LINE",
"1067 688 LINE",
"446 688 LINE SMOOTH",
"169 688 OFFCURVE",
"142 618 OFFCURVE",
"84 344 CURVE SMOOTH",
"65 257 OFFCURVE",
"53 190 OFFCURVE",
"53 140 CURVE SMOOTH",
"53 32 OFFCURVE",
"111 0 OFFCURVE",
"300 0 CURVE SMOOTH"
);
},
{
closed = 1;
nodes = (
"222 108 OFFCURVE",
"185 110 OFFCURVE",
"185 176 CURVE SMOOTH",
"185 211 OFFCURVE",
"195 264 OFFCURVE",
"212 344 CURVE SMOOTH",
"261 575 OFFCURVE",
"268 580 OFFCURVE",
"423 580 CURVE SMOOTH",
"525 580 OFFCURVE",
"562 578 OFFCURVE",
"562 511 CURVE SMOOTH",
"562 476 OFFCURVE",
"552 424 OFFCURVE",
"535 344 CURVE SMOOTH",
"486 113 OFFCURVE",
"478 108 OFFCURVE",
"323 108 CURVE SMOOTH"
);
}
);
width = 1021;
},
{
anchors = (
{
name = bottom;
position = "{309, 0}";
},
{
name = top;
position = "{455, 688}";
}
);
layerId = "C784E404-3F19-435D-96BB-DB276E1DA8D0";
paths = (
{
closed = 1;
nodes = (
"611 0 LINE",
"632 100 LINE",
"448 100 LINE SMOOTH",
"431 100 OFFCURVE",
"405 97 OFFCURVE",
"389 93 CURVE",
"420 140 OFFCURVE",
"439 205 OFFCURVE",
"460 296 CURVE",
"644 296 LINE",
"665 397 LINE",
"481 397 LINE",
"493 457 OFFCURVE",
"500 506 OFFCURVE",
"500 546 CURVE SMOOTH",
"500 563 OFFCURVE",
"499 579 OFFCURVE",
"496 593 CURVE",
"508 589 OFFCURVE",
"530 587 OFFCURVE",
"552 587 CURVE SMOOTH",
"736 587 LINE",
"757 688 LINE",
"349 688 LINE SMOOTH",
"144 688 OFFCURVE",
"120 617 OFFCURVE",
"62 344 CURVE SMOOTH",
"41 245 OFFCURVE",
"27 173 OFFCURVE",
"27 121 CURVE SMOOTH",
"27 29 OFFCURVE",
"72 0 OFFCURVE",
"203 0 CURVE SMOOTH"
);
},
{
closed = 1;
nodes = (
"162 91 OFFCURVE",
"140 93 OFFCURVE",
"140 140 CURVE SMOOTH",
"140 175 OFFCURVE",
"151 235 OFFCURVE",
"175 344 CURVE SMOOTH",
"226 590 OFFCURVE",
"237 597 OFFCURVE",
"318 597 CURVE SMOOTH",
"366 597 OFFCURVE",
"388 594 OFFCURVE",
"388 547 CURVE SMOOTH",
"388 512 OFFCURVE",
"377 452 OFFCURVE",
"354 344 CURVE SMOOTH",
"302 98 OFFCURVE",
"291 91 OFFCURVE",
"210 91 CURVE SMOOTH"
);
}
);
width = 699;
}
);
leftKerningGroup = O;
rightKerningGroup = E;
unicode = 0152;
},
{
glyphname = P;
layers = (
{
anchors = (
{
name = bottom;
position = "{79, 0}";
},
{
name = top;
position = "{420, 688}";
}
);
background = {
paths = (
{
closed = 1;
nodes = (
"61 0 LINE",
"97 0 LINE",
"156 274 LINE",
"408 274 LINE SMOOTH",
"585 274 OFFCURVE",
"616 373 OFFCURVE",
"639 481 CURVE SMOOTH",
"662 589 OFFCURVE",
"676 688 OFFCURVE",
"496 688 CURVE SMOOTH",
"208 688 LINE"
);
},
{
closed = 1;
nodes = (
"163 308 LINE",
"236 654 LINE",
"486 654 LINE SMOOTH",
"632 654 OFFCURVE",
"625 587 OFFCURVE",
"603 481 CURVE SMOOTH",
"580 375 OFFCURVE",
"556 308 OFFCURVE",
"413 308 CURVE SMOOTH"
);
}
);
};
layerId = "CD898CA3-FB76-4965-A23E-9AA06D1CE2B1";
paths = (
{
closed = 1;
nodes = (
"97 0 LINE",
"156 274 LINE",
"418 274 LINE SMOOTH",
"587 274 OFFCURVE",
"617 373 OFFCURVE",
"639 481 CURVE SMOOTH",
"645 512 OFFCURVE",
"651 542 OFFCURVE",
"651 569 CURVE SMOOTH",
"651 637 OFFCURVE",
"618 688 OFFCURVE",
"489 688 CURVE SMOOTH",
"208 688 LINE",
"61 0 LINE"
);
},
{
closed = 1;
nodes = (
"236 654 LINE",
"486 654 LINE SMOOTH",
"587 654 OFFCURVE",
"615 621 OFFCURVE",
"615 566 CURVE SMOOTH",
"615 542 OFFCURVE",
"610 513 OFFCURVE",
"603 481 CURVE SMOOTH",
"580 375 OFFCURVE",
"556 308 OFFCURVE",
"413 308 CURVE SMOOTH",
"163 308 LINE"
);
}
);
width = 655;
},
{
anchors = (
{
name = bottom;
position = "{116, 0}";
},
{
name = top;
position = "{405, 688}";
}
);
background = {
paths = (
{
closed = 1;
nodes = (
"-5 0 LINE",
"228 0 LINE",
"273 209 LINE",
"392 209 LINE SMOOTH",
"582 209 OFFCURVE",
"623 302 OFFCURVE",
"654 448 CURVE SMOOTH",
"688 610 OFFCURVE",
"677 688 OFFCURVE",
"494 688 CURVE SMOOTH",
"141 688 LINE"
);
},
{
closed = 1;
nodes = (
"307 372 LINE",
"340 525 LINE",
"371 525 LINE SMOOTH",
"429 525 OFFCURVE",
"434 521 OFFCURVE",
"419 448 CURVE SMOOTH",
"404 377 OFFCURVE",
"396 372 OFFCURVE",
"338 372 CURVE SMOOTH"
);
}
);
};
layerId = "B4DE345C-CFDB-4A54-B125-3358BD91D59F";
paths = (
{
closed = 1;
nodes = (
"228 0 LINE",
"273 209 LINE",
"392 209 LINE SMOOTH",
"588 209 OFFCURVE",
"620 298 OFFCURVE",
"651 438 CURVE SMOOTH",
"660 482 OFFCURVE",
"666 520 OFFCURVE",
"666 552 CURVE SMOOTH",
"666 644 OFFCURVE",
"623 688 OFFCURVE",
"474 688 CURVE SMOOTH",
"141 688 LINE",
"-5 0 LINE"
);
},
{
closed = 1;
nodes = (
"340 525 LINE",
"371 525 LINE SMOOTH",
"411 525 OFFCURVE",
"426 523 OFFCURVE",
"426 497 CURVE SMOOTH",
"426 486 OFFCURVE",
"423 470 OFFCURVE",
"419 448 CURVE SMOOTH",
"404 377 OFFCURVE",
"396 372 OFFCURVE",
"338 372 CURVE SMOOTH",
"307 372 LINE"
);
}
);
width = 626;
},
{
anchors = (
{
name = bottom;
position = "{65, 0}";
},
{
name = top;
position = "{296, 688}";
}
);
background = {
paths = (
{
closed = 1;
nodes = (
"-39 0 LINE",
"114 0 LINE",
"158 205 LINE",
"201 205 LINE SMOOTH",
"348 205 OFFCURVE",
"385 299 OFFCURVE",
"416 447 CURVE SMOOTH",
"451 611 OFFCURVE",
"444 688 OFFCURVE",
"304 688 CURVE SMOOTH",
"107 688 LINE"
);
},
{
closed = 1;
nodes = (
"188 344 LINE",
"231 549 LINE",
"247 549 LINE SMOOTH",
"279 549 OFFCURVE",
"284 549 OFFCURVE",
"262 447 CURVE SMOOTH",
"241 345 OFFCURVE",
"236 344 OFFCURVE",
"204 344 CURVE SMOOTH"
);
}
);
};
layerId = "47937877-2CF8-49A0-A6AF-2B1A27CB5FF4";
paths = (
{
closed = 1;
nodes = (
"138 0 LINE",
"182 205 LINE",
"235 205 LINE SMOOTH",
"381 205 OFFCURVE",
"404 277 OFFCURVE",
"440 447 CURVE SMOOTH",
"450 494 OFFCURVE",
"456 534 OFFCURVE",
"456 565 CURVE SMOOTH",
"456 648 OFFCURVE",
"418 688 OFFCURVE",
"308 688 CURVE SMOOTH",
"131 688 LINE",
"-15 0 LINE"
);
},
{
closed = 1;
nodes = (
"255 549 LINE",
"271 549 LINE SMOOTH",
"290 549 OFFCURVE",
"299 549 OFFCURVE",
"299 528 CURVE SMOOTH",
"299 513 OFFCURVE",
"295 489 OFFCURVE",
"286 447 CURVE SMOOTH",
"265 345 OFFCURVE",
"260 344 OFFCURVE",
"228 344 CURVE SMOOTH",
"212 344 LINE"
);
}
);
width = 407;
},
{
anchors = (
{
name = bottom;
position = "{35, 0}";
},
{
name = top;
position = "{280, 688}";
}
);
background = {
paths = (
{
closed = 1;
nodes = (
"17 0 LINE",
"52 0 LINE",
"111 274 LINE",
"224 274 LINE SMOOTH",
"352 274 OFFCURVE",
"381 373 OFFCURVE",
"404 481 CURVE SMOOTH",
"427 589 OFFCURVE",
"444 688 OFFCURVE",
"312 688 CURVE SMOOTH",
"163 688 LINE"
);
},
{
closed = 1;
nodes = (
"118 308 LINE",
"191 654 LINE",
"303 654 LINE SMOOTH",
"398 654 OFFCURVE",
"390 587 OFFCURVE",
"368 481 CURVE SMOOTH",
"345 375 OFFCURVE",
"324 308 OFFCURVE",
"230 308 CURVE SMOOTH"
);
}
);
};
layerId = "FA01890A-5211-455F-9108-1209F66A586C";
paths = (
{
closed = 1;
nodes = (
"52 0 LINE",
"111 274 LINE",
"234 274 LINE SMOOTH",
"355 274 OFFCURVE",
"382 373 OFFCURVE",
"404 481 CURVE SMOOTH",
"412 520 OFFCURVE",
"419 554 OFFCURVE",
"419 586 CURVE SMOOTH",
"419 643 OFFCURVE",
"394 688 OFFCURVE",
"302 688 CURVE SMOOTH",
"163 688 LINE",
"17 0 LINE"
);
},
{
closed = 1;
nodes = (
"191 654 LINE",
"303 654 LINE SMOOTH",
"363 654 OFFCURVE",
"382 627 OFFCURVE",
"382 580 CURVE SMOOTH",
"382 553 OFFCURVE",
"376 519 OFFCURVE",
"368 481 CURVE SMOOTH",
"345 375 OFFCURVE",
"324 308 OFFCURVE",
"230 308 CURVE SMOOTH",
"118 308 LINE"
);
}
);
width = 375;
},
{
anchors = (
{
name = bottom;
position = "{106, 0}";
},
{
name = top;
position = "{426, 688}";
}
);
layerId = "20A7088A-67D7-4614-84CF-19C576DDC019";
paths = (
{
closed = 1;
nodes = (
"169 0 LINE",
"221 240 LINE",
"426 240 LINE SMOOTH",
"611 240 OFFCURVE",
"645 332 OFFCURVE",
"673 458 CURVE SMOOTH",
"679 489 OFFCURVE",
"684 519 OFFCURVE",
"684 545 CURVE SMOOTH",
"684 635 OFFCURVE",
"644 688 OFFCURVE",
"496.004 688 CURVE SMOOTH",
"187 688 LINE",
"40 0 LINE"
);
},
{
closed = 1;
nodes = (
"294 586 LINE",
"445 586 LINE SMOOTH",
"528 586 OFFCURVE",
"553 569 OFFCURVE",
"553 527 CURVE SMOOTH",
"553 510 OFFCURVE",
"549 489 OFFCURVE",
"544 464 CURVE SMOOTH",
"525 375 OFFCURVE",
"508 343 OFFCURVE",
"392 343 CURVE SMOOTH",
"243 343 LINE"
);
}
);
width = 667;
},
{
anchors = (
{
name = bottom;
position = "{63, 0}";
},
{
name = top;
position = "{319, 688}";
}
);
layerId = "C784E404-3F19-435D-96BB-DB276E1DA8D0";
paths = (
{
closed = 1;
nodes = (
"118 0 LINE",
"168 234 LINE",
"275 234 LINE SMOOTH",
"423 234 OFFCURVE",
"448 322 OFFCURVE",
"477 460 CURVE SMOOTH",
"486 500 OFFCURVE",
"492 537 OFFCURVE",
"492 566 CURVE SMOOTH",
"492 644 OFFCURVE",
"459 688 OFFCURVE",
"347 688 CURVE SMOOTH",
"151 688 LINE",
"5 0 LINE"
);
},
{
closed = 1;
nodes = (
"244 589 LINE",
"317 589 LINE SMOOTH",
"362 589 OFFCURVE",
"377 578 OFFCURVE",
"377 544 CURVE SMOOTH",
"377 524 OFFCURVE",
"372 498 OFFCURVE",
"365 461 CURVE SMOOTH",
"344 361 OFFCURVE",
"331 333 OFFCURVE",
"262 333 CURVE SMOOTH",
"189 333 LINE"
);
}
);
width = 453;
}
);
leftKerningGroup = H;
rightKerningGroup = P;
unicode = 0050;
},
{
glyphname = Thorn;
layers = (
{
background = {
paths = (
{
closed = 1;
nodes = (
"125 0 LINE",
"155 143 LINE",
"407 143 LINE SMOOTH",
"584 143 OFFCURVE",
"615 242 OFFCURVE",
"638 350 CURVE SMOOTH",
"661 458 OFFCURVE",
"675 557 OFFCURVE",
"495 557 CURVE SMOOTH",
"243 557 LINE",
"271 688 LINE",
"235 688 LINE",
"89 0 LINE"
);
},
{
closed = 1;
nodes = (
"236 523 LINE",
"486 523 LINE SMOOTH",
"632 523 OFFCURVE",
"625 456 OFFCURVE",
"602 350 CURVE SMOOTH",
"579 244 OFFCURVE",
"556 177 OFFCURVE",
"413 177 CURVE SMOOTH",
"163 177 LINE"
);
}
);
};
layerId = "CD898CA3-FB76-4965-A23E-9AA06D1CE2B1";
paths = (
{
closed = 1;
nodes = (
"125 0 LINE",
"156 143 LINE",
"418 143 LINE SMOOTH",
"587 143 OFFCURVE",
"618 242 OFFCURVE",
"639 350 CURVE SMOOTH",
"645 381 OFFCURVE",
"651 411 OFFCURVE",
"651 438 CURVE SMOOTH",
"651 506 OFFCURVE",
"618 557 OFFCURVE",
"489 557 CURVE SMOOTH",
"243 557 LINE",
"271 688 LINE",
"235 688 LINE",
"89 0 LINE"
);
},
{
closed = 1;
nodes = (
"236 523 LINE",
"486 523 LINE SMOOTH",
"587 523 OFFCURVE",
"615 490 OFFCURVE",
"615 435 CURVE SMOOTH",
"615 411 OFFCURVE",
"610 382 OFFCURVE",
"603 350 CURVE SMOOTH",
"580 244 OFFCURVE",
"556 177 OFFCURVE",
"413 177 CURVE SMOOTH",
"163 177 LINE"
);
}
);
width = 655;
},
{
background = {
paths = (
{
closed = 1;
nodes = (
"52 0 LINE",
"285 0 LINE",
"309 113 LINE",
"428 113 LINE SMOOTH",
"618 113 OFFCURVE",
"658 206 OFFCURVE",
"689 352 CURVE SMOOTH",
"698 396 OFFCURVE",
"705 434 OFFCURVE",
"705 466 CURVE SMOOTH",
"705 551 OFFCURVE",
"662 592 OFFCURVE",
"529 592 CURVE SMOOTH",
"410 592 LINE",
"431 688 LINE",
"198 688 LINE"
);
},
{
closed = 1;
nodes = (
"343 276 LINE",
"376 429 LINE",
"407 429 LINE SMOOTH",
"447 429 OFFCURVE",
"462 427 OFFCURVE",
"462 402 CURVE SMOOTH",
"462 390 OFFCURVE",
"459 374 OFFCURVE",
"454 352 CURVE SMOOTH",
"439 281 OFFCURVE",
"432 276 OFFCURVE",
"374 276 CURVE SMOOTH"
);
}
);
};
layerId = "B4DE345C-CFDB-4A54-B125-3358BD91D59F";
paths = (
{
closed = 1;
nodes = (
"228 0 LINE",
"252 113 LINE",
"387 113 LINE SMOOTH",
"565 113 OFFCURVE",
"603 206 OFFCURVE",
"632 352 CURVE SMOOTH",
"639 392 OFFCURVE",
"644 427 OFFCURVE",
"644 456 CURVE SMOOTH",
"644 548 OFFCURVE",
"598 592 OFFCURVE",
"452 592 CURVE SMOOTH",
"353 592 LINE",
"374 688 LINE",
"141 688 LINE",
"-5 0 LINE"
);
},
{
closed = 1;
nodes = (
"319 429 LINE",
"350 429 LINE SMOOTH",
"390 429 OFFCURVE",
"405 427 OFFCURVE",
"405 402 CURVE SMOOTH",
"405 390 OFFCURVE",
"402 374 OFFCURVE",
"397 352 CURVE SMOOTH",
"382 281 OFFCURVE",
"375 276 OFFCURVE",
"317 276 CURVE SMOOTH",
"286 276 LINE"
);
}
);
width = 636;
},
{
background = {
paths = (
{
closed = 1;
nodes = (
"139 0 LINE",
"162 111 LINE",
"205 111 LINE SMOOTH",
"352 111 OFFCURVE",
"389 205 OFFCURVE",
"421 353 CURVE SMOOTH",
"456 517 OFFCURVE",
"448 594 OFFCURVE",
"308 594 CURVE SMOOTH",
"265 594 LINE",
"285 688 LINE",
"131 688 LINE",
"-15 0 LINE"
);
},
{
closed = 1;
nodes = (
"236 455 LINE",
"252 455 LINE SMOOTH",
"284 455 OFFCURVE",
"289 455 OFFCURVE",
"267 353 CURVE SMOOTH",
"245 251 OFFCURVE",
"240 250 OFFCURVE",
"208 250 CURVE SMOOTH",
"192 250 LINE"
);
}
);
};
layerId = "47937877-2CF8-49A0-A6AF-2B1A27CB5FF4";
paths = (
{
closed = 1;
nodes = (
"138 0 LINE",
"162 111 LINE",
"215 111 LINE SMOOTH",
"361 111 OFFCURVE",
"384 183 OFFCURVE",
"420 353 CURVE SMOOTH",
"430 400 OFFCURVE",
"436 440 OFFCURVE",
"436 471 CURVE SMOOTH",
"436 554 OFFCURVE",
"398 594 OFFCURVE",
"288 594 CURVE SMOOTH",
"264 594 LINE",
"284 688 LINE",
"131 688 LINE",
"-15 0 LINE"
);
},
{
closed = 1;
nodes = (
"235 455 LINE",
"251 455 LINE SMOOTH",
"270 455 OFFCURVE",
"279 455 OFFCURVE",
"279 434 CURVE SMOOTH",
"279 419 OFFCURVE",
"275 395 OFFCURVE",
"266 353 CURVE SMOOTH",
"244 251 OFFCURVE",
"240 250 OFFCURVE",
"208 250 CURVE SMOOTH",
"192 250 LINE"
);
}
);
width = 407;
},
{
background = {
paths = (
{
closed = 1;
nodes = (
"53 0 LINE",
"83 143 LINE",
"196 143 LINE SMOOTH",
"324 143 OFFCURVE",
"353 242 OFFCURVE",
"376 350 CURVE SMOOTH",
"399 458 OFFCURVE",
"416 557 OFFCURVE",
"284 557 CURVE SMOOTH",
"171 557 LINE",
"199 688 LINE",
"163 688 LINE",
"17 0 LINE"
);
},
{
closed = 1;
nodes = (
"164 523 LINE",
"276 523 LINE SMOOTH",
"371 523 OFFCURVE",
"363 456 OFFCURVE",
"340 350 CURVE SMOOTH",
"317 244 OFFCURVE",
"297 177 OFFCURVE",
"203 177 CURVE SMOOTH",
"91 177 LINE"
);
}
);
};
layerId = "FA01890A-5211-455F-9108-1209F66A586C";
paths = (
{
closed = 1;
nodes = (
"52 0 LINE",
"83 143 LINE",
"206 143 LINE SMOOTH",
"327 143 OFFCURVE",
"354 242 OFFCURVE",
"376 350 CURVE SMOOTH",
"384 389 OFFCURVE",
"391 423 OFFCURVE",
"391 455 CURVE SMOOTH",
"391 512 OFFCURVE",
"366 557 OFFCURVE",
"274 557 CURVE SMOOTH",
"170 557 LINE",
"198 688 LINE",
"163 688 LINE",
"17 0 LINE"
);
},
{
closed = 1;
nodes = (
"163 523 LINE",
"275 523 LINE SMOOTH",
"335 523 OFFCURVE",
"354 496 OFFCURVE",
"354 449 CURVE SMOOTH",
"354 422 OFFCURVE",
"348 388 OFFCURVE",
"340 350 CURVE SMOOTH",
"318 244 OFFCURVE",
"296 177 OFFCURVE",
"202 177 CURVE SMOOTH",
"90 177 LINE"
);
}
);
width = 375;
},
{
background = {
paths = (
{
closed = 1;
nodes = (
"170 0 LINE",
"196 125 LINE",
"377 125 LINE SMOOTH",
"556 125 OFFCURVE",
"608 222 OFFCURVE",
"635 351 CURVE SMOOTH",
"664 489 OFFCURVE",
"649 577 OFFCURVE",
"478 577 CURVE SMOOTH",
"293 577 LINE",
"316 688 LINE",
"188 688 LINE",
"42 0 LINE"
);
},
{
closed = 1;
nodes = (
"270 469 LINE",
"404 469 LINE SMOOTH",
"524 469 OFFCURVE",
"528 446 OFFCURVE",
"507 351 CURVE SMOOTH",
"486 256 OFFCURVE",
"472 233 OFFCURVE",
"349 233 CURVE SMOOTH",
"219 233 LINE"
);
}
);
};
layerId = "20A7088A-67D7-4614-84CF-19C576DDC019";
paths = (
{
closed = 1;
nodes = (
"172 0 LINE",
"199 125 LINE",
"384 125 LINE SMOOTH",
"569 125 OFFCURVE",
"603 217 OFFCURVE",
"631 343 CURVE SMOOTH",
"638 374 OFFCURVE",
"642 404 OFFCURVE",
"642 430 CURVE SMOOTH",
"642 520 OFFCURVE",
"602 573 OFFCURVE",
"454 573 CURVE SMOOTH",
"294 573 LINE",
"318 688 LINE",
"189 688 LINE",
"42 0 LINE"
);
},
{
closed = 1;
nodes = (
"272 471 LINE",
"403 471 LINE SMOOTH",
"486 471 OFFCURVE",
"511 454 OFFCURVE",
"511 412 CURVE SMOOTH",
"511 395 OFFCURVE",
"507 374 OFFCURVE",
"502 349 CURVE SMOOTH",
"484 260 OFFCURVE",
"466 228 OFFCURVE",
"350 228 CURVE SMOOTH",
"221 228 LINE"
);
}
);
width = 649;
},
{
background = {
paths = (
{
closed = 1;
nodes = (
"117 0 LINE",
"143 123 LINE",
"250 123 LINE",
"403 123 OFFCURVE",
"442 220 OFFCURVE",
"469 351 CURVE SMOOTH",
"498 491 OFFCURVE",
"497 578 OFFCURVE",
"348 578 CURVE SMOOTH",
"240 578 LINE",
"263 688 LINE",
"151 688 LINE",
"5 0 LINE"
);
},
{
closed = 1;
nodes = (
"218 477 LINE",
"297 477 LINE SMOOTH",
"378 477 OFFCURVE",
"379 453 OFFCURVE",
"357 351 CURVE SMOOTH",
"335 250 OFFCURVE",
"322 224 OFFCURVE",
"242 224 CURVE SMOOTH",
"164 224 LINE"
);
}
);
};
layerId = "C784E404-3F19-435D-96BB-DB276E1DA8D0";
paths = (
{
closed = 1;
nodes = (
"119 0 LINE",
"145 123 LINE",
"252 123 LINE SMOOTH",
"400 123 OFFCURVE",
"426 211 OFFCURVE",
"454 349 CURVE SMOOTH",
"462 389 OFFCURVE",
"469 426 OFFCURVE",
"469 455 CURVE SMOOTH",
"469 533 OFFCURVE",
"436 577 OFFCURVE",
"324 577 CURVE SMOOTH",
"241 577 LINE",
"265 688 LINE",
"151 688 LINE",
"5 0 LINE"
);
},
{
closed = 1;
nodes = (
"221 478 LINE",
"294 478 LINE SMOOTH",
"339 478 OFFCURVE",
"354 467 OFFCURVE",
"354 433 CURVE SMOOTH",
"354 413 OFFCURVE",
"349 387 OFFCURVE",
"342 350 CURVE SMOOTH",
"323 250 OFFCURVE",
"308 222 OFFCURVE",
"239 222 CURVE SMOOTH",
"166 222 LINE"
);
}
);
width = 479;
}
);
leftKerningGroup = H;
rightKerningGroup = P;
unicode = 00DE;
},
{
color = 3;
glyphname = Q;
layers = (
{
anchors = (
{
name = bottom;
position = "{309, 0}";
},
{
name = top;
position = "{455, 688}";
}
);
components = (
{
name = O;
}
);
layerId = "CD898CA3-FB76-4965-A23E-9AA06D1CE2B1";
paths = (
{
closed = 1;
nodes = (
"562 -115 LINE",
"562 -113 LINE",
"379 218 LINE",
"339 218 LINE",
"523 -115 LINE"
);
}
);
width = 726;
},
{
anchors = (
{
name = bottom;
position = "{294, 0}";
},
{
name = top;
position = "{440, 688}";
}
);
background = {
paths = (
{
closed = 1;
nodes = (
"620 -115 LINE",
"622 -106 LINE",
"546 54 LINE",
"611 99 OFFCURVE",
"630 181 OFFCURVE",
"668 334 CURVE SMOOTH",
"688 422 OFFCURVE",
"700 489 OFFCURVE",
"700 541 CURVE SMOOTH",
"700 656 OFFCURVE",
"636 696 OFFCURVE",
"423 696 CURVE SMOOTH",
"136 696 OFFCURVE",
"116 632 OFFCURVE",
"63 354 CURVE SMOOTH",
"46 265 OFFCURVE",
"30 197 OFFCURVE",
"30 146 CURVE SMOOTH",
"30 32 OFFCURVE",
"95 -8 OFFCURVE",
"310 -8 CURVE SMOOTH",
"320 -8 OFFCURVE",
"339 -6 OFFCURVE",
"339 -6 CURVE",
"387 -115 LINE"
);
},
{
closed = 1;
nodes = (
"285 159 OFFCURVE",
"268 160 OFFCURVE",
"268 194 CURVE SMOOTH",
"268 220 OFFCURVE",
"278 265 OFFCURVE",
"295 344 CURVE SMOOTH",
"333 525 OFFCURVE",
"334 529 OFFCURVE",
"404 529 CURVE SMOOTH",
"444 529 OFFCURVE",
"461 528 OFFCURVE",
"461 492 CURVE SMOOTH",
"461 466 OFFCURVE",
"452 420 OFFCURVE",
"436 344 CURVE SMOOTH",
"397 163 OFFCURVE",
"395 159 OFFCURVE",
"325 159 CURVE SMOOTH"
);
}
);
};
components = (
{
name = O;
}
);
layerId = "B4DE345C-CFDB-4A54-B125-3358BD91D59F";
paths = (
{
closed = 1;
nodes = (
"616 -115 LINE",
"618 -106 LINE",
"461 218 LINE",
"240 218 LINE",
"388 -115 LINE"
);
}
);
width = 695;
},
{
anchors = (
{
name = bottom;
position = "{154, 0}";
},
{
name = top;
position = "{300, 688}";
}
);
background = {
paths = (
{
closed = 1;
nodes = (
"364 -115 LINE",
"366 -109 LINE",
"309 41 LINE",
"363 94 OFFCURVE",
"383 191 OFFCURVE",
"416 344 CURVE SMOOTH",
"472 607 OFFCURVE",
"491 696 OFFCURVE",
"307 696 CURVE SMOOTH",
"123 696 OFFCURVE",
"104 607 OFFCURVE",
"48 344 CURVE SMOOTH",
"-7 82 OFFCURVE",
"-26 -8 OFFCURVE",
"157 -8 CURVE SMOOTH",
"171 -8 LINE",
"206 -115 LINE"
);
},
{
closed = 1;
nodes = (
"157 131 OFFCURVE",
"157 133 OFFCURVE",
"202 344 CURVE SMOOTH",
"247 555 OFFCURVE",
"247 557 OFFCURVE",
"277 557 CURVE SMOOTH",
"307 557 OFFCURVE",
"307 555 OFFCURVE",
"262 344 CURVE SMOOTH",
"217 133 OFFCURVE",
"217 131 OFFCURVE",
"187 131 CURVE SMOOTH"
);
}
);
};
components = (
{
name = O;
}
);
layerId = "47937877-2CF8-49A0-A6AF-2B1A27CB5FF4";
paths = (
{
closed = 1;
nodes = (
"346 -115 LINE",
"347 -109 LINE",
"225 218 LINE",
"81 218 LINE",
"193 -115 LINE"
);
}
);
width = 416;
},
{
anchors = (
{
name = bottom;
position = "{160, 0}";
},
{
name = top;
position = "{306, 688}";
}
);
background = {
paths = (
{
closed = 1;
nodes = (
"307 -115 LINE",
"308 -113 LINE",
"274 14 LINE",
"330 49 OFFCURVE",
"356 138 OFFCURVE",
"398 344 CURVE SMOOTH",
"422 459 OFFCURVE",
"436 537 OFFCURVE",
"436 590 CURVE SMOOTH",
"436 677 OFFCURVE",
"396 696 OFFCURVE",
"298 696 CURVE SMOOTH",
"158 696 OFFCURVE",
"131 648 OFFCURVE",
"70 344 CURVE",
"46 229 OFFCURVE",
"32 150 OFFCURVE",
"32 97 CURVE SMOOTH",
"32 10 OFFCURVE",
"72 -8 OFFCURVE",
"169 -8 CURVE SMOOTH",
"197 -8 OFFCURVE",
"221 -6 OFFCURVE",
"242 0 CURVE",
"272 -115 LINE"
);
},
{
closed = 1;
nodes = (
"99 26 OFFCURVE",
"67 31 OFFCURVE",
"67 105 CURVE SMOOTH",
"67 151 OFFCURVE",
"81 225 OFFCURVE",
"106 344 CURVE SMOOTH",
"170 647 OFFCURVE",
"192 662 OFFCURVE",
"301 662 CURVE SMOOTH",
"368 662 OFFCURVE",
"399 656 OFFCURVE",
"399 582 CURVE SMOOTH",
"399 536 OFFCURVE",
"387 461 OFFCURVE",
"362 344 CURVE SMOOTH",
"323 164 OFFCURVE",
"301 83 OFFCURVE",
"265 49 CURVE",
"221 218 LINE",
"185 218 LINE",
"233 33 LINE",
"215 26 OFFCURVE",
"193 26 OFFCURVE",
"166 26 CURVE SMOOTH"
);
}
);
};
components = (
{
name = O;
}
);
layerId = "FA01890A-5211-455F-9108-1209F66A586C";
paths = (
{
closed = 1;
nodes = (
"307 -115 LINE",
"307 -113 LINE",
"220 218 LINE",
"183 218 LINE",
"271 -115 LINE"
);
}
);
width = 428;
},
{
anchors = (
{
name = bottom;
position = "{316, 0}";
},
{
name = top;
position = "{462, 688}";
}
);
components = (
{
name = O;
}
);
layerId = "20A7088A-67D7-4614-84CF-19C576DDC019";
paths = (
{
closed = 1;
nodes = (
"593 -115 LINE",
"593 -113 LINE",
"425 218 LINE",
"300 218 LINE",
"458 -115 LINE"
);
}
);
width = 739;
},
{
anchors = (
{
name = bottom;
position = "{191, 0}";
},
{
name = top;
position = "{337, 688}";
}
);
components = (
{
name = O;
}
);
layerId = "C784E404-3F19-435D-96BB-DB276E1DA8D0";
paths = (
{
closed = 1;
nodes = (
"390 -115 LINE",
"390 -111 LINE",
"273 218 LINE",
"173 218 LINE",
"291 -115 LINE"
);
}
);
width = 489;
},
{
anchors = (
{
name = bottom;
position = "{309, 0}";
},
{
name = top;
position = "{455, 688}";
}
);
associatedMasterId = "CD898CA3-FB76-4965-A23E-9AA06D1CE2B1";
components = (
{
name = O;
}
);
layerId = "D08165BC-3114-4806-9961-B54ECCBCD3A6";
name = "Light [110]";
paths = (
{
closed = 1;
nodes = (
"562 -115 LINE",
"562 -113 LINE",
"484 28 LINE",
"451 16 LINE",
"523 -115 LINE"
);
}
);
width = 726;
},
{
anchors = (
{
name = bottom;
position = "{316, 0}";
},
{
name = top;
position = "{462, 688}";
}
);
associatedMasterId = "20A7088A-67D7-4614-84CF-19C576DDC019";
components = (
{
name = O;
}
);
layerId = "FB940E93-2E32-4CF8-BFC9-EE3917B6E5DF";
name = "SemiBold [110]";
paths = (
{
closed = 1;
nodes = (
"593 -115 LINE",
"593 -113 LINE",
"496 78 LINE",
"381 48 LINE",
"458 -115 LINE"
);
}
);
width = 739;
},
{
anchors = (
{
name = bottom;
position = "{294, 0}";
},
{
name = top;
position = "{440, 688}";
}
);
associatedMasterId = "B4DE345C-CFDB-4A54-B125-3358BD91D59F";
background = {
paths = (
{
closed = 1;
nodes = (
"620 -115 LINE",
"622 -106 LINE",
"546 54 LINE",
"611 99 OFFCURVE",
"630 181 OFFCURVE",
"668 334 CURVE SMOOTH",
"688 422 OFFCURVE",
"700 489 OFFCURVE",
"700 541 CURVE SMOOTH",
"700 656 OFFCURVE",
"636 696 OFFCURVE",
"423 696 CURVE SMOOTH",
"136 696 OFFCURVE",
"116 632 OFFCURVE",
"63 354 CURVE SMOOTH",
"46 265 OFFCURVE",
"30 197 OFFCURVE",
"30 146 CURVE SMOOTH",
"30 32 OFFCURVE",
"95 -8 OFFCURVE",
"310 -8 CURVE SMOOTH",
"320 -8 OFFCURVE",
"339 -6 OFFCURVE",
"339 -6 CURVE",
"387 -115 LINE"
);
},
{
closed = 1;
nodes = (
"285 159 OFFCURVE",
"268 160 OFFCURVE",
"268 194 CURVE SMOOTH",
"268 220 OFFCURVE",
"278 265 OFFCURVE",
"295 344 CURVE SMOOTH",
"333 525 OFFCURVE",
"334 529 OFFCURVE",
"404 529 CURVE SMOOTH",
"444 529 OFFCURVE",
"461 528 OFFCURVE",
"461 492 CURVE SMOOTH",
"461 466 OFFCURVE",
"452 420 OFFCURVE",
"436 344 CURVE SMOOTH",
"397 163 OFFCURVE",
"395 159 OFFCURVE",
"325 159 CURVE SMOOTH"
);
}
);
};
components = (
{
name = O;
}
);
layerId = "0973A083-740A-4D9C-AAF3-4F803418FDD2";
name = "Bold [110]";
paths = (
{
closed = 1;
nodes = (
"616 -115 LINE",
"618 -106 LINE",
"504 130 LINE",
"309 63 LINE",
"388 -115 LINE"
);
}
);
width = 695;
},
{
anchors = (
{
name = bottom;
position = "{160, 0}";
},
{
name = top;
position = "{306, 688}";
}
);
associatedMasterId = "FA01890A-5211-455F-9108-1209F66A586C";
background = {
paths = (
{
closed = 1;
nodes = (
"307 -115 LINE",
"308 -113 LINE",
"274 14 LINE",
"330 49 OFFCURVE",
"356 138 OFFCURVE",
"398 344 CURVE SMOOTH",
"422 459 OFFCURVE",
"436 537 OFFCURVE",
"436 590 CURVE SMOOTH",
"436 677 OFFCURVE",
"396 696 OFFCURVE",
"298 696 CURVE SMOOTH",
"158 696 OFFCURVE",
"131 648 OFFCURVE",
"70 344 CURVE",
"46 229 OFFCURVE",
"32 150 OFFCURVE",
"32 97 CURVE SMOOTH",
"32 10 OFFCURVE",
"72 -8 OFFCURVE",
"169 -8 CURVE SMOOTH",
"197 -8 OFFCURVE",
"221 -6 OFFCURVE",
"242 0 CURVE",
"272 -115 LINE"
);
},
{
closed = 1;
nodes = (
"99 26 OFFCURVE",
"67 31 OFFCURVE",
"67 105 CURVE SMOOTH",
"67 151 OFFCURVE",
"81 225 OFFCURVE",
"106 344 CURVE SMOOTH",
"170 647 OFFCURVE",
"192 662 OFFCURVE",
"301 662 CURVE SMOOTH",
"368 662 OFFCURVE",
"399 656 OFFCURVE",
"399 582 CURVE SMOOTH",
"399 536 OFFCURVE",
"387 461 OFFCURVE",
"362 344 CURVE SMOOTH",
"323 164 OFFCURVE",
"301 83 OFFCURVE",
"265 49 CURVE",
"221 218 LINE",
"185 218 LINE",
"233 33 LINE",
"215 26 OFFCURVE",
"193 26 OFFCURVE",
"166 26 CURVE SMOOTH"
);
}
);
};
components = (
{
name = O;
}
);
layerId = "A11E8C8D-68AD-42F3-8007-08A3381A8AED";
name = "Light Condensed [110]";
paths = (
{
closed = 1;
nodes = (
"307 -115 LINE",
"307 -113 LINE",
"269 33 LINE",
"236 16 LINE",
"271 -115 LINE"
);
}
);
width = 428;
},
{
anchors = (
{
name = bottom;
position = "{191, 0}";
},
{
name = top;
position = "{337, 688}";
}
);
associatedMasterId = "C784E404-3F19-435D-96BB-DB276E1DA8D0";
components = (
{
name = O;
}
);
layerId = "28372966-567C-42E8-952C-4138A4D9DED3";
name = "Semi Condensed [110]";
paths = (
{
closed = 1;
nodes = (
"390 -115 LINE",
"390 -111 LINE",
"322 79 LINE",
"235 43 LINE",
"291 -115 LINE"
);
}
);
width = 489;
},
{
anchors = (
{
name = bottom;
position = "{154, 0}";
},
{
name = top;
position = "{300, 688}";
}
);
associatedMasterId = "47937877-2CF8-49A0-A6AF-2B1A27CB5FF4";
background = {
paths = (
{
closed = 1;
nodes = (
"364 -115 LINE",
"366 -109 LINE",
"309 41 LINE",
"363 94 OFFCURVE",
"383 191 OFFCURVE",
"416 344 CURVE SMOOTH",
"472 607 OFFCURVE",
"491 696 OFFCURVE",
"307 696 CURVE SMOOTH",
"123 696 OFFCURVE",
"104 607 OFFCURVE",
"48 344 CURVE SMOOTH",
"-7 82 OFFCURVE",
"-26 -8 OFFCURVE",
"157 -8 CURVE SMOOTH",
"171 -8 LINE",
"206 -115 LINE"
);
},
{
closed = 1;
nodes = (
"157 131 OFFCURVE",
"157 133 OFFCURVE",
"202 344 CURVE SMOOTH",
"247 555 OFFCURVE",
"247 557 OFFCURVE",
"277 557 CURVE SMOOTH",
"307 557 OFFCURVE",
"307 555 OFFCURVE",
"262 344 CURVE SMOOTH",
"217 133 OFFCURVE",
"217 131 OFFCURVE",
"187 131 CURVE SMOOTH"
);
}
);
};
components = (
{
name = O;
}
);
layerId = "E92F1931-A40B-4710-9A8F-9146407D6AE8";
name = "Bold Condensed [110]";
paths = (
{
closed = 1;
nodes = (
"346 -115 LINE",
"347 -109 LINE",
"270 97 LINE",
"134 61 LINE",
"193 -115 LINE"
);
}
);
width = 416;
}
);
leftKerningGroup = O;
rightKerningGroup = O;
unicode = 0051;
},
{
glyphname = R;
layers = (
{
anchors = (
{
name = bottom;
position = "{289, 0}";
},
{
name = top;
position = "{418, 688}";
}
);
layerId = "CD898CA3-FB76-4965-A23E-9AA06D1CE2B1";
paths = (
{
closed = 1;
nodes = (
"97 0 LINE",
"160 294 LINE",
"405 294 LINE SMOOTH",
"424 294 OFFCURVE",
"442 295 OFFCURVE",
"459 296 CURVE",
"513 0 LINE",
"551 0 LINE",
"496 302 LINE",
"612 327 OFFCURVE",
"628 405 OFFCURVE",
"649 491 CURVE SMOOTH",
"655 518 OFFCURVE",
"659 546 OFFCURVE",
"659 571 CURVE SMOOTH",
"659 641 OFFCURVE",
"619 688 OFFCURVE",
"497 688 CURVE SMOOTH",
"208 688 LINE",
"61 0 LINE"
);
},
{
closed = 1;
nodes = (
"236 654 LINE",
"498 654 LINE SMOOTH",
"592 654 OFFCURVE",
"623 621 OFFCURVE",
"623 569 CURVE SMOOTH",
"623 546 OFFCURVE",
"619 520 OFFCURVE",
"613 491 CURVE SMOOTH",
"593 396 OFFCURVE",
"567 328 OFFCURVE",
"420 328 CURVE SMOOTH",
"167 328 LINE"
);
}
);
width = 685;
},
{
anchors = (
{
name = bottom;
position = "{273, 0}";
},
{
name = top;
position = "{407, 688}";
}
);
background = {
paths = (
{
closed = 1;
nodes = (
"584 0 LINE",
"545 257 LINE",
"621 294 OFFCURVE",
"647 364 OFFCURVE",
"667 458 CURVE SMOOTH",
"700 613 OFFCURVE",
"688 688 OFFCURVE",
"503 688 CURVE SMOOTH",
"141 688 LINE",
"-5 0 LINE",
"228 0 LINE",
"277 229 LINE",
"324 229 LINE",
"344 0 LINE"
);
},
{
closed = 1;
nodes = (
"310 384 LINE",
"340 525 LINE",
"381 525 LINE SMOOTH",
"447 525 OFFCURVE",
"445 517 OFFCURVE",
"432 454 CURVE SMOOTH",
"418 387 OFFCURVE",
"409 384 OFFCURVE",
"352 384 CURVE"
);
}
);
};
layerId = "B4DE345C-CFDB-4A54-B125-3358BD91D59F";
paths = (
{
closed = 1;
nodes = (
"228 0 LINE",
"277 229 LINE",
"311 229 LINE",
"317 229 OFFCURVE",
"323 229 OFFCURVE",
"329 229 CURVE",
"349 0 LINE",
"584 0 LINE",
"545 257 LINE",
"632 294 OFFCURVE",
"645 359 OFFCURVE",
"665 448 CURVE SMOOTH",
"674 489 OFFCURVE",
"679 525 OFFCURVE",
"679 555 CURVE SMOOTH",
"679 644 OFFCURVE",
"635 688 OFFCURVE",
"483 688 CURVE SMOOTH",
"141 688 LINE",
"-5 0 LINE"
);
},
{
closed = 1;
nodes = (
"340 525 LINE",
"381 525 LINE SMOOTH",
"426 525 OFFCURVE",
"439 521 OFFCURVE",
"439 499 CURVE SMOOTH",
"439 489 OFFCURVE",
"436 474 OFFCURVE",
"432 454 CURVE SMOOTH",
"418 387 OFFCURVE",
"409 384 OFFCURVE",
"352 384 CURVE SMOOTH",
"310 384 LINE"
);
}
);
width = 654;
},
{
anchors = (
{
name = bottom;
position = "{156, 0}";
},
{
name = top;
position = "{298, 688}";
}
);
layerId = "47937877-2CF8-49A0-A6AF-2B1A27CB5FF4";
paths = (
{
closed = 1;
nodes = (
"138 -1 LINE",
"186 224 LINE",
"203 224 LINE SMOOTH",
"207 224 OFFCURVE",
"211 224 OFFCURVE",
"211 224 CURVE",
"211 -1 LINE",
"365 -1 LINE",
"353 258 LINE",
"423 302 OFFCURVE",
"434 384 OFFCURVE",
"450 471 CURVE SMOOTH",
"456 504 OFFCURVE",
"461 538 OFFCURVE",
"461 566 CURVE SMOOTH",
"461 648 OFFCURVE",
"426 687 OFFCURVE",
"321 687 CURVE SMOOTH",
"131 687 LINE",
"-15 -1 LINE"
);
},
{
closed = 1;
nodes = (
"255 548 LINE",
"274 548 LINE SMOOTH",
"293 548 OFFCURVE",
"303 547 OFFCURVE",
"303 526 CURVE SMOOTH",
"303 512 OFFCURVE",
"299 490 OFFCURVE",
"291 454 CURVE SMOOTH",
"270 360 OFFCURVE",
"266 359 OFFCURVE",
"234 359 CURVE SMOOTH",
"215 359 LINE"
);
}
);
width = 420;
},
{
anchors = (
{
name = bottom;
position = "{149, 0}";
},
{
name = top;
position = "{287, 688}";
}
);
background = {
paths = (
{
closed = 1;
nodes = (
"311 0 LINE",
"290 303 LINE",
"366 329 OFFCURVE",
"388 407 OFFCURVE",
"406 491 CURVE SMOOTH",
"428 594 OFFCURVE",
"444 688 OFFCURVE",
"312 688 CURVE SMOOTH",
"158 688 LINE",
"12 0 LINE",
"47 0 LINE",
"110 294 LINE",
"228 294 LINE SMOOTH",
"237 294 OFFCURVE",
"245 294 OFFCURVE",
"253 295 CURVE",
"273 0 LINE"
);
},
{
closed = 1;
nodes = (
"117 328 LINE",
"186 654 LINE",
"303 654 LINE SMOOTH",
"398 654 OFFCURVE",
"391 591 OFFCURVE",
"370 491 CURVE SMOOTH",
"348 391 OFFCURVE",
"328 328 OFFCURVE",
"234 328 CURVE"
);
}
);
};
layerId = "FA01890A-5211-455F-9108-1209F66A586C";
paths = (
{
closed = 1;
nodes = (
"52 0 LINE",
"115 294 LINE",
"233 294 LINE SMOOTH",
"242 294 OFFCURVE",
"252 294 OFFCURVE",
"260 295 CURVE",
"280 0 LINE",
"316 0 LINE",
"295 303 LINE",
"376 330 OFFCURVE",
"393 407 OFFCURVE",
"411 491 CURVE SMOOTH",
"419 527 OFFCURVE",
"425 576 OFFCURVE",
"425 590 CURVE SMOOTH",
"425 646 OFFCURVE",
"400 688 OFFCURVE",
"307 688 CURVE SMOOTH",
"163 688 LINE",
"17 0 LINE"
);
},
{
closed = 1;
nodes = (
"191 654 LINE",
"308 654 LINE SMOOTH",
"369 654 OFFCURVE",
"388 628 OFFCURVE",
"388 582 CURVE SMOOTH",
"388 557 OFFCURVE",
"383 526 OFFCURVE",
"375 491 CURVE SMOOTH",
"352 391 OFFCURVE",
"332 328 OFFCURVE",
"234 328 CURVE SMOOTH",
"122 328 LINE"
);
}
);
width = 405;
},
{
anchors = (
{
name = bottom;
position = "{295, 0}";
},
{
name = top;
position = "{431, 688}";
}
);
layerId = "20A7088A-67D7-4614-84CF-19C576DDC019";
paths = (
{
closed = 1;
nodes = (
"169 0 LINE",
"225 261 LINE",
"374 261 LINE SMOOTH",
"390 261 OFFCURVE",
"404 261 OFFCURVE",
"418 261 CURVE",
"462 0 LINE",
"595 0 LINE",
"539 277 LINE",
"627 302 OFFCURVE",
"659 357 OFFCURVE",
"684 462 CURVE SMOOTH",
"692 494 OFFCURVE",
"696 526 OFFCURVE",
"696 550 CURVE SMOOTH",
"696 635 OFFCURVE",
"657 688 OFFCURVE",
"508 688 CURVE SMOOTH",
"187 688 LINE",
"40 0 LINE"
);
},
{
closed = 1;
nodes = (
"294 586 LINE",
"459 586 LINE SMOOTH",
"541 586 OFFCURVE",
"563 568 OFFCURVE",
"563 530 CURVE SMOOTH",
"563 515 OFFCURVE",
"560 495 OFFCURVE",
"555 473 CURVE SMOOTH",
"539 393 OFFCURVE",
"522 361 OFFCURVE",
"406 361 CURVE SMOOTH",
"246 361 LINE"
);
}
);
width = 698;
},
{
anchors = (
{
name = bottom;
position = "{184, 0}";
},
{
name = top;
position = "{324, 688}";
}
);
layerId = "C784E404-3F19-435D-96BB-DB276E1DA8D0";
paths = (
{
closed = 1;
nodes = (
"118 0 LINE",
"172 254 LINE",
"249 254 LINE",
"256 254 OFFCURVE",
"263 254 OFFCURVE",
"269 254 CURVE",
"285 0 LINE",
"399 0 LINE",
"374 276 LINE",
"449 307 OFFCURVE",
"468 383 OFFCURVE",
"487 473 CURVE SMOOTH",
"494 508 OFFCURVE",
"500 541 OFFCURVE",
"500 568 CURVE SMOOTH",
"500 644 OFFCURVE",
"467 688 OFFCURVE",
"356 688 CURVE SMOOTH",
"151 688 LINE",
"5 0 LINE"
);
},
{
closed = 1;
nodes = (
"244 589 LINE",
"323 589 LINE SMOOTH",
"368 589 OFFCURVE",
"384 577 OFFCURVE",
"384 545 CURVE SMOOTH",
"384 527 OFFCURVE",
"379 502 OFFCURVE",
"372 470 CURVE SMOOTH",
"352 377 OFFCURVE",
"340 350 OFFCURVE",
"271 350 CURVE SMOOTH",
"193 350 LINE"
);
}
);
width = 475;
}
);
leftKerningGroup = H;
rightKerningGroup = R;
unicode = 0052;
},
{
glyphname = Rcaron;
layers = (
{
background = {
paths = (
{
closed = 1;
nodes = (
"151 0 LINE",
"151 294 LINE",
"406 294 LINE SMOOTH",
"409 294 OFFCURVE",
"434 294 OFFCURVE",
"447 296 CURVE",
"565 0 LINE",
"605 0 LINE",
"484 302 LINE",
"590 327 OFFCURVE",
"598 409 OFFCURVE",
"598 491 CURVE SMOOTH",
"598 589 OFFCURVE",
"591 688 OFFCURVE",
"421 688 CURVE SMOOTH",
"115 688 LINE",
"115 0 LINE"
);
},
{
closed = 1;
nodes = (
"151 654 LINE",
"419 654 LINE SMOOTH",
"555 654 OFFCURVE",
"562 586 OFFCURVE",
"562 491 CURVE SMOOTH",
"562 396 OFFCURVE",
"551 328 OFFCURVE",
"404 328 CURVE",
"151 328 LINE"
);
},
{
closed = 1;
nodes = (
"366 750 LINE",
"473 883 LINE",
"473 888 LINE",
"446 888 LINE",
"343 780 LINE",
"240 888 LINE",
"213 888 LINE",
"213 883 LINE",
"320 750 LINE"
);
}
);
};
components = (
{
name = R;
},
{
name = caroncomb.case;
transform = "{1, 0, 0, 1, 235, 178}";
}
);
layerId = "CD898CA3-FB76-4965-A23E-9AA06D1CE2B1";
width = 685;
},
{
components = (
{
name = R;
},
{
name = caroncomb.case;
transform = "{1, 0, 0, 1, 167, 178}";
}
);
layerId = "B4DE345C-CFDB-4A54-B125-3358BD91D59F";
width = 654;
},
{
components = (
{
name = R;
},
{
name = caroncomb.case;
transform = "{1, 0, 0, 1, 104, 178}";
}
);
layerId = "47937877-2CF8-49A0-A6AF-2B1A27CB5FF4";
width = 420;
},
{
components = (
{
name = R;
},
{
name = caroncomb.case;
transform = "{1, 0, 0, 1, 142, 178}";
}
);
layerId = "FA01890A-5211-455F-9108-1209F66A586C";
width = 405;
},
{
components = (
{
name = R;
},
{
name = caroncomb.case;
transform = "{1, 0, 0, 1, 215, 178}";
}
);
layerId = "20A7088A-67D7-4614-84CF-19C576DDC019";
width = 698;
},
{
components = (
{
name = R;
},
{
name = caroncomb.case;
transform = "{1, 0, 0, 1, 129, 178}";
}
);
layerId = "C784E404-3F19-435D-96BB-DB276E1DA8D0";
width = 475;
}
);
leftKerningGroup = H;
rightKerningGroup = R;
unicode = 0158;
},
{
glyphname = S;
layers = (
{
anchors = (
{
name = bottom;
position = "{264, 0}";
},
{
name = top;
position = "{410, 688}";
}
);
background = {
paths = (
{
closed = 1;
nodes = (
"393 -8 OFFCURVE",
"483 1 OFFCURVE",
"522 188 CURVE SMOOTH",
"532 232 OFFCURVE",
"539 265 OFFCURVE",
"536 290 CURVE SMOOTH",
"531 351 OFFCURVE",
"479 357 OFFCURVE",
"393 366 CURVE SMOOTH",
"223 384 LINE SMOOTH",
"138 393 OFFCURVE",
"131 416 OFFCURVE",
"151 513 CURVE SMOOTH",
"163 568 OFFCURVE",
"177 609 OFFCURVE",
"217 632 CURVE SMOOTH",
"253 654 OFFCURVE",
"305 662 OFFCURVE",
"388 662 CURVE SMOOTH",
"449 662 OFFCURVE",
"531 657 OFFCURVE",
"586 650 CURVE",
"593 683 LINE",
"551 691 OFFCURVE",
"467 696 OFFCURVE",
"392 696 CURVE SMOOTH",
"227 696 OFFCURVE",
"148 668 OFFCURVE",
"116 515 CURVE SMOOTH",
"96 422 OFFCURVE",
"83 362 OFFCURVE",
"210 349 CURVE SMOOTH",
"389 330 LINE SMOOTH",
"512 317 OFFCURVE",
"511 305 OFFCURVE",
"485 183 CURVE SMOOTH",
"473 125 OFFCURVE",
"456 71 OFFCURVE",
"412 50 CURVE SMOOTH",
"368 29 OFFCURVE",
"324 26 OFFCURVE",
"255 26 CURVE SMOOTH",
"197 26 OFFCURVE",
"100 32 OFFCURVE",
"35 39 CURVE",
"27 4 LINE",
"89 -3 OFFCURVE",
"185 -8 OFFCURVE",
"258 -8 CURVE SMOOTH"
);
}
);
};
layerId = "CD898CA3-FB76-4965-A23E-9AA06D1CE2B1";
paths = (
{
closed = 1;
nodes = (
"414 -8 OFFCURVE",
"496 1 OFFCURVE",
"536 178 CURVE SMOOTH",
"544 215 OFFCURVE",
"550 244 OFFCURVE",
"550 268 CURVE SMOOTH",
"550 348 OFFCURVE",
"497 356 OFFCURVE",
"406 366 CURVE SMOOTH",
"236 384 LINE SMOOTH",
"176 390 OFFCURVE",
"155 404 OFFCURVE",
"155 446 CURVE SMOOTH",
"155 507 OFFCURVE",
"178 604 OFFCURVE",
"230 634 CURVE SMOOTH",
"267 655 OFFCURVE",
"317 662 OFFCURVE",
"401 662 CURVE SMOOTH",
"462 662 OFFCURVE",
"544 657 OFFCURVE",
"599 650 CURVE",
"606 683 LINE",
"562 691 OFFCURVE",
"474 696 OFFCURVE",
"395 696 CURVE SMOOTH",
"237 696 OFFCURVE",
"160 669 OFFCURVE",
"130 532 CURVE SMOOTH",
"122 496 OFFCURVE",
"117 467 OFFCURVE",
"117 442 CURVE SMOOTH",
"117 393 OFFCURVE",
"139 358 OFFCURVE",
"223 349 CURVE SMOOTH",
"402 330 LINE SMOOTH",
"486 321 OFFCURVE",
"512 313 OFFCURVE",
"512 270 CURVE SMOOTH",
"512 243 OFFCURVE",
"493 88 OFFCURVE",
"425 50 CURVE SMOOTH",
"382 26 OFFCURVE",
"337 26 OFFCURVE",
"268 26 CURVE SMOOTH",
"210 26 OFFCURVE",
"113 32 OFFCURVE",
"48 39 CURVE",
"40 4 LINE",
"111 -3 OFFCURVE",
"211 -8 OFFCURVE",
"293 -8 CURVE SMOOTH"
);
}
);
width = 636;
},
{
anchors = (
{
name = bottom;
position = "{251, 0}";
},
{
name = top;
position = "{397, 688}";
}
);
background = {
paths = (
{
closed = 1;
nodes = (
"412 -8 OFFCURVE",
"528 13 OFFCURVE",
"573 223 CURVE SMOOTH",
"587 289 OFFCURVE",
"587 333 OFFCURVE",
"579 357 CURVE SMOOTH",
"561 414 OFFCURVE",
"518 425 OFFCURVE",
"468 432 CURVE SMOOTH",
"366 445 LINE SMOOTH",
"315 452 OFFCURVE",
"312 456 OFFCURVE",
"320 491 CURVE SMOOTH",
"323 506 OFFCURVE",
"329 515 OFFCURVE",
"341 522 CURVE SMOOTH",
"353 528 OFFCURVE",
"373 529 OFFCURVE",
"405 529 CURVE SMOOTH",
"469 529 OFFCURVE",
"551 524 OFFCURVE",
"600 518 CURVE",
"634 675 LINE",
"583 687 OFFCURVE",
"486 696 OFFCURVE",
"402 696 CURVE SMOOTH",
"251 696 OFFCURVE",
"124 666 OFFCURVE",
"85 485 CURVE SMOOTH",
"59 359 OFFCURVE",
"63 279 OFFCURVE",
"143 269 CURVE SMOOTH",
"256 254 LINE SMOOTH",
"334 244 OFFCURVE",
"344 243 OFFCURVE",
"336 204 CURVE SMOOTH",
"332 185 OFFCURVE",
"329 174 OFFCURVE",
"318 167 CURVE SMOOTH",
"306 160 OFFCURVE",
"282 159 OFFCURVE",
"229 159 CURVE SMOOTH",
"184 159 OFFCURVE",
"110 163 OFFCURVE",
"38 169 CURVE",
"6 10 LINE",
"70 0 OFFCURVE",
"181 -8 OFFCURVE",
"268 -8 CURVE SMOOTH"
);
}
);
};
layerId = "B4DE345C-CFDB-4A54-B125-3358BD91D59F";
paths = (
{
closed = 1;
nodes = (
"435 -8 OFFCURVE",
"528 13 OFFCURVE",
"573 211 CURVE SMOOTH",
"581 248 OFFCURVE",
"584 279 OFFCURVE",
"584 303 CURVE SMOOTH",
"584 402 OFFCURVE",
"525 419 OFFCURVE",
"468 428 CURVE SMOOTH",
"366 445 LINE SMOOTH",
"328 451 OFFCURVE",
"317 454 OFFCURVE",
"317 470 CURVE SMOOTH",
"317 490 OFFCURVE",
"322 508 OFFCURVE",
"336 518 CURVE SMOOTH",
"348 527 OFFCURVE",
"367 529 OFFCURVE",
"405 529 CURVE SMOOTH",
"469 529 OFFCURVE",
"551 524 OFFCURVE",
"600 518 CURVE",
"634 675 LINE",
"583 687 OFFCURVE",
"486 696 OFFCURVE",
"402 696 CURVE SMOOTH",
"230 696 OFFCURVE",
"124 668 OFFCURVE",
"85 493 CURVE SMOOTH",
"76 450 OFFCURVE",
"71 412 OFFCURVE",
"71 380 CURVE SMOOTH",
"71 318 OFFCURVE",
"90 282 OFFCURVE",
"143 273 CURVE SMOOTH",
"256 254 LINE SMOOTH",
"320 243 OFFCURVE",
"338 244 OFFCURVE",
"338 221 CURVE SMOOTH",
"338 197 OFFCURVE",
"329 174 OFFCURVE",
"318 167 CURVE SMOOTH",
"306 160 OFFCURVE",
"282 159 OFFCURVE",
"229 159 CURVE SMOOTH",
"184 159 OFFCURVE",
"110 163 OFFCURVE",
"38 169 CURVE",
"6 10 LINE",
"70 0 OFFCURVE",
"181 -8 OFFCURVE",
"268 -8 CURVE SMOOTH"
);
}
);
width = 609;
},
{
anchors = (
{
name = bottom;
position = "{131, 0}";
},
{
name = top;
position = "{277, 688}";
}
);
background = {
paths = (
{
closed = 1;
nodes = (
"202 -8 OFFCURVE",
"282 8 OFFCURVE",
"328 223 CURVE SMOOTH",
"338 272 OFFCURVE",
"341 308 OFFCURVE",
"338 333 CURVE SMOOTH",
"332 390 OFFCURVE",
"300 401 OFFCURVE",
"274 408 CURVE SMOOTH",
"220 422 LINE SMOOTH",
"193 429 OFFCURVE",
"192 439 OFFCURVE",
"202 489 CURVE SMOOTH",
"209 521 OFFCURVE",
"214 538 OFFCURVE",
"226 547 CURVE SMOOTH",
"237 556 OFFCURVE",
"255 557 OFFCURVE",
"291 557 CURVE SMOOTH",
"341 557 OFFCURVE",
"376 552 OFFCURVE",
"376 552 CURVE",
"403 679 LINE",
"403 679 OFFCURVE",
"354 696 OFFCURVE",
"275 696 CURVE SMOOTH",
"169 696 OFFCURVE",
"87 671 OFFCURVE",
"47 483 CURVE SMOOTH",
"25 378 OFFCURVE",
"26 307 OFFCURVE",
"71 296 CURVE SMOOTH",
"136 280 LINE SMOOTH",
"180 269 OFFCURVE",
"182 261 OFFCURVE",
"168 196 CURVE SMOOTH",
"162 169 OFFCURVE",
"157 153 OFFCURVE",
"148 143 CURVE SMOOTH",
"137 132 OFFCURVE",
"121 131 OFFCURVE",
"90 131 CURVE SMOOTH",
"66 131 OFFCURVE",
"26 133 OFFCURVE",
"-17 136 CURVE",
"-43 11 LINE",
"-6 0 OFFCURVE",
"54 -8 OFFCURVE",
"102 -8 CURVE SMOOTH"
);
}
);
};
layerId = "47937877-2CF8-49A0-A6AF-2B1A27CB5FF4";
paths = (
{
closed = 1;
nodes = (
"246 -8 OFFCURVE",
"305 8 OFFCURVE",
"349 223 CURVE SMOOTH",
"357 260 OFFCURVE",
"360 289 OFFCURVE",
"360 312 CURVE SMOOTH",
"360 384 OFFCURVE",
"324 395 OFFCURVE",
"295 404 CURVE SMOOTH",
"241 420 LINE SMOOTH",
"224 425 OFFCURVE",
"217 432 OFFCURVE",
"217 448 CURVE SMOOTH",
"217 485 OFFCURVE",
"235 538 OFFCURVE",
"247 547 CURVE SMOOTH",
"258 556 OFFCURVE",
"275 557 OFFCURVE",
"312 557 CURVE SMOOTH",
"362 557 OFFCURVE",
"397 552 OFFCURVE",
"397 552 CURVE",
"424 679 LINE",
"424 679 OFFCURVE",
"371 696 OFFCURVE",
"286 696 CURVE SMOOTH",
"170 696 OFFCURVE",
"106 671 OFFCURVE",
"68 483 CURVE SMOOTH",
"59 442 OFFCURVE",
"54 407 OFFCURVE",
"54 378 CURVE SMOOTH",
"54 334 OFFCURVE",
"66 307 OFFCURVE",
"92 300 CURVE SMOOTH",
"157 282 LINE SMOOTH",
"186 274 OFFCURVE",
"197 267 OFFCURVE",
"197 245 CURVE SMOOTH",
"197 224 OFFCURVE",
"182 156 OFFCURVE",
"169 143 CURVE SMOOTH",
"158 132 OFFCURVE",
"142 131 OFFCURVE",
"111 131 CURVE SMOOTH",
"87 131 OFFCURVE",
"47 133 OFFCURVE",
"4 136 CURVE",
"-22 11 LINE",
"18 0 OFFCURVE",
"82 -8 OFFCURVE",
"133 -8 CURVE SMOOTH"
);
}
);
width = 369;
},
{
anchors = (
{
name = bottom;
position = "{124, 0}";
},
{
name = top;
position = "{270, 688}";
}
);
background = {
paths = (
{
closed = 1;
nodes = (
"255 -8 OFFCURVE",
"281 70 OFFCURVE",
"306 188 CURVE SMOOTH",
"319 246 OFFCURVE",
"326 281 OFFCURVE",
"323 300 CURVE SMOOTH",
"318 345 OFFCURVE",
"291 357 OFFCURVE",
"246 366 CURVE SMOOTH",
"154 385 LINE SMOOTH",
"108 394 OFFCURVE",
"103 407 OFFCURVE",
"125 513 CURVE SMOOTH",
"135 557 OFFCURVE",
"146 594 OFFCURVE",
"168 622 CURVE SMOOTH",
"188 648 OFFCURVE",
"220 662 OFFCURVE",
"277 662 CURVE SMOOTH",
"311 662 OFFCURVE",
"356 657 OFFCURVE",
"384 650 CURVE",
"391 683 LINE",
"370 691 OFFCURVE",
"323 696 OFFCURVE",
"276 696 CURVE SMOOTH",
"160 696 OFFCURVE",
"115 631 OFFCURVE",
"90 515 CURVE SMOOTH",
"70 421 OFFCURVE",
"58 365 OFFCURVE",
"124 352 CURVE SMOOTH",
"226 332 LINE SMOOTH",
"296 318 OFFCURVE",
"296 309 OFFCURVE",
"269 183 CURVE SMOOTH",
"257 123 OFFCURVE",
"244 76 OFFCURVE",
"217 55 CURVE SMOOTH",
"190 33 OFFCURVE",
"161 26 OFFCURVE",
"116 26 CURVE SMOOTH",
"85 26 OFFCURVE",
"34 32 OFFCURVE",
"2 39 CURVE",
"-6 4 LINE",
"27 -3 OFFCURVE",
"80 -8 OFFCURVE",
"121 -8 CURVE SMOOTH"
);
}
);
};
layerId = "FA01890A-5211-455F-9108-1209F66A586C";
paths = (
{
closed = 1;
nodes = (
"258 -8 OFFCURVE",
"282 70 OFFCURVE",
"308 188 CURVE SMOOTH",
"318 232 OFFCURVE",
"323 261 OFFCURVE",
"323 280 CURVE SMOOTH",
"323 340 OFFCURVE",
"292 355 OFFCURVE",
"246 365 CURVE SMOOTH",
"154 385 LINE SMOOTH",
"125 391 OFFCURVE",
"112 397 OFFCURVE",
"112 429 CURVE SMOOTH",
"112 461 OFFCURVE",
"131 575 OFFCURVE",
"168 622 CURVE SMOOTH",
"188 648 OFFCURVE",
"220 662 OFFCURVE",
"277 662 CURVE SMOOTH",
"311 662 OFFCURVE",
"359 656 OFFCURVE",
"384 650 CURVE",
"391 683 LINE",
"368 691 OFFCURVE",
"317 696 OFFCURVE",
"266 696 CURVE SMOOTH",
"156 696 OFFCURVE",
"115 631 OFFCURVE",
"89 515 CURVE SMOOTH",
"81 478 OFFCURVE",
"75 448 OFFCURVE",
"75 425 CURVE SMOOTH",
"75 384 OFFCURVE",
"86 364 OFFCURVE",
"124 355 CURVE SMOOTH",
"226 332 LINE SMOOTH",
"269 323 OFFCURVE",
"286 316 OFFCURVE",
"286 283 CURVE SMOOTH",
"286 245 OFFCURVE",
"255 113 OFFCURVE",
"238 82 CURVE SMOOTH",
"211 32 OFFCURVE",
"161 26 OFFCURVE",
"116 26 CURVE SMOOTH",
"85 26 OFFCURVE",
"34 32 OFFCURVE",
"2 39 CURVE",
"-6 4 LINE",
"30 -3 OFFCURVE",
"87 -8 OFFCURVE",
"131 -8 CURVE SMOOTH"
);
}
);
width = 356;
},
{
anchors = (
{
name = bottom;
position = "{270, 0}";
},
{
name = top;
position = "{416, 688}";
}
);
layerId = "20A7088A-67D7-4614-84CF-19C576DDC019";
paths = (
{
closed = 1;
nodes = (
"448 -8 OFFCURVE",
"542 4 OFFCURVE",
"582 189 CURVE SMOOTH",
"590 223 OFFCURVE",
"593 254 OFFCURVE",
"593 276 CURVE SMOOTH",
"593 373 OFFCURVE",
"538 387 OFFCURVE",
"464 398 CURVE SMOOTH",
"311 418 LINE SMOOTH",
"259 424 OFFCURVE",
"242 430 OFFCURVE",
"242 459 CURVE SMOOTH",
"242 498 OFFCURVE",
"255 554 OFFCURVE",
"291 573 CURVE SMOOTH",
"316 587 OFFCURVE",
"353 592 OFFCURVE",
"419 592 CURVE SMOOTH",
"484 592 OFFCURVE",
"570 587 OFFCURVE",
"626 579 CURVE",
"647 678 LINE",
"592 689 OFFCURVE",
"492 696 OFFCURVE",
"407 696 CURVE SMOOTH",
"250 696 OFFCURVE",
"154 674 OFFCURVE",
"117 510 CURVE SMOOTH",
"110 480 OFFCURVE",
"107 450 OFFCURVE",
"107 427 CURVE SMOOTH",
"107 357 OFFCURVE",
"132 319 OFFCURVE",
"216 308 CURVE SMOOTH",
"374 285 LINE SMOOTH",
"437 277 OFFCURVE",
"457 272 OFFCURVE",
"457 241 CURVE SMOOTH",
"457 206 OFFCURVE",
"442 132 OFFCURVE",
"406 113 CURVE SMOOTH",
"378 99 OFFCURVE",
"341 96 OFFCURVE",
"273 96 CURVE SMOOTH",
"219 96 OFFCURVE",
"128 102 OFFCURVE",
"56 109 CURVE",
"35 7 LINE",
"108 -2 OFFCURVE",
"219 -8 OFFCURVE",
"305 -8 CURVE SMOOTH"
);
}
);
width = 647;
},
{
anchors = (
{
name = bottom;
position = "{159, 0}";
},
{
name = top;
position = "{305, 688}";
}
);
layerId = "C784E404-3F19-435D-96BB-DB276E1DA8D0";
paths = (
{
closed = 1;
nodes = (
"290 -8 OFFCURVE",
"348 27 OFFCURVE",
"384 205 CURVE SMOOTH",
"393 243 OFFCURVE",
"396 273 OFFCURVE",
"396 294 CURVE SMOOTH",
"396 368 OFFCURVE",
"358 381 OFFCURVE",
"315 391 CURVE SMOOTH",
"228 409 LINE SMOOTH",
"200 415 OFFCURVE",
"188 421 OFFCURVE",
"188 444 CURVE SMOOTH",
"188 477 OFFCURVE",
"206 553 OFFCURVE",
"230 576 CURVE SMOOTH",
"247 591 OFFCURVE",
"274 597 OFFCURVE",
"322 597 CURVE SMOOTH",
"370 597 OFFCURVE",
"420 592 OFFCURVE",
"441 588 CURVE",
"460 680 LINE",
"441 685 OFFCURVE",
"378 696 OFFCURVE",
"304 696 CURVE SMOOTH",
"183 696 OFFCURVE",
"117 658 OFFCURVE",
"83 499 CURVE SMOOTH",
"75 461 OFFCURVE",
"70 429 OFFCURVE",
"70 403 CURVE SMOOTH",
"70 355 OFFCURVE",
"84 328 OFFCURVE",
"126 319 CURVE SMOOTH",
"222 298 LINE SMOOTH",
"263 289 OFFCURVE",
"278 283 OFFCURVE",
"278 256 CURVE SMOOTH",
"278 226 OFFCURVE",
"258 129 OFFCURVE",
"232 109 CURVE SMOOTH",
"213 94 OFFCURVE",
"188 91 OFFCURVE",
"145 91 CURVE SMOOTH",
"113 91 OFFCURVE",
"58 95 OFFCURVE",
"13 100 CURVE",
"-7 8 LINE",
"39 -1 OFFCURVE",
"111 -8 OFFCURVE",
"168 -8 CURVE SMOOTH"
);
}
);
width = 425;
}
);
leftKerningGroup = S;
rightKerningGroup = S;
unicode = 0053;
},
{
glyphname = Saltillo;
layers = (
{
layerId = "CD898CA3-FB76-4965-A23E-9AA06D1CE2B1";
paths = (
{
closed = 1;
nodes = (
"65 294 LINE",
"126 510 LINE",
"164 688 LINE",
"125 688 LINE",
"41 294 LINE"
);
}
);
width = 105;
},
{
layerId = "B4DE345C-CFDB-4A54-B125-3358BD91D59F";
paths = (
{
closed = 1;
nodes = (
"176 261 LINE",
"273 522 LINE",
"309 688 LINE",
"125 688 LINE",
"34 261 LINE"
);
}
);
width = 250;
},
{
layerId = "47937877-2CF8-49A0-A6AF-2B1A27CB5FF4";
paths = (
{
closed = 1;
nodes = (
"128 260 LINE",
"212 525 LINE",
"247 688 LINE",
"112 688 LINE",
"21 260 LINE"
);
}
);
width = 175;
},
{
layerId = "FA01890A-5211-455F-9108-1209F66A586C";
paths = (
{
closed = 1;
nodes = (
"51 294 LINE",
"113 510 LINE",
"151 688 LINE",
"112 688 LINE",
"28 294 LINE"
);
}
);
width = 79;
},
{
layerId = "20A7088A-67D7-4614-84CF-19C576DDC019";
paths = (
{
closed = 1;
nodes = (
"121 277 LINE",
"200 513 LINE",
"237 688 LINE",
"125 688 LINE",
"38 277 LINE"
);
}
);
width = 178;
},
{
layerId = "C784E404-3F19-435D-96BB-DB276E1DA8D0";
paths = (
{
closed = 1;
nodes = (
"102 274 LINE",
"178 518 LINE",
"214 688 LINE",
"112 688 LINE",
"24 274 LINE"
);
}
);
width = 142;
}
);
unicode = A78B;
},
{
glyphname = Germandbls;
layers = (
{
anchors = (
{
name = bottom;
position = "{289, 0}";
},
{
name = top;
position = "{435, 688}";
}
);
layerId = "CD898CA3-FB76-4965-A23E-9AA06D1CE2B1";
paths = (
{
closed = 1;
nodes = (
"516 -8 OFFCURVE",
"587 50 OFFCURVE",
"611 170 CURVE SMOOTH",
"616 195 OFFCURVE",
"618 216 OFFCURVE",
"618 235 CURVE SMOOTH",
"618 325 OFFCURVE",
"572 364 OFFCURVE",
"465 364 CURVE SMOOTH",
"405 364 LINE",
"648 622 LINE",
"654 650 LINE",
"597 674 OFFCURVE",
"506 696 OFFCURVE",
"394 696 CURVE SMOOTH",
"225 696 OFFCURVE",
"184 646 OFFCURVE",
"136 421 CURVE SMOOTH",
"46 0 LINE",
"82 0 LINE",
"162 374 LINE SMOOTH",
"215 623 OFFCURVE",
"239 662 OFFCURVE",
"401 662 CURVE SMOOTH",
"483 662 OFFCURVE",
"539 656 OFFCURVE",
"612 631 CURVE",
"351 354 LINE",
"346 332 LINE",
"464 332 LINE SMOOTH",
"545 332 OFFCURVE",
"581 304 OFFCURVE",
"581 238 CURVE SMOOTH",
"581 221 OFFCURVE",
"579 201 OFFCURVE",
"574 179 CURVE SMOOTH",
"548 65 OFFCURVE",
"495 26 OFFCURVE",
"364 26 CURVE SMOOTH",
"317 26 OFFCURVE",
"250 31 OFFCURVE",
"194 38 CURVE",
"188 6 LINE",
"234 -2 OFFCURVE",
"307 -8 OFFCURVE",
"361 -8 CURVE SMOOTH"
);
}
);
width = 712;
},
{
anchors = (
{
name = bottom;
position = "{345, 0}";
},
{
name = top;
position = "{491, 688}";
}
);
background = {
paths = (
{
closed = 1;
nodes = (
"777 519 LINE",
"807 661 LINE",
"706 677 OFFCURVE",
"581 696 OFFCURVE",
"451 696 CURVE SMOOTH",
"177 696 OFFCURVE",
"130 619 OFFCURVE",
"67 324 CURVE SMOOTH",
"-1 0 LINE",
"232 0 LINE",
"301 324 LINE SMOOTH",
"340 508 OFFCURVE",
"345 529 OFFCURVE",
"454 529 CURVE SMOOTH",
"464 529 OFFCURVE",
"492 529 OFFCURVE",
"526 526 CURVE",
"393 408 LINE",
"363 266 LINE",
"450 266 LINE SMOOTH",
"510 266 OFFCURVE",
"522 263 OFFCURVE",
"511 209 CURVE SMOOTH",
"500 160 OFFCURVE",
"489 159 OFFCURVE",
"421 159 CURVE SMOOTH",
"397 159 OFFCURVE",
"357 164 OFFCURVE",
"324 171 CURVE",
"291 15 LINE",
"328 2 OFFCURVE",
"386 -8 OFFCURVE",
"429 -8 CURVE SMOOTH",
"649 -8 OFFCURVE",
"714 64 OFFCURVE",
"739 184 CURVE SMOOTH",
"768 316 OFFCURVE",
"722 361 OFFCURVE",
"615 375 CURVE"
);
},
{
closed = 1;
nodes = (
"777 519 LINE",
"807 661 LINE",
"706 677 OFFCURVE",
"581 696 OFFCURVE",
"451 696 CURVE SMOOTH",
"178 696 OFFCURVE",
"129 619 OFFCURVE",
"67 324 CURVE SMOOTH",
"-1 0 LINE",
"232 0 LINE",
"301 324 LINE SMOOTH",
"340 508 OFFCURVE",
"345 529 OFFCURVE",
"454 529 CURVE SMOOTH",
"464 529 OFFCURVE",
"492 529 OFFCURVE",
"526 526 CURVE",
"393 408 LINE",
"363 266 LINE",
"450 266 LINE SMOOTH",
"497 266 OFFCURVE",
"515 264 OFFCURVE",
"515 237 CURVE SMOOTH",
"515 230 OFFCURVE",
"513 220 OFFCURVE",
"511 209 CURVE SMOOTH",
"500 160 OFFCURVE",
"489 159 OFFCURVE",
"421 159 CURVE SMOOTH",
"397 159 OFFCURVE",
"357 164 OFFCURVE",
"324 171 CURVE",
"291 15 LINE",
"328 2 OFFCURVE",
"386 -8 OFFCURVE",
"429 -8 CURVE SMOOTH",
"649 -8 OFFCURVE",
"714 64 OFFCURVE",
"739 184 CURVE SMOOTH",
"744 210 OFFCURVE",
"747 232 OFFCURVE",
"747 252 CURVE SMOOTH",
"747 332 OFFCURVE",
"701 364 OFFCURVE",
"615 375 CURVE"
);
}
);
};
layerId = "B4DE345C-CFDB-4A54-B125-3358BD91D59F";
paths = (
{
closed = 1;
nodes = (
"652 -8 OFFCURVE",
"715 60 OFFCURVE",
"739 174 CURVE SMOOTH",
"744 200 OFFCURVE",
"747 222 OFFCURVE",
"747 242 CURVE SMOOTH",
"747 329 OFFCURVE",
"701 363 OFFCURVE",
"615 375 CURVE",
"613 375 LINE",
"777 519 LINE",
"807 661 LINE",
"700 677 OFFCURVE",
"569 696 OFFCURVE",
"431 696 CURVE SMOOTH",
"172 696 OFFCURVE",
"126 627 OFFCURVE",
"79 394 CURVE SMOOTH",
"-1 0 LINE",
"232 0 LINE",
"297 304 LINE SMOOTH",
"340 508 OFFCURVE",
"345 529 OFFCURVE",
"454 529 CURVE SMOOTH",
"464 529 OFFCURVE",
"492 529 OFFCURVE",
"526 526 CURVE",
"393 408 LINE",
"363 266 LINE",
"450 266 LINE SMOOTH",
"497 266 OFFCURVE",
"515 264 OFFCURVE",
"515 237 CURVE SMOOTH",
"515 230 OFFCURVE",
"513 220 OFFCURVE",
"511 209 CURVE SMOOTH",
"500 160 OFFCURVE",
"489 159 OFFCURVE",
"421 159 CURVE SMOOTH",
"397 159 OFFCURVE",
"357 164 OFFCURVE",
"324 171 CURVE",
"291 15 LINE",
"331 2 OFFCURVE",
"393 -8 OFFCURVE",
"439 -8 CURVE SMOOTH"
);
}
);
width = 779;
},
{
anchors = (
{
name = bottom;
position = "{222, 0}";
},
{
name = top;
position = "{368, 688}";
}
);
layerId = "47937877-2CF8-49A0-A6AF-2B1A27CB5FF4";
paths = (
{
closed = 1;
nodes = (
"383 -8 OFFCURVE",
"447 35 OFFCURVE",
"477 180 CURVE SMOOTH",
"484 214 OFFCURVE",
"488 243 OFFCURVE",
"488 267 CURVE SMOOTH",
"488 340 OFFCURVE",
"456 371 OFFCURVE",
"406 383 CURVE",
"405 383 LINE",
"535 565 LINE",
"559 678 LINE",
"511 687 OFFCURVE",
"420 696 OFFCURVE",
"357 696 CURVE SMOOTH",
"155 696 OFFCURVE",
"112 620 OFFCURVE",
"75 447 CURVE SMOOTH",
"-20 0 LINE",
"134 0 LINE",
"207 344 LINE SMOOTH",
"248 538 OFFCURVE",
"254 557 OFFCURVE",
"333 557 CURVE SMOOTH",
"346 557 OFFCURVE",
"359 556 OFFCURVE",
"371 555 CURVE",
"257 392 LINE",
"233 279 LINE",
"268 279 LINE SMOOTH",
"313 279 OFFCURVE",
"333 277 OFFCURVE",
"333 244 CURVE SMOOTH",
"333 233 OFFCURVE",
"331 219 OFFCURVE",
"327 200 CURVE SMOOTH",
"313 135 OFFCURVE",
"304 131 OFFCURVE",
"241 131 CURVE SMOOTH",
"233 131 OFFCURVE",
"217 133 OFFCURVE",
"203 136 CURVE",
"176 10 LINE",
"199 0 OFFCURVE",
"238 -8 OFFCURVE",
"266 -8 CURVE SMOOTH"
);
}
);
width = 502;
},
{
anchors = (
{
name = bottom;
position = "{171, 0}";
},
{
name = top;
position = "{317, 688}";
}
);
background = {
paths = (
{
closed = 1;
nodes = (
"262 366 LINE",
"446 629 LINE",
"452 657 LINE",
"416 678 OFFCURVE",
"354 696 OFFCURVE",
"274 696 CURVE SMOOTH",
"145 696 OFFCURVE",
"113 637 OFFCURVE",
"61 394 CURVE SMOOTH",
"-22 0 LINE",
"13 0 LINE",
"97 394 LINE SMOOTH",
"148 631 OFFCURVE",
"169 662 OFFCURVE",
"273 662 CURVE SMOOTH",
"328 662 OFFCURVE",
"374 653 OFFCURVE",
"413 636 CURVE",
"221 360 LINE",
"215 332 LINE",
"289 332 LINE SMOOTH",
"351 332 OFFCURVE",
"365 287 OFFCURVE",
"342 177 CURVE SMOOTH",
"315 48 OFFCURVE",
"267 26 OFFCURVE",
"195 26 CURVE SMOOTH",
"169 26 OFFCURVE",
"126 31 OFFCURVE",
"90 38 CURVE",
"84 6 LINE",
"113 -2 OFFCURVE",
"156 -8 OFFCURVE",
"188 -8 CURVE SMOOTH",
"316 -8 OFFCURVE",
"354 63 OFFCURVE",
"379 184 CURVE SMOOTH",
"405 303 OFFCURVE",
"383 366 OFFCURVE",
"293 366 CURVE"
);
}
);
};
layerId = "FA01890A-5211-455F-9108-1209F66A586C";
paths = (
{
closed = 1;
nodes = (
"349 -8 OFFCURVE",
"385 63 OFFCURVE",
"409 184 CURVE SMOOTH",
"415 214 OFFCURVE",
"419 241 OFFCURVE",
"419 264 CURVE SMOOTH",
"419 331 OFFCURVE",
"387 366 OFFCURVE",
"313 366 CURVE SMOOTH",
"292 366 LINE",
"476 629 LINE",
"482 657 LINE",
"444 678 OFFCURVE",
"378 696 OFFCURVE",
"294 696 CURVE SMOOTH",
"171 696 OFFCURVE",
"140 635 OFFCURVE",
"92 404 CURVE SMOOTH",
"8 0 LINE",
"43 0 LINE",
"127 394 LINE SMOOTH",
"179 637 OFFCURVE",
"200 662 OFFCURVE",
"303 662 CURVE SMOOTH",
"358 662 OFFCURVE",
"403 654 OFFCURVE",
"442 637 CURVE",
"253 366 LINE",
"245 332 LINE",
"319 332 LINE SMOOTH",
"362 332 OFFCURVE",
"382 310 OFFCURVE",
"382 258 CURVE SMOOTH",
"382 237 OFFCURVE",
"379 210 OFFCURVE",
"372 177 CURVE SMOOTH",
"345 48 OFFCURVE",
"297 26 OFFCURVE",
"225 26 CURVE SMOOTH",
"199 26 OFFCURVE",
"156 31 OFFCURVE",
"120 38 CURVE",
"114 6 LINE",
"146 -2 OFFCURVE",
"193 -8 OFFCURVE",
"228 -8 CURVE SMOOTH"
);
}
);
width = 463;
},
{
anchors = (
{
name = bottom;
position = "{294, 0}";
},
{
name = top;
position = "{440, 688}";
}
);
layerId = "20A7088A-67D7-4614-84CF-19C576DDC019";
paths = (
{
closed = 1;
nodes = (
"534 -8 OFFCURVE",
"617 51 OFFCURVE",
"644 184 CURVE SMOOTH",
"650 214 OFFCURVE",
"654 240 OFFCURVE",
"654 263 CURVE SMOOTH",
"654 348 OFFCURVE",
"609 380 OFFCURVE",
"505 382 CURVE",
"494 382 LINE",
"690 571 LINE",
"710 664 LINE",
"653 683 OFFCURVE",
"552 696 OFFCURVE",
"468 696 CURVE SMOOTH",
"231 696 OFFCURVE",
"165 627 OFFCURVE",
"118 408 CURVE SMOOTH",
"31 0 LINE",
"159 0 LINE",
"232 344 LINE SMOOTH",
"280 569 OFFCURVE",
"297 588 OFFCURVE",
"474 588 CURVE SMOOTH",
"496 588 OFFCURVE",
"523 586 OFFCURVE",
"553 582 CURVE",
"351 387 LINE",
"331 294 LINE",
"438 294 LINE SMOOTH",
"497 294 OFFCURVE",
"522 281 OFFCURVE",
"522 238 CURVE SMOOTH",
"522 226 OFFCURVE",
"520 212 OFFCURVE",
"516 195 CURVE SMOOTH",
"498 117 OFFCURVE",
"475 100 OFFCURVE",
"373 100 CURVE SMOOTH",
"345 100 OFFCURVE",
"294 105 OFFCURVE",
"254 112 CURVE",
"232 12 LINE",
"265 1 OFFCURVE",
"323 -8 OFFCURVE",
"365 -8 CURVE SMOOTH"
);
}
);
width = 712;
},
{
anchors = (
{
name = bottom;
position = "{235, 0}";
},
{
name = top;
position = "{381, 688}";
}
);
layerId = "C784E404-3F19-435D-96BB-DB276E1DA8D0";
paths = (
{
closed = 1;
nodes = (
"433 -8 OFFCURVE",
"488 54 OFFCURVE",
"516 182 CURVE SMOOTH",
"522 212 OFFCURVE",
"525 238 OFFCURVE",
"525 261 CURVE SMOOTH",
"525 349 OFFCURVE",
"479 380 OFFCURVE",
"400 385 CURVE",
"398 385 LINE",
"562 588 LINE",
"580 673 LINE",
"527 683 OFFCURVE",
"450 696 OFFCURVE",
"364 696 CURVE SMOOTH",
"174 696 OFFCURVE",
"131 625 OFFCURVE",
"83 401 CURVE SMOOTH",
"-2 0 LINE",
"110 0 LINE",
"187 364 LINE SMOOTH",
"231 571 OFFCURVE",
"244 595 OFFCURVE",
"348 595 CURVE SMOOTH",
"378 595 OFFCURVE",
"411 594 OFFCURVE",
"443 592 CURVE",
"276 383 LINE",
"258 297 LINE",
"352 297 LINE SMOOTH",
"394 297 OFFCURVE",
"413 286 OFFCURVE",
"413 246 CURVE SMOOTH",
"413 232 OFFCURVE",
"411 214 OFFCURVE",
"406 192 CURVE SMOOTH",
"386 101 OFFCURVE",
"354 93 OFFCURVE",
"282 93 CURVE SMOOTH",
"256 93 OFFCURVE",
"211 97 OFFCURVE",
"180 102 CURVE",
"160 9 LINE",
"196 -1 OFFCURVE",
"245 -8 OFFCURVE",
"281 -8 CURVE SMOOTH"
);
}
);
width = 560;
}
);
leftKerningGroup = H;
leftMetricsKey = U;
rightKerningGroup = B;
rightMetricsKey = B;
unicode = 1E9E;
},
{
glyphname = Schwa;
layers = (
{
anchors = (
{
name = bottom;
position = "{299, 0}";
},
{
name = top;
position = "{445, 688}";
}
);
layerId = "CD898CA3-FB76-4965-A23E-9AA06D1CE2B1";
paths = (
{
closed = 1;
nodes = (
"536 -8 OFFCURVE",
"559 31 OFFCURVE",
"626 344 CURVE SMOOTH",
"646 437 OFFCURVE",
"657 506 OFFCURVE",
"657 557 CURVE SMOOTH",
"657 679 OFFCURVE",
"592 696 OFFCURVE",
"424 696 CURVE SMOOTH",
"368 696 OFFCURVE",
"292 688 OFFCURVE",
"244 676 CURVE",
"236 642 LINE",
"284 654 OFFCURVE",
"355 662 OFFCURVE",
"407 662 CURVE SMOOTH",
"563 662 OFFCURVE",
"621 650 OFFCURVE",
"621 546 CURVE SMOOTH",
"621 504 OFFCURVE",
"611 445 OFFCURVE",
"594 365 CURVE",
"104 365 LINE",
"100 344 LINE SMOOTH",
"80 240 OFFCURVE",
"67 167 OFFCURVE",
"67 115 CURVE SMOOTH",
"67 9 OFFCURVE",
"122 -8 OFFCURVE",
"288 -8 CURVE SMOOTH"
);
},
{
closed = 1;
nodes = (
"155 26 OFFCURVE",
"102 29 OFFCURVE",
"102 126 CURVE SMOOTH",
"102 171 OFFCURVE",
"113 236 OFFCURVE",
"133 331 CURVE",
"587 331 LINE",
"523 32 OFFCURVE",
"500 26 OFFCURVE",
"295 26 CURVE SMOOTH"
);
}
);
width = 706;
},
{
anchors = (
{
name = bottom;
position = "{294, 0}";
},
{
name = top;
position = "{440, 688}";
}
);
background = {
paths = (
{
closed = 1;
nodes = (
"347 696 OFFCURVE",
"266 689 OFFCURVE",
"219 680 CURVE",
"185 521 LINE",
"225 526 OFFCURVE",
"282 529 OFFCURVE",
"322 529 CURVE SMOOTH",
"442 529 OFFCURVE",
"464 519 OFFCURVE",
"450 429 CURVE",
"85 429 LINE",
"67 344 LINE SMOOTH",
"10 73 OFFCURVE",
"-4 -8 OFFCURVE",
"287 -8 CURVE SMOOTH",
"589 -8 OFFCURVE",
"610 73 OFFCURVE",
"668 344 CURVE SMOOTH",
"725 614 OFFCURVE",
"707 696 OFFCURVE",
"412 696 CURVE SMOOTH"
);
},
{
closed = 1;
nodes = (
"264 159 OFFCURVE",
"255 162 OFFCURVE",
"275 266 CURVE",
"426 266 LINE",
"401 162 OFFCURVE",
"388 159 OFFCURVE",
"322 159 CURVE SMOOTH"
);
}
);
};
layerId = "B4DE345C-CFDB-4A54-B125-3358BD91D59F";
paths = (
{
closed = 1;
nodes = (
"593 -8 OFFCURVE",
"614 73 OFFCURVE",
"668 344 CURVE SMOOTH",
"682 415 OFFCURVE",
"690 472 OFFCURVE",
"690 517 CURVE SMOOTH",
"690 650 OFFCURVE",
"618 696 OFFCURVE",
"392 696 CURVE SMOOTH",
"333 696 OFFCURVE",
"262 689 OFFCURVE",
"219 680 CURVE",
"185 521 LINE",
"225 526 OFFCURVE",
"282 529 OFFCURVE",
"322 529 CURVE SMOOTH",
"422 529 OFFCURVE",
"454 522 OFFCURVE",
"454 468 CURVE SMOOTH",
"454 457 OFFCURVE",
"452 444 OFFCURVE",
"450 429 CURVE",
"85 429 LINE",
"67 344 LINE SMOOTH",
"50 258 OFFCURVE",
"38 194 OFFCURVE",
"38 144 CURVE SMOOTH",
"38 31 OFFCURVE",
"99 -8 OFFCURVE",
"307 -8 CURVE SMOOTH"
);
},
{
closed = 1;
nodes = (
"282 159 OFFCURVE",
"265 160 OFFCURVE",
"265 195 CURVE SMOOTH",
"265 211 OFFCURVE",
"269 233 OFFCURVE",
"275 266 CURVE",
"426 266 LINE",
"401 162 OFFCURVE",
"388 159 OFFCURVE",
"322 159 CURVE SMOOTH"
);
}
);
width = 695;
},
{
anchors = (
{
name = bottom;
position = "{154, 0}";
},
{
name = top;
position = "{300, 688}";
}
);
layerId = "47937877-2CF8-49A0-A6AF-2B1A27CB5FF4";
paths = (
{
closed = 1;
nodes = (
"343 -8 OFFCURVE",
"362 82 OFFCURVE",
"418 344 CURVE SMOOTH",
"437 433 OFFCURVE",
"449 503 OFFCURVE",
"449 557 CURVE SMOOTH",
"449 655 OFFCURVE",
"408 696 OFFCURVE",
"290 696 CURVE SMOOTH",
"238 696 OFFCURVE",
"191 688 OFFCURVE",
"161 677 CURVE",
"134 552 LINE",
"158 555 OFFCURVE",
"193 557 OFFCURVE",
"223 557 CURVE SMOOTH",
"272 557 OFFCURVE",
"292 552 OFFCURVE",
"292 508 CURVE SMOOTH",
"292 487 OFFCURVE",
"288 458 OFFCURVE",
"280 417 CURVE",
"66 417 LINE",
"50 344 LINE SMOOTH",
"27 240 OFFCURVE",
"11 162 OFFCURVE",
"11 107 CURVE SMOOTH",
"11 25 OFFCURVE",
"48 -8 OFFCURVE",
"159 -8 CURVE SMOOTH"
);
},
{
closed = 1;
nodes = (
"170 131 OFFCURVE",
"160 132 OFFCURVE",
"160 156 CURVE SMOOTH",
"160 176 OFFCURVE",
"166 213 OFFCURVE",
"180 278 CURVE",
"260 278 LINE",
"228 133 OFFCURVE",
"224 131 OFFCURVE",
"189 131 CURVE SMOOTH"
);
}
);
width = 416;
},
{
anchors = (
{
name = bottom;
position = "{160, 0}";
},
{
name = top;
position = "{306, 688}";
}
);
layerId = "FA01890A-5211-455F-9108-1209F66A586C";
paths = (
{
closed = 1;
nodes = (
"288 -8 OFFCURVE",
"316 40 OFFCURVE",
"381 344 CURVE SMOOTH",
"405 455 OFFCURVE",
"418 532 OFFCURVE",
"418 585 CURVE SMOOTH",
"418 678 OFFCURVE",
"377 696 OFFCURVE",
"284 696 CURVE SMOOTH",
"242 696 OFFCURVE",
"199 690 OFFCURVE",
"170 684 CURVE",
"163 651 LINE",
"189 656 OFFCURVE",
"233 662 OFFCURVE",
"263 662 CURVE SMOOTH",
"347 662 OFFCURVE",
"381 649 OFFCURVE",
"381 573 CURVE SMOOTH",
"381 528 OFFCURVE",
"370 462 OFFCURVE",
"349 365 CURVE",
"57 365 LINE",
"53 344 LINE SMOOTH",
"31 227 OFFCURVE",
"17 148 OFFCURVE",
"17 95 CURVE SMOOTH",
"17 10 OFFCURVE",
"52 -8 OFFCURVE",
"142 -8 CURVE SMOOTH"
);
},
{
closed = 1;
nodes = (
"83 26 OFFCURVE",
"51 32 OFFCURVE",
"51 105 CURVE SMOOTH",
"51 150 OFFCURVE",
"63 221 OFFCURVE",
"86 331 CURVE",
"342 331 LINE",
"280 41 OFFCURVE",
"256 26 OFFCURVE",
"149 26 CURVE SMOOTH"
);
}
);
width = 428;
},
{
anchors = (
{
name = bottom;
position = "{291, 0}";
},
{
name = top;
position = "{437, 688}";
}
);
layerId = "20A7088A-67D7-4614-84CF-19C576DDC019";
paths = (
{
closed = 1;
nodes = (
"557 -8 OFFCURVE",
"585 64 OFFCURVE",
"644 344 CURVE SMOOTH",
"661 425 OFFCURVE",
"672 488 OFFCURVE",
"672 537 CURVE SMOOTH",
"672 649 OFFCURVE",
"598 696 OFFCURVE",
"424 696 CURVE SMOOTH",
"366 696 OFFCURVE",
"288 690 OFFCURVE",
"238 681 CURVE",
"217 578 LINE",
"259 584 OFFCURVE",
"322 588 OFFCURVE",
"369 588 CURVE SMOOTH",
"486 588 OFFCURVE",
"540 569 OFFCURVE",
"540 500 CURVE SMOOTH",
"540 475 OFFCURVE",
"536 443 OFFCURVE",
"528 401 CURVE",
"97 401 LINE",
"85 344 LINE SMOOTH",
"66 252 OFFCURVE",
"52 183 OFFCURVE",
"52 131 CURVE SMOOTH",
"52 25 OFFCURVE",
"109 -8 OFFCURVE",
"289 -8 CURVE SMOOTH"
);
},
{
closed = 1;
nodes = (
"218 100 OFFCURVE",
"183 102 OFFCURVE",
"183 166 CURVE SMOOTH",
"183 194 OFFCURVE",
"190 235 OFFCURVE",
"202 293 CURVE",
"505 293 LINE",
"463 104 OFFCURVE",
"447 100 OFFCURVE",
"312 100 CURVE SMOOTH"
);
}
);
width = 689;
},
{
anchors = (
{
name = bottom;
position = "{207, 0}";
},
{
name = top;
position = "{353, 688}";
}
);
layerId = "C784E404-3F19-435D-96BB-DB276E1DA8D0";
paths = (
{
closed = 1;
nodes = (
"411 -8 OFFCURVE",
"436 65 OFFCURVE",
"495 344 CURVE SMOOTH",
"514 436 OFFCURVE",
"526 505 OFFCURVE",
"526 557 CURVE SMOOTH",
"526 663 OFFCURVE",
"476 696 OFFCURVE",
"339 696 CURVE SMOOTH",
"292 696 OFFCURVE",
"233 689 OFFCURVE",
"198 680 CURVE",
"179 587 LINE",
"213 592 OFFCURVE",
"260 595 OFFCURVE",
"295 595 CURVE SMOOTH",
"379 595 OFFCURVE",
"412 586 OFFCURVE",
"412 521 CURVE SMOOTH",
"412 493 OFFCURVE",
"405 453 OFFCURVE",
"394 398 CURVE",
"79 398 LINE",
"68 344 LINE SMOOTH",
"47 242 OFFCURVE",
"33 167 OFFCURVE",
"33 114 CURVE SMOOTH",
"33 21 OFFCURVE",
"76 -8 OFFCURVE",
"206 -8 CURVE SMOOTH"
);
},
{
closed = 1;
nodes = (
"172 93 OFFCURVE",
"147 95 OFFCURVE",
"147 147 CURVE SMOOTH",
"147 177 OFFCURVE",
"155 224 OFFCURVE",
"170 297 CURVE",
"373 297 LINE",
"330 98 OFFCURVE",
"317 93 OFFCURVE",
"228 93 CURVE SMOOTH"
);
}
);
width = 521;
}
);
leftKerningGroup = O;
rightKerningGroup = O;
unicode = 018F;
},
{
glyphname = T;
layers = (
{
anchors = (
{
name = bottom;
position = "{225, 0}";
},
{
name = center;
position = "{298, 344}";
},
{
name = top;
position = "{371, 688}";
}
);
layerId = "CD898CA3-FB76-4965-A23E-9AA06D1CE2B1";
paths = (
{
closed = 1;
nodes = (
"243 0 LINE",
"382 654 LINE",
"615 654 LINE",
"623 688 LINE",
"121 688 LINE",
"113 654 LINE",
"346 654 LINE",
"207 0 LINE"
);
}
);
width = 582;
},
{
anchors = (
{
name = bottom;
position = "{232, 0}";
},
{
name = center;
position = "{307, 344}";
},
{
name = top;
position = "{380, 688}";
}
);
layerId = "B4DE345C-CFDB-4A54-B125-3358BD91D59F";
paths = (
{
closed = 1;
nodes = (
"351 0 LINE",
"460 512 LINE",
"629 512 LINE",
"667 688 LINE",
"96 688 LINE",
"58 512 LINE",
"226 512 LINE",
"117 0 LINE"
);
}
);
width = 577;
},
{
anchors = (
{
name = bottom;
position = "{126, 0}";
},
{
name = center;
position = "{198, 344}";
},
{
name = top;
position = "{271, 688}";
}
);
layerId = "47937877-2CF8-49A0-A6AF-2B1A27CB5FF4";
paths = (
{
closed = 1;
nodes = (
"203 0 LINE",
"319 546 LINE",
"414 546 LINE",
"445 688 LINE",
"101 688 LINE",
"70 546 LINE",
"165 546 LINE",
"49 0 LINE"
);
}
);
width = 352;
},
{
anchors = (
{
name = bottom;
position = "{109, 0}";
},
{
name = center;
position = "{185, 344}";
},
{
name = top;
position = "{258, 688}";
}
);
layerId = "FA01890A-5211-455F-9108-1209F66A586C";
paths = (
{
closed = 1;
nodes = (
"129 0 LINE",
"268 654 LINE",
"401 654 LINE",
"409 688 LINE",
"107 688 LINE",
"99 654 LINE",
"232 654 LINE",
"93 0 LINE"
);
}
);
width = 332;
},
{
anchors = (
{
name = bottom;
position = "{242, 0}";
},
{
name = center;
position = "{320, 344}";
},
{
name = top;
position = "{393, 688}";
}
);
layerId = "20A7088A-67D7-4614-84CF-19C576DDC019";
paths = (
{
closed = 1;
nodes = (
"313 0 LINE",
"436 579 LINE",
"649 579 LINE",
"672 688 LINE",
"117 688 LINE",
"94 579 LINE",
"307 579 LINE",
"183 0 LINE"
);
}
);
width = 602;
},
{
anchors = (
{
name = bottom;
position = "{144, 0}";
},
{
name = center;
position = "{219, 344}";
},
{
name = top;
position = "{292, 688}";
}
);
layerId = "C784E404-3F19-435D-96BB-DB276E1DA8D0";
paths = (
{
closed = 1;
nodes = (
"202 0 LINE",
"327 586 LINE",
"459 586 LINE",
"481 688 LINE",
"104 688 LINE",
"82 586 LINE",
"214 586 LINE",
"89 0 LINE"
);
}
);
width = 400;
}
);
leftKerningGroup = T;
rightKerningGroup = T;
unicode = 0054;
},
{
glyphname = Tbar;
layers = (
{
components = (
{
name = T;
}
);
layerId = "CD898CA3-FB76-4965-A23E-9AA06D1CE2B1";
paths = (
{
closed = 1;
nodes = (
"519 346 LINE",
"525 378 LINE",
"85 378 LINE",
"79 346 LINE"
);
}
);
width = 582;
},
{
components = (
{
name = T;
}
);
layerId = "B4DE345C-CFDB-4A54-B125-3358BD91D59F";
paths = (
{
closed = 1;
nodes = (
"552 251 LINE",
"582 388 LINE",
"52 388 LINE",
"22 251 LINE"
);
}
);
width = 577;
},
{
components = (
{
name = T;
}
);
layerId = "47937877-2CF8-49A0-A6AF-2B1A27CB5FF4";
paths = (
{
closed = 1;
nodes = (
"336 296 LINE",
"362 418 LINE",
"68 418 LINE",
"42 296 LINE"
);
}
);
width = 352;
},
{
components = (
{
name = T;
}
);
layerId = "FA01890A-5211-455F-9108-1209F66A586C";
paths = (
{
closed = 1;
nodes = (
"302 330 LINE",
"308 362 LINE",
"68 362 LINE",
"62 330 LINE"
);
}
);
width = 332;
},
{
components = (
{
name = T;
}
);
layerId = "20A7088A-67D7-4614-84CF-19C576DDC019";
paths = (
{
closed = 1;
nodes = (
"558 275 LINE",
"578 373 LINE",
"82 373 LINE",
"62 275 LINE"
);
}
);
width = 602;
},
{
components = (
{
name = T;
}
);
layerId = "C784E404-3F19-435D-96BB-DB276E1DA8D0";
paths = (
{
closed = 1;
nodes = (
"392 296 LINE",
"412 388 LINE",
"50 388 LINE",
"30 296 LINE"
);
}
);
width = 400;
}
);
leftKerningGroup = T;
rightKerningGroup = T;
unicode = 0166;
},
{
glyphname = U;
layers = (
{
anchors = (
{
name = bottom;
position = "{305, 0}";
},
{
name = ogonek;
position = "{344, 0}";
},
{
name = top;
position = "{451, 688}";
},
{
name = topright;
position = "{663, 688}";
}
);
background = {
paths = (
{
closed = 1;
nodes = (
"649 688 LINE",
"559 264 LINE SMOOTH",
"519 73 OFFCURVE",
"496 26 OFFCURVE",
"292 26 CURVE SMOOTH",
"88 26 OFFCURVE",
"84 73 OFFCURVE",
"124 264 CURVE SMOOTH",
"214 688 LINE",
"178 688 LINE",
"95 294 LINE SMOOTH",
"44 54 OFFCURVE",
"51 -8 OFFCURVE",
"285 -8 CURVE SMOOTH",
"519 -8 OFFCURVE",
"551 54 OFFCURVE",
"602 294 CURVE SMOOTH",
"685 688 LINE"
);
}
);
};
layerId = "CD898CA3-FB76-4965-A23E-9AA06D1CE2B1";
paths = (
{
closed = 1;
nodes = (
"538 -8 OFFCURVE",
"566 55 OFFCURVE",
"616 294 CURVE SMOOTH",
"699 688 LINE",
"663 688 LINE",
"573 264 LINE SMOOTH",
"532 73 OFFCURVE",
"510 26 OFFCURVE",
"306 26 CURVE SMOOTH",
"163 26 OFFCURVE",
"118 49 OFFCURVE",
"118 129 CURVE SMOOTH",
"118 163 OFFCURVE",
"126 207 OFFCURVE",
"138 264 CURVE SMOOTH",
"228 688 LINE",
"192 688 LINE",
"109 294 LINE SMOOTH",
"94 221 OFFCURVE",
"84 166 OFFCURVE",
"84 123 CURVE SMOOTH",
"84 24 OFFCURVE",
"139 -8 OFFCURVE",
"314 -8 CURVE SMOOTH"
);
}
);
width = 717;
},
{
anchors = (
{
name = bottom;
position = "{284, 0}";
},
{
name = ogonek;
position = "{385, 0}";
},
{
name = top;
position = "{430, 688}";
},
{
name = topright;
position = "{612, 688}";
}
);
background = {
paths = (
{
closed = 1;
nodes = (
"480 688 LINE",
"393 278 LINE SMOOTH",
"370 168 OFFCURVE",
"368 162 OFFCURVE",
"316 162 CURVE SMOOTH",
"264 162 OFFCURVE",
"265 168 OFFCURVE",
"288 278 CURVE SMOOTH",
"375 688 LINE",
"141 688 LINE",
"62 316 LINE SMOOTH",
"12 72 OFFCURVE",
"-2 -8 OFFCURVE",
"280 -8 CURVE SMOOTH",
"563 -8 OFFCURVE",
"584 72 OFFCURVE",
"635 316 CURVE SMOOTH",
"714 688 LINE"
);
}
);
};
layerId = "B4DE345C-CFDB-4A54-B125-3358BD91D59F";
paths = (
{
closed = 1;
nodes = (
"566 -8 OFFCURVE",
"578 50 OFFCURVE",
"635 316 CURVE SMOOTH",
"714 688 LINE",
"480 688 LINE",
"393 278 LINE SMOOTH",
"370 168 OFFCURVE",
"368 162 OFFCURVE",
"316 162 CURVE SMOOTH",
"285 162 OFFCURVE",
"273 164 OFFCURVE",
"273 189 CURVE SMOOTH",
"273 206 OFFCURVE",
"278 233 OFFCURVE",
"288 278 CURVE SMOOTH",
"375 688 LINE",
"141 688 LINE",
"62 316 LINE SMOOTH",
"47 244 OFFCURVE",
"39 185 OFFCURVE",
"39 141 CURVE SMOOTH",
"39 32 OFFCURVE",
"91 -8 OFFCURVE",
"290 -8 CURVE SMOOTH"
);
}
);
width = 675;
},
{
anchors = (
{
name = bottom;
position = "{157, 0}";
},
{
name = ogonek;
position = "{230, 0}";
},
{
name = top;
position = "{303, 688}";
},
{
name = topright;
position = "{383, 688}";
}
);
background = {
paths = (
{
closed = 1;
nodes = (
"311 688 LINE",
"219 253 LINE SMOOTH",
"193 132 OFFCURVE",
"193 131 OFFCURVE",
"166 131 CURVE SMOOTH",
"139 131 OFFCURVE",
"139 132 OFFCURVE",
"165 253 CURVE SMOOTH",
"257 688 LINE",
"103 688 LINE",
"22 306 LINE SMOOTH",
"-27 70 OFFCURVE",
"-41 -8 OFFCURVE",
"137 -8 CURVE SMOOTH",
"316 -8 OFFCURVE",
"334 70 OFFCURVE",
"384 306 CURVE SMOOTH",
"465 688 LINE"
);
}
);
};
layerId = "47937877-2CF8-49A0-A6AF-2B1A27CB5FF4";
paths = (
{
closed = 1;
nodes = (
"342 -8 OFFCURVE",
"351 44 OFFCURVE",
"407 306 CURVE SMOOTH",
"488 688 LINE",
"334 688 LINE",
"242 253 LINE SMOOTH",
"216 132 OFFCURVE",
"216 131 OFFCURVE",
"189 131 CURVE SMOOTH",
"175 131 OFFCURVE",
"168 131 OFFCURVE",
"168 147 CURVE SMOOTH",
"168 162 OFFCURVE",
"175 193 OFFCURVE",
"188 253 CURVE SMOOTH",
"280 688 LINE",
"126 688 LINE",
"45 306 LINE SMOOTH",
"27 221 OFFCURVE",
"15 158 OFFCURVE",
"15 111 CURVE SMOOTH",
"15 25 OFFCURVE",
"51 -8 OFFCURVE",
"170 -8 CURVE SMOOTH"
);
}
);
width = 422;
},
{
anchors = (
{
name = bottom;
position = "{159, 0}";
},
{
name = ogonek;
position = "{195, 0}";
},
{
name = top;
position = "{305, 688}";
},
{
name = topright;
position = "{421, 688}";
}
);
background = {
paths = (
{
closed = 1;
nodes = (
"421 688 LINE",
"331 264 LINE SMOOTH",
"291 73 OFFCURVE",
"274 26 OFFCURVE",
"165 26 CURVE SMOOTH",
"55 26 OFFCURVE",
"58 73 OFFCURVE",
"98 264 CURVE SMOOTH",
"188 688 LINE",
"152 688 LINE",
"69 294 LINE SMOOTH",
"19 54 OFFCURVE",
"18 -8 OFFCURVE",
"158 -8 CURVE SMOOTH",
"298 -8 OFFCURVE",
"323 54 OFFCURVE",
"374 294 CURVE SMOOTH",
"457 688 LINE"
);
}
);
};
layerId = "FA01890A-5211-455F-9108-1209F66A586C";
paths = (
{
closed = 1;
nodes = (
"302 -8 OFFCURVE",
"325 54 OFFCURVE",
"374 294 CURVE SMOOTH",
"457 688 LINE",
"421 688 LINE",
"331 264 LINE SMOOTH",
"290 73 OFFCURVE",
"274 26 OFFCURVE",
"165 26 CURVE SMOOTH",
"97 26 OFFCURVE",
"72 43 OFFCURVE",
"72 101 CURVE SMOOTH",
"72 138 OFFCURVE",
"82 190 OFFCURVE",
"98 264 CURVE SMOOTH",
"188 688 LINE",
"152 688 LINE",
"69 294 LINE SMOOTH",
"50 203 OFFCURVE",
"38 140 OFFCURVE",
"38 94 CURVE SMOOTH",
"38 18 OFFCURVE",
"74 -8 OFFCURVE",
"168 -8 CURVE SMOOTH"
);
}
);
width = 425;
},
{
anchors = (
{
name = bottom;
position = "{309, 0}";
},
{
name = ogonek;
position = "{381, 0}";
},
{
name = top;
position = "{455, 688}";
},
{
name = topright;
position = "{620, 688}";
}
);
layerId = "20A7088A-67D7-4614-84CF-19C576DDC019";
paths = (
{
closed = 1;
nodes = (
"572 -8 OFFCURVE",
"602 52 OFFCURVE",
"653 306 CURVE",
"734 688 LINE",
"605 688 LINE",
"517 273 LINE SMOOTH",
"485 123 OFFCURVE",
"473 97 OFFCURVE",
"331 97 CURVE SMOOTH",
"233 97 OFFCURVE",
"201 110 OFFCURVE",
"201 166 CURVE SMOOTH",
"201 191 OFFCURVE",
"208 225 OFFCURVE",
"218 273 CURVE SMOOTH",
"306 688 LINE",
"177 688 LINE",
"96 306 LINE SMOOTH",
"82 240 OFFCURVE",
"73 188 OFFCURVE",
"73 148 CURVE SMOOTH",
"73 28 OFFCURVE",
"139 -8 OFFCURVE",
"327 -8 CURVE SMOOTH"
);
}
);
width = 725;
},
{
anchors = (
{
name = bottom;
position = "{190, 0}";
},
{
name = ogonek;
position = "{256, 0}";
},
{
name = top;
position = "{336, 688}";
},
{
name = topright;
position = "{434, 688}";
}
);
layerId = "C784E404-3F19-435D-96BB-DB276E1DA8D0";
paths = (
{
closed = 1;
nodes = (
"378 -8 OFFCURVE",
"395 48 OFFCURVE",
"448 302 CURVE SMOOTH",
"530 688 LINE",
"417 688 LINE",
"327 261 LINE SMOOTH",
"295 112 OFFCURVE",
"287 91 OFFCURVE",
"211 91 CURVE SMOOTH",
"163 91 OFFCURVE",
"146 99 OFFCURVE",
"146 137 CURVE SMOOTH",
"146 161 OFFCURVE",
"153 200 OFFCURVE",
"167 261 CURVE SMOOTH",
"257 688 LINE",
"144 688 LINE",
"62 302 LINE SMOOTH",
"45 221 OFFCURVE",
"34 161 OFFCURVE",
"34 116 CURVE SMOOTH",
"34 24 OFFCURVE",
"75 -8 OFFCURVE",
"202 -8 CURVE SMOOTH"
);
}
);
width = 488;
}
);
leftKerningGroup = U;
rightKerningGroup = U;
unicode = 0055;
},
{
glyphname = Udieresisacute;
layers = (
{
components = (
{
name = U;
},
{
name = dieresiscomb.case;
transform = "{1, 0, 0, 1, 265, 178}";
},
{
name = acutecomb.case;
transform = "{1, 0, 0, 1, 391, 379}";
}
);
layerId = "CD898CA3-FB76-4965-A23E-9AA06D1CE2B1";
width = 717;
},
{
background = {
paths = (
{
closed = 1;
nodes = (
"511 -8 OFFCURVE",
"532 72 OFFCURVE",
"584 316 CURVE SMOOTH",
"663 688 LINE",
"429 688 LINE",
"342 278 LINE SMOOTH",
"319 168 OFFCURVE",
"316 162 OFFCURVE",
"264 162 CURVE SMOOTH",
"212 162 OFFCURVE",
"214 168 OFFCURVE",
"237 278 CURVE SMOOTH",
"324 688 LINE",
"90 688 LINE",
"11 316 LINE SMOOTH",
"-41 72 OFFCURVE",
"-55 -8 OFFCURVE",
"228 -8 CURVE SMOOTH"
);
},
{
closed = 1;
nodes = (
"364 751 LINE",
"388 867 LINE",
"442 867 LINE",
"418 751 LINE",
"583 751 LINE",
"609 875 LINE",
"492 875 LINE",
"649 1010 LINE",
"650 1015 LINE",
"452 1015 LINE",
"338 875 LINE",
"225 875 LINE",
"199 751 LINE"
);
}
);
};
components = (
{
name = U;
},
{
name = dieresiscomb.case;
transform = "{1, 0, 0, 1, 177, 178}";
},
{
name = acutecomb.case;
transform = "{1, 0, 0, 1, 297, 368}";
}
);
layerId = "B4DE345C-CFDB-4A54-B125-3358BD91D59F";
width = 675;
},
{
components = (
{
name = U;
},
{
name = dieresiscomb.case;
transform = "{1, 0, 0, 1, 104, 178}";
},
{
name = acutecomb.case;
transform = "{1, 0, 0, 1, 218, 345}";
}
);
layerId = "47937877-2CF8-49A0-A6AF-2B1A27CB5FF4";
width = 422;
},
{
components = (
{
name = U;
},
{
name = dieresiscomb.case;
transform = "{1, 0, 0, 1, 146, 178}";
},
{
name = acutecomb.case;
transform = "{1, 0, 0, 1, 257, 350}";
}
);
layerId = "FA01890A-5211-455F-9108-1209F66A586C";
width = 425;
},
{
components = (
{
name = U;
},
{
name = dieresiscomb.case;
transform = "{1, 0, 0, 1, 241, 178}";
},
{
name = acutecomb.case;
transform = "{1, 0, 0, 1, 359, 374}";
}
);
layerId = "20A7088A-67D7-4614-84CF-19C576DDC019";
width = 725;
},
{
components = (
{
name = U;
},
{
name = dieresiscomb.case;
transform = "{1, 0, 0, 1, 142, 178}";
},
{
name = acutecomb.case;
transform = "{1, 0, 0, 1, 267, 389}";
}
);
layerId = "C784E404-3F19-435D-96BB-DB276E1DA8D0";
width = 488;
}
);
leftKerningGroup = U;
rightKerningGroup = U;
unicode = 01D7;
},
